<svg width="1743" height="851" viewBox="0 0 1743 851" fill="none" xmlns="http://www.w3.org/2000/svg">
<path fill-rule="evenodd" clip-rule="evenodd" d="M0 31C0 13.8792 13.8792 0 31 0H1712C1729.12 0 1743 13.8792 1743 31V668.548C1743 682.422 1733.78 694.606 1720.43 698.379L1184.66 849.831C1181.92 850.607 1179.08 851 1176.23 851H31C13.8791 851 0 837.121 0 820V31Z" fill="#81CFFA"/>
<mask id="mask0_0_6410" style="mask-type:alpha" maskUnits="userSpaceOnUse" x="0" y="0" width="1743" height="851">
<path fill-rule="evenodd" clip-rule="evenodd" d="M0 31C0 13.8792 13.8792 0 31 0H1712C1729.12 0 1743 13.8792 1743 31V668.548C1743 682.422 1733.78 694.606 1720.43 698.379L1184.66 849.831C1181.92 850.607 1179.08 851 1176.23 851H31C13.8791 851 0 837.121 0 820V31Z" fill="white"/>
</mask>
<g mask="url(#mask0_0_6410)">
<mask id="mask1_0_6410" style="mask-type:alpha" maskUnits="userSpaceOnUse" x="605" y="584" width="858" height="60">
<path fill-rule="evenodd" clip-rule="evenodd" d="M881.88 584.214C792.341 590.93 741.282 637.392 741.282 637.392L719.084 625.381C659.393 627.817 605.126 641.246 605.126 641.246L1462.78 643.232C1462.78 643.232 1355.8 622.459 1292.85 633.49C1229.89 644.524 1076.44 631.563 1076.44 631.563L1013.23 634.641C983.781 586.052 896.679 584.199 883.547 584.199C882.461 584.199 881.88 584.214 881.88 584.214Z" fill="white"/>
</mask>
<g mask="url(#mask1_0_6410)">
<path fill-rule="evenodd" clip-rule="evenodd" d="M881.88 584.214C792.341 590.93 741.282 637.392 741.282 637.392L719.084 625.381C659.393 627.817 605.126 641.246 605.126 641.246L1462.78 643.232C1462.78 643.232 1355.8 622.459 1292.85 633.49C1229.89 644.524 1076.44 631.563 1076.44 631.563L1013.23 634.641C983.781 586.052 896.679 584.199 883.547 584.199C882.461 584.199 881.88 584.214 881.88 584.214Z" fill="white"/>
</g>
<mask id="mask2_0_6410" style="mask-type:alpha" maskUnits="userSpaceOnUse" x="1368" y="59" width="858" height="193">
<path fill-rule="evenodd" clip-rule="evenodd" d="M1761.01 73.0927C1744.63 79.2337 1705.97 143.741 1692.56 152.588C1679.15 161.434 1639.66 175.601 1639.66 175.601C1639.66 175.601 1612.38 126.488 1566.57 127.435C1520.76 128.387 1505.23 203.52 1505.23 203.52C1505.23 203.52 1477.4 215.319 1470 218.206C1462.59 221.097 1449.18 242.164 1449.18 242.164C1436.85 247.095 1368.57 250.356 1368.57 250.356C1368.57 250.356 1418.32 255.208 1500.63 247.186C1533.83 243.01 1567.06 245.537 1608 248.065C1654.79 250.952 1711.64 253.839 1790.03 246.718C1984.05 229.086 2071.68 203.789 2071.68 203.789C2131.61 192.48 2225.98 184.313 2225.98 184.313L2148.43 185.831C2148.97 125.917 2092.67 117.826 2092.67 117.826C2021.29 114.246 1934.99 121.4 1934.99 121.4L1940.34 85.1023C1913.33 65.9857 1878.26 59.9937 1845.89 59.9937C1808.31 59.9973 1774.37 68.0811 1761.01 73.0927Z" fill="white"/>
</mask>
<g mask="url(#mask2_0_6410)">
<path fill-rule="evenodd" clip-rule="evenodd" d="M1761.01 73.0927C1744.63 79.2337 1705.97 143.741 1692.56 152.588C1679.15 161.434 1639.66 175.601 1639.66 175.601C1639.66 175.601 1612.38 126.488 1566.57 127.435C1520.76 128.387 1505.23 203.52 1505.23 203.52C1505.23 203.52 1477.4 215.319 1470 218.206C1462.59 221.097 1449.18 242.164 1449.18 242.164C1436.85 247.095 1368.57 250.356 1368.57 250.356C1368.57 250.356 1418.32 255.208 1500.63 247.186C1533.83 243.01 1567.06 245.537 1608 248.065C1654.79 250.952 1711.64 253.839 1790.03 246.718C1984.05 229.086 2071.68 203.789 2071.68 203.789C2131.61 192.48 2225.98 184.313 2225.98 184.313L2148.43 185.831C2148.97 125.917 2092.67 117.826 2092.67 117.826C2021.29 114.246 1934.99 121.4 1934.99 121.4L1940.34 85.1023C1913.33 65.9857 1878.26 59.9937 1845.89 59.9937C1808.31 59.9973 1774.37 68.0811 1761.01 73.0927Z" fill="white"/>
</g>
<path fill-rule="evenodd" clip-rule="evenodd" d="M1697.76 148.9C1697.76 148.9 1652.86 172.637 1641.09 175.849C1641.09 175.849 1697.82 176.865 1713.5 188.262C1731.37 201.249 1741.77 249 1741.77 249C1741.77 249 1786.04 235.85 1794.8 231.234C1794.8 231.234 1759.82 158.567 1764.31 155.517C1768.81 152.468 1795.74 96.8589 1799.39 83.5056C1801.45 75.9167 1787.33 74.2798 1774.75 74.2798C1765.2 74.2798 1756.55 75.2215 1756.55 75.2215C1756.55 75.2215 1727.63 107.365 1697.76 148.9Z" fill="url(#paint0_linear_0_6410)"/>
<mask id="mask3_0_6410" style="mask-type:alpha" maskUnits="userSpaceOnUse" x="1465" y="203" width="95" height="18">
<path fill-rule="evenodd" clip-rule="evenodd" d="M1465.18 220.473C1465.18 220.473 1509.61 222.535 1559.83 214.426C1559.83 214.426 1522.59 208.354 1504.65 203.021C1504.65 203.021 1470.1 215.419 1465.18 220.473Z" fill="white"/>
</mask>
<g mask="url(#mask3_0_6410)">
<path fill-rule="evenodd" clip-rule="evenodd" d="M1465.18 220.473C1465.18 220.473 1509.61 222.535 1559.83 214.426C1559.83 214.426 1522.59 208.354 1504.65 203.021C1504.65 203.021 1470.1 215.419 1465.18 220.473Z" fill="url(#paint1_linear_0_6410)"/>
</g>
<mask id="mask4_0_6410" style="mask-type:alpha" maskUnits="userSpaceOnUse" x="1507" y="126" width="101" height="70">
<path fill-rule="evenodd" clip-rule="evenodd" d="M1550 130.67C1518.28 144.15 1507.36 195.965 1507.36 195.965C1507.36 195.965 1540.62 191.753 1559.36 177.996C1559.36 177.996 1571.65 142.834 1581.45 136.83C1591.26 130.833 1607.43 139.372 1607.43 139.372C1607.43 139.372 1592.31 126.32 1570.96 126.32C1564.47 126.32 1557.4 127.524 1550 130.67Z" fill="white"/>
</mask>
<g mask="url(#mask4_0_6410)">
<path fill-rule="evenodd" clip-rule="evenodd" d="M1550 130.67C1518.28 144.15 1507.36 195.965 1507.36 195.965C1507.36 195.965 1540.62 191.753 1559.36 177.996C1559.36 177.996 1571.65 142.834 1581.45 136.83C1591.26 130.833 1607.43 139.372 1607.43 139.372C1607.43 139.372 1592.31 126.32 1570.96 126.32C1564.47 126.32 1557.4 127.524 1550 130.67Z" fill="url(#paint2_linear_0_6410)"/>
</g>
<mask id="mask5_0_6410" style="mask-type:alpha" maskUnits="userSpaceOnUse" x="936" y="350" width="401" height="74">
<path fill-rule="evenodd" clip-rule="evenodd" d="M1081.74 376.375C1076.49 385.953 1069.96 400.523 1069.96 400.523C1069.96 400.523 1052.39 392.929 1037.94 391.997C1023.5 391.066 997.024 399.511 996.34 402.632C995.652 405.753 996.15 411.227 996.15 411.227L936.175 422.918C936.175 422.918 977.926 425.18 1004.01 422.637C1004.01 422.637 1120.49 416.621 1176.4 408.45C1232.33 400.279 1336.32 385.496 1336.32 385.496L1287.18 386.519C1287.18 386.519 1260.23 375.07 1236.26 376.057C1212.29 377.04 1201.36 389.816 1201.36 389.816C1201.36 389.816 1175.88 355.299 1153.51 350.914C1151.37 350.493 1149.03 350.3 1146.55 350.3C1123.05 350.3 1086.49 367.71 1081.74 376.375Z" fill="white"/>
</mask>
<g mask="url(#mask5_0_6410)">
<path fill-rule="evenodd" clip-rule="evenodd" d="M1081.74 376.375C1076.49 385.953 1069.96 400.523 1069.96 400.523C1069.96 400.523 1052.39 392.929 1037.94 391.997C1023.5 391.066 997.024 399.511 996.34 402.632C995.652 405.753 996.15 411.227 996.15 411.227L936.175 422.918C936.175 422.918 977.926 425.18 1004.01 422.637C1004.01 422.637 1120.49 416.621 1176.4 408.45C1232.33 400.279 1336.32 385.496 1336.32 385.496L1287.18 386.519C1287.18 386.519 1260.23 375.07 1236.26 376.057C1212.29 377.04 1201.36 389.816 1201.36 389.816C1201.36 389.816 1175.88 355.299 1153.51 350.914C1151.37 350.493 1149.03 350.3 1146.55 350.3C1123.05 350.3 1086.49 367.71 1081.74 376.375Z" fill="white"/>
</g>
<mask id="mask6_0_6410" style="mask-type:alpha" maskUnits="userSpaceOnUse" x="1070" y="351" width="89" height="52">
<path fill-rule="evenodd" clip-rule="evenodd" d="M1133.52 352.251C1114.24 354.629 1086.97 368.582 1082.76 374.116C1078.55 379.655 1070.35 401.481 1070.35 401.481C1070.35 401.481 1104.48 403.817 1118.67 401.481C1118.67 401.481 1119.11 374.339 1124.88 368.582C1130.63 362.825 1149.12 353.816 1158.94 354.998C1158.94 354.998 1154.89 351.62 1143.06 351.62C1140.31 351.62 1137.15 351.803 1133.52 352.251Z" fill="white"/>
</mask>
<g mask="url(#mask6_0_6410)">
<path fill-rule="evenodd" clip-rule="evenodd" d="M1133.52 352.251C1114.24 354.629 1086.97 368.582 1082.76 374.116C1078.55 379.655 1070.35 401.481 1070.35 401.481C1070.35 401.481 1104.48 403.817 1118.67 401.481C1118.67 401.481 1119.11 374.339 1124.88 368.582C1130.63 362.825 1149.12 353.816 1158.94 354.998C1158.94 354.998 1154.89 351.62 1143.06 351.62C1140.31 351.62 1137.15 351.803 1133.52 352.251Z" fill="url(#paint3_linear_0_6410)"/>
</g>
<mask id="mask7_0_6410" style="mask-type:alpha" maskUnits="userSpaceOnUse" x="997" y="392" width="58" height="14">
<path fill-rule="evenodd" clip-rule="evenodd" d="M1029.95 393.174C1016.95 395.402 997.434 399.587 997.09 402.79C997.09 402.79 1002.48 404.703 1012.31 405.658C1022.14 406.616 1052.09 397.732 1052.09 397.732L1054.22 395.336C1054.22 395.336 1047.06 392.541 1037.56 392.541C1035.15 392.541 1032.59 392.722 1029.95 393.174Z" fill="white"/>
</mask>
<g mask="url(#mask7_0_6410)">
<path fill-rule="evenodd" clip-rule="evenodd" d="M1029.95 393.174C1016.95 395.402 997.434 399.587 997.09 402.79C997.09 402.79 1002.48 404.703 1012.31 405.658C1022.14 406.616 1052.09 397.732 1052.09 397.732L1054.22 395.336C1054.22 395.336 1047.06 392.541 1037.56 392.541C1035.15 392.541 1032.59 392.722 1029.95 393.174Z" fill="url(#paint4_linear_0_6410)"/>
</g>
<mask id="mask8_0_6410" style="mask-type:alpha" maskUnits="userSpaceOnUse" x="1185" y="376" width="86" height="27">
<path fill-rule="evenodd" clip-rule="evenodd" d="M1227.97 377.041C1207.9 380.072 1201.44 390.973 1201.44 390.973L1185.23 402.516C1185.23 402.516 1223.7 395.143 1225.79 394.258C1227.88 393.372 1240.7 383.618 1243.99 382.435C1247.27 381.251 1270.71 382.435 1270.71 382.435C1270.71 382.435 1254.43 376.385 1237.24 376.385C1234.15 376.385 1231.03 376.579 1227.97 377.041Z" fill="white"/>
</mask>
<g mask="url(#mask8_0_6410)">
<path fill-rule="evenodd" clip-rule="evenodd" d="M1227.97 377.041C1207.9 380.072 1201.44 390.973 1201.44 390.973L1185.23 402.516C1185.23 402.516 1223.7 395.143 1225.79 394.258C1227.88 393.372 1240.7 383.618 1243.99 382.435C1247.27 381.251 1270.71 382.435 1270.71 382.435C1270.71 382.435 1254.43 376.385 1237.24 376.385C1234.15 376.385 1231.03 376.579 1227.97 377.041Z" fill="url(#paint5_linear_0_6410)"/>
</g>
<mask id="mask9_0_6410" style="mask-type:alpha" maskUnits="userSpaceOnUse" x="1119" y="32" width="228" height="42">
<path fill-rule="evenodd" clip-rule="evenodd" d="M1264.13 46.9696C1267.12 52.406 1270.83 60.6757 1270.83 60.6757C1270.83 60.6757 1280.83 56.3656 1289.04 55.8367C1297.25 55.3077 1312.3 60.1011 1312.69 61.8725C1313.08 63.6438 1312.8 66.7509 1312.8 66.7509L1346.9 73.3862C1346.9 73.3862 1323.16 74.6701 1308.33 73.2265C1308.33 73.2265 1242.11 69.8124 1210.31 65.1746C1178.51 60.5367 1119.38 52.1467 1119.38 52.1467L1147.33 52.7275C1147.33 52.7275 1162.65 46.2291 1176.28 46.7891C1189.9 47.3471 1196.12 54.5984 1196.12 54.5984C1196.12 54.5984 1210.61 35.0079 1223.33 32.5189C1224.54 32.2803 1225.87 32.1704 1227.28 32.1704C1240.65 32.1704 1261.44 42.0517 1264.13 46.9696Z" fill="white"/>
</mask>
<g mask="url(#mask9_0_6410)">
<path fill-rule="evenodd" clip-rule="evenodd" d="M1264.13 46.9696C1267.12 52.406 1270.83 60.6757 1270.83 60.6757C1270.83 60.6757 1280.83 56.3656 1289.04 55.8367C1297.25 55.3077 1312.3 60.1011 1312.69 61.8725C1313.08 63.6438 1312.8 66.7509 1312.8 66.7509L1346.9 73.3862C1346.9 73.3862 1323.16 74.6701 1308.33 73.2265C1308.33 73.2265 1242.11 69.8124 1210.31 65.1746C1178.51 60.5367 1119.38 52.1467 1119.38 52.1467L1147.33 52.7275C1147.33 52.7275 1162.65 46.2291 1176.28 46.7891C1189.9 47.3471 1196.12 54.5984 1196.12 54.5984C1196.12 54.5984 1210.61 35.0079 1223.33 32.5189C1224.54 32.2803 1225.87 32.1704 1227.28 32.1704C1240.65 32.1704 1261.44 42.0517 1264.13 46.9696Z" fill="white"/>
</g>
<mask id="mask10_0_6410" style="mask-type:alpha" maskUnits="userSpaceOnUse" x="1220" y="32" width="51" height="30">
<path fill-rule="evenodd" clip-rule="evenodd" d="M1234.6 32.7216C1245.65 34.0939 1261.28 42.1436 1263.69 45.3366C1266.1 48.5316 1270.8 61.1238 1270.8 61.1238C1270.8 61.1238 1251.24 62.4713 1243.11 61.1238C1243.11 61.1238 1242.86 45.4647 1239.55 42.1436C1236.25 38.8224 1225.66 33.6248 1220.04 34.3068C1220.04 34.3068 1222.35 32.3579 1229.14 32.3579C1230.71 32.3579 1232.52 32.4633 1234.6 32.7216Z" fill="white"/>
</mask>
<g mask="url(#mask10_0_6410)">
<path fill-rule="evenodd" clip-rule="evenodd" d="M1234.6 32.7216C1245.65 34.0939 1261.28 42.1436 1263.69 45.3366C1266.1 48.5316 1270.8 61.1238 1270.8 61.1238C1270.8 61.1238 1251.24 62.4713 1243.11 61.1238C1243.11 61.1238 1242.86 45.4647 1239.55 42.1436C1236.25 38.8224 1225.66 33.6248 1220.04 34.3068C1220.04 34.3068 1222.35 32.3579 1229.14 32.3579C1230.71 32.3579 1232.52 32.4633 1234.6 32.7216Z" fill="url(#paint6_linear_0_6410)"/>
</g>
<mask id="mask11_0_6410" style="mask-type:alpha" maskUnits="userSpaceOnUse" x="1279" y="56" width="33" height="8">
<path fill-rule="evenodd" clip-rule="evenodd" d="M1293.25 56.6709C1300.65 57.9439 1311.75 60.3356 1311.95 62.166C1311.95 62.166 1308.88 63.2591 1303.29 63.8047C1297.69 64.3523 1280.65 59.2757 1280.65 59.2757L1279.45 57.9068C1279.45 57.9068 1283.52 56.3091 1288.92 56.3091C1290.3 56.3091 1291.75 56.4127 1293.25 56.6709Z" fill="white"/>
</mask>
<g mask="url(#mask11_0_6410)">
<path fill-rule="evenodd" clip-rule="evenodd" d="M1293.25 56.6709C1300.65 57.9439 1311.75 60.3356 1311.95 62.166C1311.95 62.166 1308.88 63.2591 1303.29 63.8047C1297.69 64.3523 1280.65 59.2757 1280.65 59.2757L1279.45 57.9068C1279.45 57.9068 1283.52 56.3091 1288.92 56.3091C1290.3 56.3091 1291.75 56.4127 1293.25 56.6709Z" fill="url(#paint7_linear_0_6410)"/>
</g>
<mask id="mask12_0_6410" style="mask-type:alpha" maskUnits="userSpaceOnUse" x="1156" y="47" width="49" height="15">
<path fill-rule="evenodd" clip-rule="evenodd" d="M1180.52 47.5784C1191.96 49.2618 1195.64 55.3181 1195.64 55.3181L1204.87 61.7309C1204.87 61.7309 1182.95 57.635 1181.76 57.1429C1180.57 56.6509 1173.26 51.2321 1171.39 50.5747C1169.52 49.9173 1156.16 50.5747 1156.16 50.5747C1156.16 50.5747 1165.44 47.2139 1175.24 47.2139C1177 47.2139 1178.77 47.3214 1180.52 47.5784Z" fill="white"/>
</mask>
<g mask="url(#mask12_0_6410)">
<path fill-rule="evenodd" clip-rule="evenodd" d="M1180.52 47.5784C1191.96 49.2618 1195.64 55.3181 1195.64 55.3181L1204.87 61.7309C1204.87 61.7309 1182.95 57.635 1181.76 57.1429C1180.57 56.6509 1173.26 51.2321 1171.39 50.5747C1169.52 49.9173 1156.16 50.5747 1156.16 50.5747C1156.16 50.5747 1165.44 47.2139 1175.24 47.2139C1177 47.2139 1178.77 47.3214 1180.52 47.5784Z" fill="url(#paint8_linear_0_6410)"/>
</g>
<path fill-rule="evenodd" clip-rule="evenodd" d="M1539.51 394V412.609H1521.65L1509.12 457.167L1504.24 758.023L1603.99 769.093V456.325L1588.33 412.609H1571.75V394H1539.51Z" fill="#679359"/>
<path fill-rule="evenodd" clip-rule="evenodd" d="M1140.31 358.304V441.702L1118.92 455.293H1079.87V407.992L1076.65 393.587L1063.89 393.529V376.87H1032.78V393.529H1024.82L1017.5 409.67V525.142L945.025 580.896L855.087 689.98H871.944L857.771 850.872L2628.31 848.902L2619.61 664.981H2628.44L2585.89 599.074L2468.65 593.894V397.885L2426.76 371.818L2423.15 269.35H2421.87L2424.19 371.548L2318.53 376.87L2316.7 409.681L2309.4 417.262L2307.29 491.649L2212.19 632.338H2126.86V613.542L2123.41 609.24L2122 565.569L2118.35 552.369L2112.45 563.883V609.086L2109.07 611.352V631.409L2075.58 694.98H2083.23L2075.58 775.637L2059.11 791.424L2018.32 784.103L1912.98 768.037L1870.05 750.254L1871.72 549.594L1817.93 455.293H1793.57L1789.89 403.781L1784.3 397.04V260.533H1781.04V395.351L1664.35 471.314L1652.31 470.112L1558.66 550.432L1569.89 549.594L1564.78 716.858L1555.84 721.146L1501.47 768.399L1490.15 744.591L1482.66 429.339L1427.15 400.129L1236.75 415.858L1236.22 442.824L1225.35 455.293H1198.59V358.304H1140.31Z" fill="url(#paint9_linear_0_6410)"/>
<path fill-rule="evenodd" clip-rule="evenodd" d="M1498.49 761.912L1490.15 744.592V434L1427 400L1429.72 781.464L1498.49 761.912Z" fill="#679359"/>
<path fill-rule="evenodd" clip-rule="evenodd" d="M1198 455V857.652L1233.64 899L1224.69 455H1198Z" fill="#679359"/>
<path fill-rule="evenodd" clip-rule="evenodd" d="M1116.68 456.543L1116 857H1139L1138.48 443L1116.68 456.543Z" fill="#679359"/>
<path fill-rule="evenodd" clip-rule="evenodd" d="M1653 847.823L1661.98 849.165L1664.53 471.2L1653 470V847.823Z" fill="#679359"/>
<mask id="mask13_0_6410" style="mask-type:alpha" maskUnits="userSpaceOnUse" x="1683" y="461" width="8" height="376">
<path fill-rule="evenodd" clip-rule="evenodd" d="M1685.49 465.853L1683.89 834.212L1690.05 836.353V461.09L1685.49 465.853Z" fill="white"/>
</mask>
<g mask="url(#mask13_0_6410)">
<path fill-rule="evenodd" clip-rule="evenodd" d="M1685.49 465.853L1683.89 834.212L1690.05 836.353V461.09L1685.49 465.853Z" fill="#679359"/>
</g>
<mask id="mask14_0_6410" style="mask-type:alpha" maskUnits="userSpaceOnUse" x="1706" y="447" width="7" height="376">
<path fill-rule="evenodd" clip-rule="evenodd" d="M1707.61 452.154L1706 820.68L1712.17 822.814V447.388L1707.61 452.154Z" fill="white"/>
</mask>
<g mask="url(#mask14_0_6410)">
<path fill-rule="evenodd" clip-rule="evenodd" d="M1707.61 452.154L1706 820.68L1712.17 822.814V447.388L1707.61 452.154Z" fill="#679359"/>
</g>
<mask id="mask15_0_6410" style="mask-type:alpha" maskUnits="userSpaceOnUse" x="1730" y="434" width="7" height="376">
<path fill-rule="evenodd" clip-rule="evenodd" d="M1732.23 439.069L1730.63 807.595L1736.79 809.733V434.303L1732.23 439.069Z" fill="white"/>
</mask>
<g mask="url(#mask15_0_6410)">
<path fill-rule="evenodd" clip-rule="evenodd" d="M1732.23 439.069L1730.63 807.595L1736.79 809.733V434.303L1732.23 439.069Z" fill="#679359"/>
</g>
<path d="M966.091 306.872C964.42 307.643 963.69 309.619 964.457 311.293L965.248 312.963C969.511 312.122 972.749 311.324 977.614 307.668C977.895 307.46 978.187 307.267 978.49 307.092L977.617 305.221C977.163 304.222 976.237 303.518 975.154 303.345C974.488 303.221 973.801 303.311 973.191 303.604L966.091 306.872Z" fill="#98C883"/>
<path d="M904.313 317.85C904.313 317.85 901.659 312.881 897.201 310.265C896.416 309.836 895.631 309.407 894.844 308.938C894.335 317.043 901.369 323.997 894.497 327.691C897.164 330.535 898.803 332.395 898.803 332.395C904.367 336.681 898.803 332.395 918.918 332.581C939.034 332.768 947.483 321.887 957.254 314.833C955.877 315.219 954.391 315.691 952.74 316.279C942.486 319.926 926.355 322.193 907.525 315.057L904.313 317.85Z" fill="#2149FE"/>
<path d="M847.119 285.619C856.527 292.856 871.442 294.195 868.314 301.302C873.307 301.26 875.335 301.032 875.335 301.032C884.771 308.676 892.226 307.351 892.226 307.351C893.114 307.909 893.982 308.43 894.849 308.942C895.716 309.453 896.421 309.84 897.206 310.268C900.534 312.102 903.987 313.7 907.538 315.05C926.373 322.19 942.499 319.92 952.753 316.273C954.403 315.684 955.89 315.213 957.267 314.827C960.483 313.896 963.016 313.428 965.263 312.974L964.472 311.304C964.194 310.702 964.1 310.03 964.202 309.375C961.888 304.394 958.373 294.594 960.156 283.973C952.642 282.372 942.482 281.795 934.158 289.853C934.158 289.853 921.134 286.628 901.054 289.672C899.068 289.962 897.022 290.335 894.908 290.759C892.06 289.955 889.069 289.804 886.157 290.316C886.157 290.316 876.283 276.912 857.446 282.317C853.316 283.506 849.951 284.62 847.119 285.619Z" fill="#2149FE"/>
<path d="M852.568 283.797C862.792 289.194 873.413 292.123 884.06 288.076C884.82 288.764 885.521 289.513 886.157 290.316C889.068 289.801 892.058 289.95 894.906 290.75C897.021 290.326 899.066 289.953 901.052 289.663C914.306 287.653 924.448 288.375 929.853 289.112C934.786 294.114 942.63 296.946 949.875 298.147C953.444 298.718 957.099 298 960.182 296.121C960.909 300.703 962.268 305.162 964.219 309.372C964.117 310.028 964.211 310.699 964.49 311.302L965.281 312.971C963.034 313.426 960.501 313.893 957.284 314.824C955.907 315.21 954.421 315.682 952.77 316.27C952.576 316.342 952.358 316.404 952.155 316.477C942.021 300.836 918.744 296.682 901.27 302.786C898.404 304.032 895.871 305.933 893.876 308.337C893.326 308.008 892.776 307.68 892.233 307.341C891.971 307.379 891.706 307.403 891.441 307.411C891.559 306.386 891.557 305.35 891.433 304.326C889.358 297.604 883.153 296.569 876.428 298.637C875.333 299.311 874.356 300.161 873.536 301.151C872.404 301.211 870.711 301.272 868.318 301.298C871.446 294.19 856.53 292.851 847.122 285.614C848.74 285.049 850.56 284.433 852.568 283.797Z" fill="#2149FE"/>
<path d="M975.921 253.63C974.955 254.611 974.09 255.688 973.342 256.844C992.153 250.681 1003.73 254.222 1003.73 254.222C1012.52 247.441 1026.27 247.936 1029.32 256.646C1028.94 254.909 1028.8 253.13 1028.9 251.357C1018.61 242.545 999.063 232.829 969.882 230.679C940.701 228.528 920.794 227.437 893.737 213.74C893.737 213.74 881.782 217.719 883.945 229.781C886.108 241.843 889.376 245.99 881.438 255.092C873.5 264.194 875.478 275.414 883.12 277.643C890.763 279.872 900.245 285.226 901.053 289.673C921.134 286.628 934.158 289.854 934.158 289.854C942.481 281.796 952.662 282.388 960.177 283.989C963.408 284.667 966.146 285.545 968.012 285.996C969.212 286.258 970.45 286.292 971.662 286.096C977.766 285.199 985.531 279.515 988.88 270.78C982.428 270.508 976.174 268.458 970.81 264.857C970.822 265.921 971.013 266.976 971.375 267.977C971.375 267.977 955.319 272.378 938.437 269.532C937.503 269.467 936.588 269.822 935.943 270.5C928.378 277.471 928.136 277.988 922.824 276.2C914.364 273.338 916.093 270.805 921.052 267.39C924.378 265.082 928.677 263.811 933.011 262.809C937.344 261.807 958.562 253.808 967.093 251.958C984.538 248.187 978.152 250.754 975.921 253.63Z" fill="#D95214"/>
<g style="mix-blend-mode:multiply">
<path d="M970.789 264.842C970.882 264.909 970.975 264.977 971.073 265.048L970.786 265.02C970.801 264.945 970.789 264.897 970.789 264.842Z" fill="#F5D2BD"/>
</g>
<path d="M923.462 265.951C922.626 266.36 921.82 266.828 921.05 267.349C916.092 270.764 914.362 273.296 922.822 276.159C928.134 277.947 928.376 277.43 935.941 270.459C936.586 269.781 937.501 269.426 938.435 269.491C955.322 272.309 971.373 267.936 971.373 267.936C971.033 266.984 970.846 265.984 970.819 264.974L971.107 265.002C976.406 268.482 982.547 270.465 988.878 270.739C985.529 279.474 977.764 285.158 971.66 286.055C970.448 286.251 969.21 286.216 968.01 285.954C966.144 285.504 963.406 284.625 960.175 283.947C952.66 282.347 942.5 281.769 934.177 289.828C934.177 289.828 921.152 286.602 901.072 289.646C900.264 285.2 890.783 279.855 883.139 277.617C880.702 276.9 878.688 275.175 877.604 272.878C892.976 270.201 908.244 267.591 923.462 265.951Z" fill="#D95214"/>
<path d="M886.059 239.957C885.552 237.147 884.686 233.942 883.957 229.766C881.794 217.703 893.748 213.725 893.748 213.725C920.795 227.414 940.728 228.524 969.902 230.685C999.075 232.846 1018.63 242.552 1028.92 251.363C1028.82 253.136 1028.96 254.915 1029.34 256.652C1026.79 249.378 1016.79 247.854 1008.44 251.494C1001.85 249.025 994.844 248.28 987.028 246.964C954.237 241.899 918.847 245.547 886.059 239.957Z" fill="#DD3A18"/>
<path d="M1045.09 279.465L1040.59 280.228C1040.59 280.228 1044.03 282.398 1049.04 280.545C1049.29 279.94 1049.54 279.331 1049.84 278.648C1050.18 277.846 1050.54 276.995 1050.94 276.056C1049.73 277.994 1048.45 278.918 1045.09 279.465Z" fill="#DD3A18"/>
<path d="M1029.35 256.686C1029.92 258.41 1030.1 260.238 1029.88 262.039C1029.88 262.039 1026.26 273.392 1040.58 280.217C1040.58 280.217 1030.92 273.274 1033.71 259.332L1029.35 256.686Z" fill="#DD3A18"/>
<path d="M1044.93 257.459C1043.75 257.211 1042.85 258.544 1044.04 259.968C1045.24 261.392 1046.32 260.403 1046.32 260.403C1045.82 260.069 1045.42 259.603 1045.16 259.056C1044.93 258.559 1044.85 258.003 1044.93 257.459Z" fill="#C1936C"/>
<path d="M1033.71 259.332C1035.11 260.179 1036.81 261.199 1038.7 262.353C1040.42 263.388 1043.97 262.947 1043.97 262.947C1041.15 261.181 1039.46 254.495 1045.43 255.892C1046.07 256.254 1046.81 256.416 1047.54 256.358C1047.54 256.358 1037.87 243.283 1046.86 239.598C1042.16 241.238 1037.31 244.056 1032.47 244.361C1032.04 244.389 1031.64 244.419 1031.25 244.412C1031.11 244.613 1029.15 246.824 1028.9 251.365C1028.8 253.139 1028.94 254.918 1029.32 256.654L1033.71 259.332Z" fill="#472A18"/>
<path d="M1032.89 238.397C1030.54 241.061 1027.08 242.482 1023.53 242.245C1023.53 242.245 1023.94 244.66 1031.26 244.442C1031.65 244.446 1032.06 244.431 1032.48 244.391C1037.33 244.094 1042.17 241.268 1046.87 239.628C1047.31 239.434 1047.76 239.283 1048.23 239.176C1048.38 239.14 1048.52 239.098 1048.69 239.063C1051.64 238.265 1054.47 238.102 1057.26 239.502C1057.26 239.502 1066.73 227.863 1056.36 226.635C1045.98 225.406 1036.91 233.883 1032.89 238.397Z" fill="#78402A"/>
<path d="M1061.7 250.837C1060.01 251.715 1058.64 253.09 1057.76 254.777C1057.76 254.777 1058.87 255.587 1063.04 253.775C1063.04 253.775 1063.97 252.068 1061.7 250.837Z" fill="white"/>
<path fill-rule="evenodd" clip-rule="evenodd" d="M1043.95 262.931C1041.13 261.166 1039.44 254.48 1045.41 255.877L1045.43 255.892C1046.08 256.253 1046.82 256.413 1047.56 256.351C1047.56 256.351 1037.88 243.322 1046.88 239.622C1047.33 239.46 1047.79 239.31 1048.24 239.17C1048.24 239.17 1048.47 239.107 1048.71 239.056C1049.39 238.902 1052.72 238.986 1057.24 239.387L1057.36 239.428C1057.36 239.428 1057.84 239.589 1058.25 239.776C1058.75 240.017 1059.23 240.306 1059.68 240.637C1061.05 241.784 1062.17 243.207 1062.96 244.813C1063.5 245.965 1063.86 247.192 1064.03 248.452C1065.63 251.706 1066.74 252.9 1067.5 253.333C1067.9 253.558 1068.28 253.786 1068.67 254.025C1068.8 254.104 1068.94 254.185 1069.08 254.267C1069.56 254.498 1070.02 254.796 1070.42 255.151C1070.43 255.154 1070.43 255.157 1070.43 255.161C1070.6 255.328 1071.49 256.239 1071.24 257.076C1071.12 257.345 1070.95 257.586 1070.73 257.782C1070.49 258.092 1070.21 258.37 1069.91 258.61C1069.22 259.08 1068.5 259.495 1067.76 259.853C1068.92 263.139 1069.56 264.723 1069.93 265.55C1069.96 265.613 1070.19 266.125 1070.47 266.825C1070.77 267.481 1071.02 268.156 1071.23 268.846C1071.43 269.778 1071.4 270.743 1071.14 271.659C1071.02 271.878 1070.89 272.087 1070.74 272.283C1070.11 273.144 1068.76 274.329 1065.07 274.655C1063.34 274.808 1062.24 274.667 1060.29 274.418C1059.73 274.347 1059.1 274.266 1058.37 274.181C1055.95 273.896 1053.83 273.727 1052.2 273.634C1051.74 274.54 1051.35 275.296 1050.95 275.943C1050.94 275.974 1050.92 276.002 1050.89 276.026C1049.69 277.963 1048.41 278.891 1045.05 279.438L1040.56 280.201C1040.56 280.201 1030.9 273.258 1033.69 259.316C1033.92 259.456 1034.16 259.6 1034.4 259.748C1035.65 260.502 1037.1 261.373 1038.68 262.337C1040.4 263.372 1043.95 262.931 1043.95 262.931ZM1044.9 257.454C1043.73 257.196 1042.83 258.528 1044.02 259.963C1045.19 261.384 1046.29 260.408 1046.29 260.408C1045.79 260.074 1045.39 259.608 1045.13 259.062C1044.89 258.56 1044.82 258.001 1044.9 257.454Z" fill="#EBCAB2"/>
<path d="M1068.85 261.191C1068.64 261.17 1068.43 261.231 1068.26 261.362C1067.87 261.566 1067.5 261.804 1067.16 262.074C1066.79 262.415 1065.7 262.948 1062.4 263.782C1063.44 263.886 1064.49 263.933 1065.54 263.922C1066.03 263.933 1066.52 263.916 1067.01 263.873C1068 263.794 1068.97 263.59 1069.9 263.268C1069.81 262.746 1069.65 262.24 1069.41 261.765C1069.2 261.411 1069.05 261.237 1068.85 261.191Z" fill="#F1F1F0"/>
<path d="M988.859 270.765C985.511 279.5 977.745 285.184 971.642 286.081C970.778 292.699 973.137 299.226 975.169 303.356C976.253 303.529 977.178 304.234 977.632 305.233L978.506 307.104C987.652 301.691 1009.8 306.945 1018.69 298.696C1021.32 298.912 1023.95 298.571 1026.43 297.696L1032.31 295.593L1042.74 289.604C1046.1 287.148 1047.2 284.885 1049.02 280.548C1044 282.412 1040.57 280.231 1040.57 280.231C1026.26 273.406 1029.88 262.054 1029.88 262.054C1030.1 260.252 1029.91 258.425 1029.35 256.7C1026.3 247.99 1012.55 247.495 1003.76 254.276C1003.76 254.276 992.185 250.735 973.373 256.898C972.046 258.942 970.712 261.777 970.795 264.878C976.161 268.465 982.413 270.502 988.859 270.765Z" fill="#2149FE"/>
<path d="M970.789 264.842C970.685 261.726 972.04 258.907 973.367 256.862C973.484 256.821 973.598 256.794 973.715 256.753C978.566 264.822 995.946 270.425 1002.62 256.678C1002.83 262.018 1005.77 267.549 1011.06 271.395C1019.81 276.38 1026.46 272.251 1029.48 264.754C1029.43 266.367 1029.65 267.978 1030.13 269.518C1021.6 275.838 1013.38 281.602 1009.95 289.702C1008.53 294.188 1012.94 296.074 1018.27 298.333C1017.8 299.636 1014.96 301.165 1013.75 301.62C1007.19 299.116 1003.67 290.637 997.02 290.729C990.027 292.493 979.194 297.468 975.902 303.574C975.669 303.474 975.424 303.402 975.174 303.36C973.157 299.24 970.778 292.699 971.647 286.085C977.75 285.187 985.516 279.504 988.864 270.769C982.41 270.496 976.154 268.445 970.789 264.842Z" fill="#2149FE"/>
<g style="mix-blend-mode:multiply">
<path d="M1001.59 253.778C1002.04 253.853 1002.44 253.931 1002.75 254.001C1002.73 254.164 1002.72 254.33 1002.7 254.497C1002.36 254.204 1001.99 253.961 1001.59 253.778Z" fill="#BFD7DA"/>
</g>
<path d="M1050.93 276.052C1050.53 276.988 1050.16 277.854 1049.84 278.644C1053 276.975 1055.85 275.489 1058.41 274.188C1056.34 274.197 1054.28 274.014 1052.24 273.641C1051.79 274.548 1051.4 275.303 1051 275.95C1050.98 275.989 1050.96 276.023 1050.93 276.052Z" fill="#3555A2"/>
<path d="M1074.39 253.028L1067.97 253.615L1068.73 254.011C1069.19 254.252 1069.63 254.516 1070.05 254.803C1070.37 255.004 1070.66 255.26 1070.89 255.561C1070.98 255.68 1071.05 255.805 1071.05 255.805L1071.11 255.901C1071.16 255.995 1071.21 256.093 1071.24 256.195C1071.3 256.369 1071.34 256.55 1071.36 256.734C1071.36 256.807 1071.35 256.879 1071.34 256.951C1071.32 257.083 1071.27 257.211 1071.21 257.328C1071.12 257.481 1071.02 257.623 1070.9 257.75C1070.67 257.983 1070.43 258.2 1070.17 258.4C1069.15 259.099 1069.18 259.081 1069.1 259.129C1068.64 259.406 1068.15 259.625 1067.64 259.78C1067.8 260.333 1068.01 260.867 1068.28 261.377C1068.39 261.554 1068.49 261.738 1068.58 261.929C1068.66 262.121 1068.71 262.272 1068.78 262.445C1068.84 262.617 1068.91 262.808 1068.99 263.105C1069.07 263.402 1069.05 263.374 1069.1 263.525C1069.16 263.676 1069.23 263.824 1069.32 264.099L1069.34 264.204C1069.4 264.375 1069.47 264.541 1069.55 264.701C1069.69 264.981 1069.8 265.269 1069.93 265.55C1070.06 265.831 1070.23 266.224 1070.47 266.825C1070.59 267.103 1070.76 267.51 1070.95 268.009L1073.17 267.002C1073.9 266.678 1074.62 266.35 1075.34 266.022C1073.75 263.396 1072.32 259.005 1074.39 253.028Z" fill="#3555A2"/>
<path d="M868.306 301.313C867.55 301.322 866.72 301.325 865.833 301.319C875.598 308.021 888.05 320.786 894.517 327.674C901.378 323.996 894.361 317.03 894.864 308.921C893.997 308.409 893.129 307.889 892.241 307.33C892.241 307.33 884.768 308.635 875.349 301.011C875.349 301.011 873.322 301.239 868.329 301.282L868.306 301.313Z" fill="#98C883"/>
<path d="M817.304 287.544C810.951 289.773 794.39 290.255 794.465 293.137C794.465 293.137 794.855 295.554 807.301 298.848C819.747 302.142 826.798 299.625 847.455 300.749C855.489 301.191 861.496 301.327 865.825 301.33C866.717 301.34 867.543 301.333 868.299 301.323C871.427 294.216 856.512 292.877 847.104 285.64C837.045 289.192 834.052 291.27 829.339 289.83C823.312 287.972 823.682 285.303 817.304 287.544Z" fill="#98C883"/>
<path d="M967.991 285.98C966.125 285.53 963.387 284.651 960.156 283.973C958.378 294.598 961.887 304.394 964.201 309.375C964.383 308.282 965.089 307.347 966.09 306.872L973.195 303.608C973.805 303.315 974.493 303.224 975.159 303.349C973.142 299.229 970.762 292.688 971.631 286.073C970.423 286.27 969.188 286.238 967.991 285.98Z" fill="#98C883"/>
<path d="M973.367 256.863C974.116 255.707 974.98 254.63 975.947 253.649C978.152 250.754 984.538 248.187 967.08 251.932C958.56 253.767 937.297 261.796 932.998 262.783C928.698 263.771 924.365 265.056 921.038 267.365C916.08 270.78 914.351 273.312 922.811 276.175C928.123 277.963 928.365 277.446 935.93 270.475C936.575 269.796 937.489 269.442 938.424 269.507C955.31 272.325 971.362 267.952 971.362 267.952C971 266.951 970.809 265.896 970.796 264.832C970.706 261.742 972.04 258.907 973.367 256.863Z" fill="#98C883"/>
<path d="M1077.52 268.756C1077.22 268.4 1076.93 268.048 1076.69 267.716C1072.82 262.63 1072.81 258.016 1073.49 255.052C1073.74 253.823 1074.19 252.645 1074.83 251.566C1085.03 249.823 1107.89 247.468 1112.23 246.99C1116.57 246.512 1121.92 242.419 1124.32 242.676C1130.82 243.41 1140.07 243.587 1138.17 244.661C1134.72 246.634 1130.53 245.409 1127.63 246.985C1124.72 248.56 1128.2 251.537 1135.8 250.418C1143.4 249.298 1147.54 253.557 1147.54 253.557C1140.67 255.056 1134.12 258.305 1128.46 258.106C1122.8 257.907 1113.85 255.418 1113.85 255.418C1096.84 263.666 1077.52 268.756 1077.52 268.756Z" fill="#98C883"/>
<path d="M894.291 327.801C895.73 329.359 897.163 330.928 898.562 332.519L898.598 332.546C899.141 332.94 899.657 333.37 900.209 333.771C900.762 334.264 901.479 334.532 902.219 334.523C902.893 334.399 903.559 334.239 904.216 334.044C904.856 333.879 905.501 333.741 906.153 333.624C908.784 333.2 911.441 332.967 914.106 332.929C916.771 332.833 919.435 332.989 922.145 332.863C924.849 332.757 927.535 332.379 930.161 331.733C935.412 330.41 940.36 328.094 944.736 324.908C949.146 321.812 953.041 318.113 957.336 314.949L957.094 314.608C951.92 316.692 947.429 319.887 942.93 322.312C941.811 322.941 940.679 323.521 939.543 324.042C938.407 324.563 937.303 325.116 936.165 325.565C933.896 326.448 931.566 327.166 929.192 327.713C926.799 328.203 924.377 328.548 921.942 328.745C921.324 328.793 920.685 328.825 920.1 328.848L919.125 328.865L918.121 328.923C916.749 328.997 915.366 329.087 913.974 329.202C911.142 329.427 908.339 329.916 905.599 330.662C904.891 330.856 904.193 331.121 903.499 331.381C902.974 331.577 902.462 331.804 901.964 332.061C901.945 332.087 902.2 332.193 902.063 332.196C901.843 332.155 901.629 332.084 901.427 331.986C900.884 331.734 900.274 331.401 899.702 331.103L899.917 331.306C899.075 330.608 898.197 329.97 897.316 329.338C896.434 328.705 895.507 328.102 894.598 327.497L894.291 327.801Z" fill="#1B3EE0"/>
<path d="M865.717 301.369C870.971 305.193 875.938 309.397 880.578 313.947C885.321 318.385 889.901 323.005 894.37 327.724L894.52 327.582C892.824 324.755 890.896 322.074 888.755 319.565C886.643 317.061 884.396 314.673 882.023 312.413C879.635 310.155 877.104 308.053 874.446 306.12C871.781 304.143 868.889 302.491 865.832 301.2L865.717 301.369Z" fill="#7FBA6D"/>
<path d="M894.476 327.731C895.455 327.663 896.393 327.309 897.172 326.712C898.015 326.02 898.614 325.074 898.879 324.015C899.421 321.857 898.909 319.957 898.479 318.29C898.049 316.623 897.351 315.107 896.72 313.609C896.088 312.111 895.502 310.637 894.858 308.917L894.646 308.905C894.537 310.603 894.69 312.308 895.1 313.96C895.47 315.623 895.997 317.242 896.455 318.882C896.912 320.522 897.407 322.142 897.212 323.78C896.942 325.435 895.875 326.851 894.358 327.566L894.476 327.731Z" fill="#E0C5AD"/>
<path d="M894.483 327.721C895.249 327.335 895.934 326.806 896.5 326.161C897.057 325.495 897.414 324.684 897.529 323.822C897.756 322.097 897.282 320.405 896.831 318.778C895.835 315.566 894.664 312.313 894.868 308.916L894.724 308.907C894.178 310.603 894.039 312.404 894.32 314.165C894.578 315.863 894.967 317.539 895.483 319.177C896.004 320.625 896.323 322.137 896.432 323.67C896.468 325.043 895.697 326.365 894.418 327.594L894.483 327.721Z" fill="#98C883"/>
<g style="mix-blend-mode:multiply">
<path d="M907.386 314.901C906.267 315.789 905.181 316.709 904.096 317.638L904.472 317.706C903.627 316.145 902.58 314.701 901.36 313.412C900.17 312.092 898.769 310.978 897.214 310.117L897.075 310.362C897.407 311.267 897.792 312.151 898.227 313.011C898.624 313.779 899.003 314.496 899.429 315.168C899.849 315.835 900.306 316.478 900.8 317.093C901.271 317.711 901.785 318.295 902.338 318.841L904.676 321.052L905.702 319.434L906.297 318.496C906.494 318.168 906.67 317.828 906.824 317.477C906.992 317.113 907.142 316.741 907.272 316.361C907.405 315.945 907.509 315.52 907.581 315.089L907.386 314.901Z" fill="#E0C5AD"/>
</g>
<path d="M1048.94 280.396C1047.59 280.886 1046.16 281.119 1044.72 281.084C1043.29 281.06 1041.88 280.694 1040.62 280.018C1037.22 278.339 1034.05 276.032 1031.9 272.9C1030.86 271.314 1030.14 269.533 1029.79 267.663C1029.44 265.794 1029.49 263.871 1029.94 262.024L1029.74 261.965C1028.73 263.773 1028.27 265.836 1028.42 267.902C1028.54 270.038 1029.17 272.115 1030.25 273.959C1031.34 275.785 1032.78 277.38 1034.48 278.653C1036.11 279.897 1037.92 280.895 1039.84 281.615L1039.7 281.51C1040.51 281.89 1041.37 282.142 1042.26 282.257C1043.07 282.359 1043.9 282.363 1044.71 282.268C1045.5 282.169 1046.27 281.976 1047.02 281.69C1047.73 281.406 1048.41 281.032 1049.04 280.577L1048.94 280.396Z" fill="#E0C5AD"/>
<path d="M1048.97 280.497C1047.58 280.864 1046.14 280.989 1044.71 280.866C1044.01 280.807 1043.31 280.672 1042.64 280.463C1041.99 280.284 1041.37 280.018 1040.8 279.67L1040.74 279.629C1039.08 278.781 1037.5 277.773 1036.03 276.619C1034.58 275.478 1033.31 274.128 1032.26 272.612C1030.14 269.497 1029.27 265.704 1029.81 261.982C1029.13 263.825 1028.91 265.805 1029.17 267.753C1029.42 269.736 1030.1 271.641 1031.16 273.337C1032.23 275.024 1033.59 276.509 1035.18 277.721C1036.74 278.917 1038.44 279.914 1040.25 280.688L1040.2 280.651C1040.9 281.008 1041.65 281.263 1042.42 281.409C1043.16 281.551 1043.92 281.605 1044.67 281.571C1046.17 281.515 1047.63 281.149 1048.97 280.497Z" fill="#DD3A18"/>
<path d="M1138.34 244.263C1138.5 244.128 1138.51 244.036 1138.47 244.088C1138.34 244.025 1138.19 243.983 1138.05 243.963C1137.72 243.92 1137.39 243.898 1137.07 243.896C1136.4 243.861 1135.72 243.85 1135.04 243.853L1130.98 243.938L1126.88 243.87L1124.79 243.782C1124.64 243.768 1124.49 243.762 1124.35 243.766C1124.09 243.767 1124.26 243.79 1124.09 243.811C1123.84 243.875 1123.59 243.96 1123.36 244.066C1121.18 245.033 1118.76 246.524 1116.05 247.617C1115.35 247.907 1114.62 248.14 1113.88 248.314C1113.49 248.412 1113.1 248.487 1112.7 248.54L1111.66 248.669L1107.6 249.155C1102.25 249.71 1096.85 250.27 1091.43 250.585L1083.29 251.124C1080.56 251.193 1077.85 251.401 1075.09 251.479L1075.05 251.271C1080.44 250.363 1085.84 249.64 1091.22 248.983L1107.44 247.071L1111.5 246.639C1112.84 246.545 1114.17 246.25 1115.42 245.763C1117.97 244.846 1120.29 243.399 1122.89 242.514C1123.56 242.273 1124.27 242.202 1124.97 242.307L1126.99 242.501L1131.06 242.825L1135.13 243.168C1135.81 243.233 1136.48 243.313 1137.16 243.42C1137.5 243.472 1137.84 243.546 1138.17 243.642C1138.36 243.682 1138.53 243.767 1138.68 243.891C1138.78 243.988 1138.78 244.149 1138.68 244.25C1138.63 244.328 1138.56 244.396 1138.48 244.451L1138.34 244.263Z" fill="#7FBA6D"/>
<path d="M1126.77 248.142C1126.6 247.846 1126.57 247.484 1126.7 247.163C1126.83 246.839 1127.01 246.542 1127.25 246.289C1127.33 246.181 1127.53 246.049 1127.62 245.971C1127.73 245.872 1127.86 245.781 1127.98 245.698C1128.24 245.527 1128.51 245.376 1128.8 245.249C1129.85 244.816 1130.97 244.564 1132.11 244.502C1133.19 244.44 1134.19 244.435 1135.21 244.433C1136.23 244.431 1137.19 244.391 1138.36 244.287L1138.43 244.408C1136.56 245.524 1134.34 245.704 1132.23 245.875C1131.18 245.918 1130.13 246.063 1129.1 246.311C1128.59 246.448 1128.1 246.655 1127.65 246.925C1127.18 247.142 1126.88 247.624 1126.91 248.144L1126.77 248.142Z" fill="#7FBA6D"/>
<path d="M1147.67 253.316C1145.98 252.696 1144.23 252.258 1142.44 252.007C1141.61 251.897 1140.78 251.835 1139.94 251.822C1139.11 251.779 1138.27 251.799 1137.45 251.881C1137.02 251.903 1136.63 251.919 1136.17 251.984C1135.67 252.046 1135.17 252.083 1134.67 252.095C1133.64 252.12 1132.62 252.034 1131.61 251.838C1130.56 251.652 1129.55 251.295 1128.61 250.781C1128.13 250.504 1127.7 250.154 1127.33 249.743C1126.91 249.336 1126.69 248.766 1126.72 248.182L1126.93 248.145C1127.16 249.004 1128.14 249.436 1128.97 249.723C1129.86 250 1130.77 250.16 1131.7 250.198C1133.56 250.242 1135.43 250.107 1137.27 249.795C1139.17 249.65 1141.08 249.858 1142.91 250.408C1144.73 250.948 1146.41 251.89 1147.82 253.164L1147.67 253.316Z" fill="#7FBA6D"/>
<path d="M1077.72 268.462L1086.69 264.792C1089.7 263.645 1092.68 262.436 1095.63 261.163C1098.59 259.918 1101.56 258.706 1104.49 257.413C1107.43 256.119 1110.33 254.798 1113.22 253.451L1113.88 253.141L1114.54 253.324C1117.23 254.092 1120.02 254.715 1122.75 255.346C1124.11 255.63 1125.5 255.888 1126.87 256.063C1128.19 256.283 1129.52 256.365 1130.85 256.305C1133.55 256.155 1136.31 255.413 1139.09 254.729C1141.93 254.013 1144.82 253.48 1147.73 253.134L1147.77 253.341C1144.95 253.973 1142.23 254.877 1139.49 255.762C1136.76 256.731 1133.95 257.439 1131.09 257.875C1128.19 258.228 1125.3 257.72 1122.46 257.254C1119.63 256.788 1116.81 256.104 1114.02 255.362L1114.16 255.348C1108.32 258.132 1102.35 260.61 1096.25 262.771C1090.17 264.959 1084.01 266.94 1077.77 268.637L1077.72 268.462Z" fill="#7FBA6D"/>
<path d="M927.109 225.401C915.531 222.906 904.327 218.911 893.78 213.519L893.588 213.891C903.607 220.643 914.707 225.631 926.405 228.639C932.252 230.157 938.186 231.313 944.174 232.099C950.127 232.896 956.077 233.383 961.993 233.893L970.826 234.483C973.708 234.687 976.576 235.006 979.447 235.344C985.183 236.011 990.877 237.01 996.498 238.337C1007.71 241.086 1018.73 245.038 1028.73 251.519L1028.98 251.179C1024.42 247.356 1019.39 244.117 1014.03 241.537C1008.68 238.922 1003.11 236.776 997.388 235.124C991.68 233.473 985.864 232.218 979.983 231.37" fill="#DA3919"/>
<path d="M1015.2 270.665C1013.52 270.647 1011.84 270.449 1010.2 270.073C1008.57 269.731 1006.98 269.16 1005.51 268.376L1005.39 268.29L1005.23 268.336C1002.39 269.213 999.467 269.803 996.506 270.099C993.547 270.41 990.565 270.455 987.597 270.234C981.632 269.809 975.871 267.88 970.851 264.627L970.6 264.972C972.509 267.622 975.017 269.785 977.92 271.283C979.38 272.029 980.896 272.662 982.454 273.176C984.02 273.637 985.613 274.005 987.222 274.278C990.448 274.716 993.719 274.689 996.935 274.199C1000.17 273.735 1003.32 272.768 1006.26 271.334L1003.98 271.154C1004.92 271.529 1005.9 271.789 1006.89 271.928C1007.84 272.09 1008.8 272.159 1009.76 272.134C1010.69 272.121 1011.62 272.027 1012.53 271.852C1013.45 271.694 1014.34 271.44 1015.2 271.095L1015.2 270.665Z" fill="#E0C5AD"/>
<path d="M1052.15 273.582C1051.52 274.586 1050.84 275.553 1050.09 276.476C1049.37 277.311 1048.41 277.918 1047.35 278.223C1046.23 278.515 1045.09 278.707 1043.93 278.797L1040.37 279.359L1041.04 279.523C1039.66 278.331 1038.45 276.963 1037.42 275.454C1036.37 273.928 1035.54 272.262 1034.95 270.503C1034.32 268.741 1033.92 266.907 1033.74 265.046C1033.57 263.146 1033.57 261.235 1033.74 259.335L1033.64 259.311C1032.81 263.109 1032.96 267.057 1034.08 270.781C1034.67 272.633 1035.52 274.393 1036.6 276.009C1037.66 277.636 1038.98 279.083 1040.5 280.297L1040.53 280.319L1044.07 279.735C1045.26 279.582 1046.43 279.314 1047.57 278.937C1048.73 278.546 1049.73 277.801 1050.44 276.809C1051.12 275.815 1051.71 274.77 1052.22 273.684L1052.15 273.582Z" fill="#E0C5AD"/>
<path d="M1052.15 273.582C1051.64 274.661 1051.04 275.698 1050.37 276.684C1049.66 277.651 1048.68 278.375 1047.54 278.758C1046.41 279.126 1045.23 279.386 1044.05 279.533L1040.51 280.113L1040.55 280.139C1039.05 278.928 1037.75 277.493 1036.69 275.886C1035.61 274.289 1034.77 272.548 1034.18 270.716C1033.04 267.021 1032.87 263.1 1033.67 259.323L1033.62 259.286C1033.1 261.165 1032.82 263.104 1032.79 265.054C1032.78 267.028 1033.05 268.993 1033.6 270.889C1034.19 272.789 1035.03 274.598 1036.12 276.262C1037.21 277.944 1038.58 279.43 1040.17 280.655L1040.37 280.797L1040.61 280.754L1044.15 280.125C1045.36 279.926 1046.55 279.615 1047.7 279.195C1048.9 278.759 1049.92 277.94 1050.61 276.865C1051.22 275.82 1051.75 274.728 1052.19 273.598L1052.15 273.582Z" fill="#DD3A18"/>
<g style="mix-blend-mode:multiply">
<path d="M1019.08 298.466L1018.69 298.432C1016.37 298.194 1014.14 297.415 1012.18 296.158C1010.2 294.903 1008.39 293.408 1006.79 291.707L1006.58 291.903C1007.86 293.999 1009.49 295.863 1011.39 297.417C1012.91 298.637 1014.64 299.568 1016.5 300.165L1019.08 298.466Z" fill="#E2C9C7"/>
</g>
<path d="M1049.13 280.526L1051.06 275.978L1050.8 275.868C1049.55 277.59 1048.45 279.41 1047.38 281.173L1049.13 280.526Z" fill="#DD3A18"/>
<path d="M971.397 267.882C971.476 266.601 971.692 265.332 972.04 264.097C972.192 263.531 972.378 262.974 972.597 262.43C972.794 261.885 973.023 261.352 973.283 260.834C973.782 259.761 974.336 258.715 974.944 257.701C975.549 256.683 976.234 255.598 976.861 254.628L977.183 254.184L977.029 254.482C977.165 254.219 977.326 253.911 977.503 253.613C977.679 253.316 977.933 253.021 978.1 252.661C978.266 252.302 978.523 251.992 978.708 251.607C978.808 251.413 978.895 251.213 978.969 251.009C979.018 250.8 979.142 250.488 978.951 250.208L978.772 250.314C978.825 250.534 978.469 250.882 978.237 251.115C978.005 251.348 977.683 251.618 977.398 251.868C976.812 252.364 976.271 252.913 975.782 253.506C974.843 254.451 973.997 255.485 973.256 256.592C972.501 257.692 971.882 258.88 971.413 260.128C970.933 261.38 970.653 262.7 970.584 264.039C970.518 265.379 970.732 266.718 971.214 267.97L971.397 267.882Z" fill="#E0C5AD"/>
<g style="mix-blend-mode:multiply">
<path d="M897.186 285.516C899.436 285.024 901.706 284.594 904.001 284.301C907.401 283.856 910.823 283.555 914.268 283.396C917.721 283.216 921.183 283.261 924.631 283.53C926.364 283.663 928.1 283.837 929.841 284.079C930.715 284.201 931.589 284.333 932.472 284.486L932.702 284.527C937.032 281.181 942.247 279.17 947.707 278.74C950.702 278.488 953.718 278.652 956.67 279.227C959.46 279.748 962.211 280.465 964.901 281.373C966.185 281.778 967.464 282.297 968.603 282.684C968.817 282.759 969.034 282.822 969.254 282.874C969.439 282.924 969.627 282.963 969.816 282.99C970.298 283.045 970.783 283.06 971.266 283.036C973.542 282.801 975.75 282.126 977.767 281.049C982.261 278.63 985.988 275.004 988.528 270.58L989.053 270.78C987.122 275.832 983.694 280.171 979.227 283.22C977.004 284.787 974.475 285.867 971.805 286.389C970.446 286.635 969.051 286.605 967.704 286.3C966.401 285.975 965.127 285.601 963.846 285.268C958.742 283.922 953.474 282.985 948.268 283.614C943.049 284.19 938.181 286.511 934.45 290.2L934.257 290.39L933.969 290.331C930.769 289.679 927.526 289.265 924.266 289.093C920.996 288.902 917.723 288.85 914.447 288.937C909.946 289.074 905.457 289.473 901.003 290.132C900.71 289.35 900.338 288.599 899.893 287.892C899.033 287.053 898.129 286.26 897.186 285.516Z" fill="#E0C5AD"/>
</g>
<path d="M971.712 285.746C974.29 285.258 976.737 284.238 978.897 282.752C983.294 279.798 986.682 275.573 988.611 270.64L989.005 270.792C987.576 276.191 984.407 280.966 979.987 284.379C977.682 286.238 974.984 287.549 972.096 288.215C971.88 288.262 971.668 288.305 971.454 288.339L971.712 285.746Z" fill="#3555A2"/>
<path d="M960.091 283.619C961.423 283.902 962.74 284.228 964.034 284.586L967.872 285.634C969.136 285.938 970.448 285.98 971.727 285.757L971.49 288.365C970.921 288.462 970.347 288.526 969.772 288.558C969.332 288.57 968.892 288.555 968.454 288.514C968.047 288.483 967.642 288.428 967.241 288.349C965.856 288.083 964.564 287.798 963.29 287.511C962.137 287.24 960.982 287.007 959.847 286.82L960.091 283.619Z" fill="#7FBA6D"/>
<path d="M821.934 286.797C822.882 287.353 823.761 288.021 824.551 288.785C825.455 289.543 826.441 290.196 827.492 290.733C828.02 291.021 828.57 291.265 829.138 291.464C830.987 292.152 832.997 292.281 834.918 291.836C837.168 291.272 839.334 290.419 841.362 289.296C843.377 288.268 845.293 287.058 847.088 285.683L847.02 285.484C844.92 286.202 842.846 286.972 840.769 287.747C838.722 288.572 836.62 289.253 834.477 289.783C833.417 290.025 832.325 290.098 831.242 290C830.154 289.865 829.088 289.593 828.068 289.19C827.038 288.801 826.038 288.337 825.075 287.804C824.122 287.211 823.067 286.799 821.965 286.591L821.934 286.797Z" fill="#7FBA6D"/>
<path d="M794.486 293.097C794.641 292.548 795.246 292.389 795.756 292.208C796.315 292.048 796.887 291.936 797.465 291.875C798.62 291.697 799.794 291.59 800.975 291.463C803.335 291.233 805.703 290.961 808.083 290.627C810.491 290.296 812.87 289.784 815.2 289.095C816.358 288.704 817.494 288.252 818.605 287.741C819.651 287.215 820.784 286.88 821.95 286.753L821.968 286.609C820.759 286.505 819.542 286.647 818.39 287.027C817.261 287.419 816.112 287.754 814.948 288.03C812.62 288.552 810.245 288.889 807.876 289.24C805.507 289.59 803.138 289.94 800.749 290.362C799.57 290.585 798.389 290.821 797.232 291.154C796.649 291.311 796.082 291.518 795.536 291.772C795.033 292.03 794.354 292.379 794.328 293.077L794.486 293.097Z" fill="#7FBA6D"/>
<path d="M868.252 301.171C865.105 300.79 861.985 300.556 858.85 300.191C855.714 299.827 852.595 299.647 849.479 299.321C846.363 298.995 843.17 298.786 840.013 298.626C836.855 298.466 833.671 298.515 830.517 298.546C824.196 298.679 818.036 299.079 811.989 298.324C808.926 297.92 805.894 297.313 802.911 296.508C801.399 296.168 799.907 295.746 798.44 295.245C797.714 294.995 797.003 294.7 796.313 294.361C795.619 294.089 795.005 293.643 794.532 293.067L794.322 293.095C794.728 293.808 795.333 294.386 796.062 294.762C796.738 295.173 797.439 295.543 798.161 295.869C799.601 296.509 801.075 297.072 802.575 297.556C805.566 298.551 808.621 299.342 811.719 299.923C817.954 301.059 824.297 300.722 830.567 300.638C836.836 300.555 843.129 300.591 849.413 300.943C855.697 301.295 861.99 301.418 868.268 301.356L868.252 301.171Z" fill="#7FBA6D"/>
<g style="mix-blend-mode:multiply">
<path d="M949.018 321.294L948.567 321.415C945.732 322.177 942.839 322.709 939.917 323.006C934.103 323.634 928.23 323.488 922.451 322.571C916.39 321.573 910.482 319.796 904.875 317.282L907.88 314.818C912.765 316.651 917.837 317.94 923.002 318.663C931.186 319.823 939.515 319.386 947.526 317.375C950.203 316.752 952.748 315.758 955.414 314.922C956.171 314.685 956.938 314.454 957.691 314.253L949.018 321.294Z" fill="#E0C5AD"/>
</g>
<g style="mix-blend-mode:multiply">
<path d="M903.564 316.676C899.344 314.695 895.308 312.342 891.504 309.647L891.065 309.643C890.615 309.622 890.172 309.592 889.734 309.542C888.881 309.438 888.035 309.284 887.2 309.078C885.567 308.664 883.983 308.078 882.474 307.33C879.669 305.934 877.099 304.106 874.859 301.915C873.787 301.924 872.778 301.869 871.747 301.789C870.557 301.712 869.389 301.604 868.215 301.483L868.212 301.063C870.543 301.025 872.897 300.978 875.204 300.756L875.303 300.75L875.38 300.806C877.758 302.756 880.408 304.347 883.246 305.529C884.657 306.11 886.123 306.544 887.622 306.825C889.101 307.128 890.617 307.205 892.119 307.053L892.231 307.04L892.313 307.1C893.703 307.967 895.119 308.805 896.563 309.612L903.564 316.676Z" fill="#E0C5AD"/>
</g>
<path d="M978.602 307.363C977.549 308.008 976.528 308.881 975.431 309.556C974.251 310.309 973.009 310.962 971.718 311.505C969.684 312.299 967.576 312.891 965.425 313.273L964.143 309.553C966.238 309.259 968.3 308.766 970.301 308.081C971.423 307.645 972.505 307.114 973.537 306.494C974.057 306.179 974.607 305.846 975.125 305.514L976.016 304.917C976.347 304.7 976.68 304.502 977.017 304.321L978.602 307.363Z" fill="#7FBA6D"/>
<path d="M868.356 301.31C869.319 300.26 869.637 298.771 869.189 297.417C868.675 296.108 867.809 294.966 866.686 294.118C864.725 292.621 862.572 291.391 860.287 290.461C858.095 289.546 855.942 288.698 853.76 287.924L847.137 285.475L847.014 285.645C850.774 288.558 855.173 290.463 859.497 292.352C861.681 293.219 863.792 294.261 865.81 295.466C866.81 296.053 867.645 296.884 868.235 297.882C868.735 298.931 868.722 300.152 868.2 301.188L868.356 301.31Z" fill="#E0C5AD"/>
<path d="M868.323 301.301C868.876 300.211 868.899 298.928 868.384 297.817C867.785 296.776 866.933 295.903 865.907 295.277C863.886 294.032 861.765 292.955 859.568 292.057C855.245 290.2 850.852 288.363 847.084 285.515L847.001 285.628C847.807 286.531 848.688 287.364 849.635 288.117C850.611 288.826 851.613 289.499 852.636 290.132C854.681 291.338 856.804 292.406 858.99 293.331C861.147 294.26 863.312 295.124 865.255 296.174C866.196 296.644 867.024 297.311 867.685 298.128C868.296 299.037 868.468 300.171 868.154 301.218L868.323 301.301Z" fill="#7FBA6D"/>
<path d="M975.181 303.286C974.969 301.731 974.639 300.286 974.307 298.863C973.976 297.441 973.644 296.019 973.338 294.638C973.031 293.258 972.737 291.839 972.449 290.432L971.683 286.056L971.543 286.033C971.153 289 971.289 292.014 971.947 294.935C972.648 297.845 973.684 300.664 975.033 303.337L975.181 303.286Z" fill="#E2C9C7"/>
<path d="M975.159 303.294C973.854 300.617 972.863 297.798 972.205 294.894C971.494 291.998 971.306 288.999 971.649 286.039L971.547 286.028C970.445 288.913 970.524 292.137 971.173 295.121C971.829 298.121 973.162 300.932 975.071 303.34L975.159 303.294Z" fill="#7FBA6D"/>
<path d="M964.213 309.305C962.4 305.353 961.109 301.183 960.374 296.899C959.588 292.627 959.527 288.253 960.195 283.963L960.06 283.943C959.646 284.989 959.316 286.065 959.07 287.162C958.87 288.253 958.741 289.364 958.64 290.48C958.49 292.716 958.609 294.963 958.993 297.172C959.714 301.587 961.46 305.775 964.091 309.397L964.213 309.305Z" fill="#E0C5AD"/>
<path d="M964.197 309.317C963.93 308.24 963.584 307.217 963.337 306.156C963.091 305.095 962.743 304.086 962.503 303.037C961.947 300.97 961.496 298.876 961.152 296.763C960.751 294.67 960.481 292.553 960.344 290.426C960.243 289.36 960.2 288.29 960.193 287.214C960.186 286.137 960.179 285.061 960.143 283.948L960.036 283.933C959.33 288.243 959.356 292.642 960.113 296.945C960.892 301.238 962.228 305.412 964.085 309.362L964.197 309.317Z" fill="#7FBA6D"/>
<g style="mix-blend-mode:multiply">
<path d="M1056.06 275.322C1055.33 275.245 1054.6 275.154 1053.85 275.022C1052.48 274.828 1051.15 274.426 1049.91 273.83C1049.24 273.507 1048.64 273.069 1048.13 272.535C1047.86 272.238 1047.64 271.904 1047.47 271.544L1047.29 271.057L1047.14 270.596C1046.74 269.371 1046.41 268.122 1046.07 266.88L1046.26 266.794L1047.74 270.351C1048.12 271.567 1049.08 272.521 1050.29 272.916C1052.65 273.842 1055.28 273.911 1057.82 273.99L1058.67 274.002L1056.06 275.322Z" fill="#E0C5AD"/>
</g>
<path d="M1063.78 247.172L1062.38 247.219C1062.28 246.828 1062.16 246.432 1062.05 246.066C1061.78 245.206 1061.44 244.372 1061.02 243.576C1060.6 242.761 1060.06 242.013 1059.42 241.358C1058.78 240.632 1058.04 240.008 1057.21 239.51L1057.24 239.373" fill="#E9C28D"/>
<path d="M1048.62 238.941C1046.63 238.768 1044.66 239.507 1043.27 240.953C1042.57 241.764 1042.09 242.748 1041.89 243.805C1041.71 244.81 1041.69 245.838 1041.85 246.847C1042.17 248.725 1042.86 250.521 1043.88 252.132C1044.39 252.916 1044.91 253.668 1045.47 254.397C1046.07 255.097 1046.73 255.748 1047.44 256.343L1047.55 256.261C1046.53 254.808 1045.63 253.271 1044.87 251.666C1044.09 250.077 1043.54 248.383 1043.24 246.637C1042.95 244.92 1043.1 243.039 1044.16 241.621C1045.22 240.203 1046.95 239.469 1048.67 239.062L1048.62 238.941Z" fill="#4F3323"/>
<path d="M1031.13 244.326C1029.78 246.031 1028.95 248.093 1028.74 250.263C1028.52 252.407 1028.67 254.573 1029.19 256.665L1029.4 256.628C1029.83 255.585 1030.16 254.5 1030.36 253.39C1030.58 252.392 1030.68 251.446 1030.86 250.536C1030.88 250.067 1030.95 249.6 1031.01 249.139C1031.07 248.678 1031.11 248.209 1031.12 247.716C1031.2 246.744 1031.24 245.742 1031.32 244.489L1031.13 244.326Z" fill="#593A29"/>
<path d="M1062.49 248.096C1062.14 247.062 1061.33 246.25 1060.29 245.905C1059.32 245.506 1058.27 245.843 1057.36 246.029C1056.45 246.217 1055.56 246.514 1054.71 246.911C1053.9 247.3 1053.12 247.774 1052.4 248.325L1052.52 248.58C1053.39 248.533 1054.25 248.436 1055.1 248.288C1056.24 248.076 1056.58 247.913 1057.69 247.807C1058.35 247.732 1059.01 247.709 1059.67 247.738C1059.94 247.749 1060.16 247.756 1060.43 247.778C1060.94 247.848 1061.12 247.916 1061.68 248.024C1061.89 248.04 1062.16 248.079 1062.49 248.096Z" fill="#472A18"/>
<path d="M1045.38 255.754C1044.8 255.2 1044.07 254.835 1043.28 254.705C1042.81 254.648 1042.32 254.69 1041.86 254.829C1041.32 255.012 1040.85 255.342 1040.48 255.781C1039.84 256.602 1039.51 257.627 1039.56 258.67C1039.61 259.533 1039.8 260.381 1040.15 261.175C1040.89 262.634 1041.98 264.082 1044.02 264.619C1044.55 264.737 1045.1 264.722 1045.63 264.575C1046.12 264.428 1046.57 264.153 1046.93 263.778C1047.47 263.156 1047.76 262.348 1047.73 261.519L1047.56 261.395C1047.26 261.97 1046.82 262.463 1046.29 262.833C1045.78 263.176 1045.13 263.253 1044.56 263.041C1043.41 262.483 1042.51 261.506 1042.06 260.312C1041.57 259.167 1041.23 257.767 1041.87 256.712C1042.23 256.208 1042.79 255.89 1043.41 255.845C1044.05 255.777 1044.7 255.815 1045.32 255.959L1045.38 255.754Z" fill="#D7B6B4"/>
<path d="M1057.83 263.141C1057.61 263.673 1057.51 264.249 1057.55 264.825C1057.58 265.312 1057.69 265.789 1057.89 266.237C1058.09 266.682 1058.36 267.088 1058.7 267.437C1059.1 267.858 1059.59 268.18 1060.13 268.377L1060.26 268.32L1059.17 265.674L1057.96 263.085L1057.83 263.141Z" fill="#C89969"/>
<path d="M1068.8 264.084C1068.57 264.394 1068.24 264.614 1067.87 264.706C1067.5 264.865 1067.12 264.971 1066.73 265.018L1066.74 265.157C1066.9 265.518 1067.18 265.811 1067.54 265.986C1067.81 266.101 1068.12 266.103 1068.39 265.993C1068.54 265.927 1068.68 265.835 1068.8 265.723L1068.8 264.084Z" fill="#C89969"/>
<path d="M1068.83 264.098C1068.7 264.124 1068.58 264.135 1068.45 264.131C1068.36 264.147 1068.26 264.154 1068.17 264.152C1067.99 264.161 1067.86 264.232 1067.69 264.25C1067.52 264.268 1067.39 264.384 1067.24 264.518C1067.04 264.668 1066.87 264.849 1066.73 265.054L1066.74 265.122C1067.15 265.098 1067.55 265.016 1067.94 264.878C1068.34 264.738 1068.68 264.462 1068.89 264.097L1068.83 264.098Z" fill="#E9C28D"/>
<path d="M978.525 307.023C978.444 306.548 978.336 306.099 978.229 305.627C978.164 305.391 978.124 305.196 978.043 304.917C977.979 304.657 977.88 304.407 977.747 304.174C977.15 303.15 976.125 302.448 974.954 302.263C974.348 302.151 973.724 302.186 973.135 302.367L972.693 302.519L972.375 302.642L971.726 302.895L969.179 303.99L966.705 305.224L965.42 305.906C965.154 306.054 964.907 306.234 964.684 306.442C964.465 306.651 964.271 306.886 964.106 307.14C963.445 308.112 963.235 309.323 963.53 310.463C963.706 310.954 963.968 311.41 964.302 311.811C964.571 312.202 964.861 312.578 965.171 312.939L965.299 312.882C964.87 312.069 964.526 311.215 964.272 310.332C964.132 309.431 964.385 308.514 964.966 307.812C965.505 307.07 966.421 306.798 967.258 306.406L969.788 305.259L972.304 304.086C972.722 303.902 973.143 303.68 973.557 303.524C973.98 303.375 974.43 303.318 974.877 303.357C975.784 303.437 976.617 303.894 977.173 304.616C977.638 305.412 978.05 306.238 978.407 307.087L978.525 307.023Z" fill="#E2C9C7"/>
<path d="M1023.38 242.228C1023.55 243.069 1024.11 243.784 1024.88 244.166C1025.57 244.593 1026.32 244.934 1027.1 245.181C1028.61 245.605 1030.18 245.842 1031.75 245.885L1032.91 245.936C1033.33 245.921 1033.75 245.892 1034.15 245.85C1034.96 245.763 1035.75 245.631 1036.54 245.456C1038.04 245.07 1039.52 244.584 1040.96 244.001C1043.76 242.829 1046.35 241.509 1048.94 240.485C1051.53 239.461 1054.19 238.841 1057.16 239.56L1057.28 239.39C1054.59 237.966 1051.36 238.095 1048.52 238.912C1045.68 239.73 1042.94 240.978 1040.19 242.068C1037.44 243.159 1034.65 244.183 1031.69 244.265C1030.22 244.354 1028.74 244.304 1027.28 244.116C1026.55 244.02 1025.84 243.834 1025.16 243.563C1024.48 243.348 1023.92 242.866 1023.6 242.226L1023.38 242.228Z" fill="#4F3323"/>
<path d="M1023.35 242.234C1023.67 242.965 1024.28 243.527 1025.04 243.78C1025.74 244.07 1026.47 244.272 1027.22 244.381C1028.7 244.596 1030.2 244.667 1031.7 244.593C1034.71 244.556 1037.62 243.578 1040.37 242.483C1043.12 241.388 1045.78 240.042 1048.61 239.222C1051.44 238.403 1054.51 238.219 1057.16 239.574L1057.29 239.321C1056.1 238.168 1054.59 237.391 1052.97 237.089C1051.33 236.796 1049.65 236.798 1048.01 237.094C1046.46 237.362 1044.93 237.764 1043.45 238.295C1042 238.816 1040.64 239.401 1039.3 239.88C1037.97 240.36 1036.7 240.957 1035.43 241.381C1034.8 241.608 1034.17 241.812 1033.54 241.97L1032.61 242.162L1031.58 242.366C1030.21 242.614 1028.82 242.791 1027.43 242.896C1026.76 242.959 1026.08 242.956 1025.4 242.887C1025.07 242.854 1024.75 242.782 1024.44 242.674C1024.12 242.591 1023.83 242.416 1023.6 242.17L1023.35 242.234Z" fill="#804D37"/>
<path d="M1057.39 239.583C1058.85 237.799 1060.04 235.802 1060.9 233.661C1061.35 232.555 1061.53 231.361 1061.44 230.171C1061.31 228.914 1060.58 227.798 1059.48 227.17C1058.43 226.601 1057.27 226.261 1056.08 226.172C1054.92 226.043 1053.76 226.028 1052.61 226.13C1050.3 226.349 1048.04 226.933 1045.92 227.859C1041.75 229.806 1037.96 232.504 1034.77 235.82C1033.11 237.418 1031.82 239.328 1029.86 240.4C1027.95 241.552 1025.74 242.107 1023.5 241.994L1023.45 242.413C1025.88 243.343 1028.58 243.333 1031 242.384C1032.28 241.869 1033.47 241.159 1034.53 240.28C1035.5 239.511 1036.23 238.862 1037.11 238.217C1038.86 236.956 1040.5 235.633 1042.29 234.581C1043.95 233.464 1045.72 232.515 1047.58 231.747C1049.28 230.955 1051.1 230.415 1052.96 230.142C1053.41 230.062 1053.85 230.002 1054.32 229.959L1054.92 229.915C1055.14 229.903 1055.47 229.915 1055.75 229.917C1056.42 229.918 1057.1 229.979 1057.76 230.097C1058.18 230.224 1058.26 230.1 1058.56 230.566C1058.84 231.322 1058.9 232.144 1058.74 232.934C1058.53 234.934 1057.76 237.1 1057.03 239.342L1057.39 239.583Z" fill="#84523D"/>
<path d="M1045.36 255.78C1044.72 255.603 1044.05 255.54 1043.38 255.594C1042.69 255.634 1042.05 255.984 1041.64 256.549C1040.89 257.762 1041.25 259.258 1041.74 260.45C1042.25 261.711 1043.23 262.73 1044.47 263.298C1045.13 263.531 1045.86 263.431 1046.43 263.03C1046.96 262.627 1047.4 262.104 1047.7 261.502L1047.58 261.419C1047.14 261.856 1046.62 262.202 1046.05 262.437C1045.65 262.571 1045.21 262.511 1044.86 262.277C1044.05 261.665 1043.43 260.842 1043.05 259.9C1042.6 259.077 1042.43 258.125 1042.59 257.198C1042.75 256.797 1043.08 256.491 1043.5 256.37C1044.1 256.159 1044.73 256.023 1045.37 255.966L1045.36 255.78Z" fill="#E7BD84"/>
<path d="M1029.96 262.008C1030.9 258.948 1030.45 255.628 1028.73 252.926C1027.76 251.549 1026.51 250.391 1025.06 249.528C1023.62 248.704 1022.07 248.106 1020.45 247.753C1017.25 247.11 1013.96 247.193 1010.8 247.998C1007.67 248.809 1004.74 250.248 1002.18 252.227L1004.43 251.81C1003.69 251.612 1002.94 251.455 1002.18 251.337C1001.48 251.225 1000.78 251.102 1000.07 251.054C998.68 250.902 997.281 250.841 995.882 250.869C993.125 250.886 990.375 251.147 987.664 251.648C984.981 252.12 982.34 252.809 979.769 253.708C977.221 254.615 974.744 255.712 972.36 256.989L972.449 257.258C977.461 255.557 982.641 254.397 987.901 253.797C990.526 253.504 993.168 253.394 995.808 253.469C998.438 253.515 1001.06 253.853 1003.61 254.477L1003.76 254.518L1003.86 254.437C1006.15 252.684 1008.76 251.386 1011.54 250.612C1014.31 249.806 1017.22 249.598 1020.09 250.001C1022.9 250.471 1025.71 251.657 1027.52 253.878C1029.33 256.099 1029.95 259.133 1029.65 261.984L1029.96 262.008Z" fill="#E0C5AD"/>
<path d="M995.833 252.968C993.17 252.918 990.508 253.052 987.865 253.369C982.586 254.017 977.392 255.225 972.372 256.974L972.46 257.243C975.128 256.882 977.715 256.383 980.35 256.155C982.985 255.927 985.542 255.643 988.122 255.501C990.702 255.36 993.255 255.387 995.783 255.555C997.031 255.673 998.278 255.792 999.53 255.914C1000.15 255.999 1000.76 256.095 1001.35 256.207C1001.95 256.318 1002.6 256.472 1002.98 256.603L1004.19 256.974L1005.26 256.176C1007.31 254.607 1009.64 253.42 1012.12 252.671C1014.6 251.876 1017.21 251.574 1019.8 251.78C1021.07 251.877 1022.31 252.161 1023.49 252.624C1024.66 253.049 1025.74 253.719 1026.64 254.589C1027.6 255.482 1028.34 256.584 1028.8 257.808C1029.05 258.452 1029.24 259.117 1029.37 259.796C1029.53 260.503 1029.63 261.22 1029.68 261.943L1029.96 261.967C1030.31 259.068 1029.75 255.929 1027.83 253.611C1025.91 251.293 1023.05 249.996 1020.16 249.523C1017.24 249.084 1014.26 249.271 1011.41 250.071C1008.56 250.834 1005.88 252.151 1003.53 253.946" fill="#9CB9E1"/>
<path d="M978.942 250.178C978.622 249.804 978.229 249.856 977.903 249.793C977.578 249.731 977.227 249.759 976.885 249.762C976.214 249.763 975.545 249.804 974.866 249.87C973.542 249.987 972.23 250.153 970.919 250.318L966.988 250.865C965.658 251.056 964.315 251.286 963.025 251.585C957.847 252.816 952.789 254.315 947.724 255.794C945.193 256.53 942.682 257.305 940.175 258.106C937.668 258.907 935.135 259.721 932.771 260.326C931.649 260.567 930.193 260.911 928.927 261.274C927.66 261.638 926.274 262.048 924.947 262.549C923.596 263.055 922.286 263.661 921.026 264.363C919.77 265.095 918.572 265.923 917.444 266.84C916.805 267.355 916.218 267.931 915.69 268.559C914.886 269.472 914.408 270.626 914.332 271.841C914.316 272.606 914.501 273.362 914.868 274.034C915.154 274.558 915.524 275.032 915.964 275.436C916.62 276.027 917.351 276.529 918.137 276.929C919.439 277.583 920.792 278.128 922.182 278.561C923.481 278.945 924.853 279.532 926.925 279.439C927.914 279.364 928.875 279.08 929.746 278.606C930.449 278.218 931.113 277.765 931.731 277.253C932.867 276.33 933.851 275.422 934.803 274.491L937.539 271.864C937.638 271.773 937.749 271.694 937.867 271.63C937.972 271.572 938.035 271.563 938.039 271.535C938.251 271.54 938.462 271.561 938.671 271.599L939.693 271.712C945.044 272.227 950.433 272.185 955.773 271.59C958.428 271.251 961.054 270.796 963.651 270.225C966.251 269.69 968.81 268.973 971.309 268.079L971.233 267.803C966.13 269.044 960.924 269.816 955.679 270.112C950.439 270.454 945.177 270.265 939.974 269.545C939.311 269.458 938.717 269.31 937.988 269.26C937.279 269.303 936.601 269.564 936.048 270.009C935.027 270.881 934.093 271.786 933.115 272.666C932.136 273.546 931.183 274.413 930.14 275.23C929.097 276.047 928.003 276.749 926.746 276.797C925.461 276.75 924.195 276.48 923.002 275.998C921.763 275.599 920.559 275.101 919.4 274.507C918.828 274.217 918.297 273.852 917.821 273.423C917.362 273.052 917.086 272.501 917.064 271.912C917.154 270.757 918.235 269.801 919.188 268.989C923.154 265.571 928.345 264.073 933.438 262.883C938.488 261.362 943.422 259.544 948.405 257.864C953.388 256.184 958.356 254.461 963.408 253.013C965.92 252.27 968.496 251.764 971.069 251.231C972.361 250.972 973.638 250.735 974.945 250.511C975.59 250.404 976.24 250.302 976.892 250.24C977.212 250.213 977.541 250.184 977.871 250.164C978.201 250.144 978.563 250.178 978.689 250.341L978.942 250.178Z" fill="#E0C5AD"/>
<path d="M916.729 271.787C916.709 272.44 916.967 273.072 917.44 273.524C917.887 273.969 918.393 274.35 918.944 274.657C920.038 275.251 921.18 275.749 922.359 276.146C923.522 276.596 924.726 276.928 925.955 277.136C927.234 277.263 928.514 276.91 929.546 276.146C931.524 274.655 933.408 273.044 935.188 271.322C935.618 270.895 936.079 270.501 936.567 270.142C937.04 269.809 937.611 269.642 938.19 269.667C939.378 269.845 940.629 270.045 941.85 270.177C946.784 270.699 951.754 270.764 956.698 270.371C961.636 270.006 966.534 269.222 971.338 268.029L971.278 267.828C968.798 268.05 966.358 268.325 963.897 268.411C961.436 268.498 958.99 268.65 956.576 268.715C951.741 268.83 946.903 268.622 942.094 268.093L940.307 267.882L939.43 267.764L938.967 267.696C938.77 267.66 938.571 267.637 938.371 267.625C937.339 267.569 936.318 267.858 935.47 268.447C934.883 268.865 934.34 269.341 933.847 269.867C932.103 271.584 930.322 273.394 928.643 274.749C927.954 275.371 927.059 275.714 926.13 275.711C924.983 275.619 923.848 275.41 922.743 275.085C921.572 274.838 920.425 274.487 919.316 274.037C918.779 273.821 918.274 273.534 917.814 273.182C917.339 272.861 917.028 272.347 916.965 271.777L916.729 271.787Z" fill="#7FBA6D"/>
<path d="M978.913 250.196C978.581 249.86 978.188 249.945 977.845 249.917C977.492 249.921 977.139 249.943 976.788 249.983C976.091 250.052 975.4 250.156 974.705 250.265C973.329 250.487 971.976 250.764 970.588 251.023C967.837 251.553 965.109 252.138 962.413 252.959C957.054 254.516 951.765 256.312 946.478 258.094L938.566 260.82C937.249 261.265 935.923 261.711 934.6 262.12C933.277 262.529 931.916 262.817 930.56 263.186C927.834 263.861 925.196 264.852 922.702 266.14C921.476 266.819 920.311 267.605 919.222 268.486C918.667 268.918 918.148 269.395 917.673 269.913C917.164 270.431 916.826 271.093 916.705 271.809L916.919 271.83C917.116 271.196 917.506 270.64 918.035 270.239C918.539 269.799 919.077 269.4 919.644 269.045C920.78 268.307 921.976 267.666 923.22 267.131C925.701 266.06 928.297 265.277 930.958 264.798L932.984 264.42C933.701 264.302 934.447 264.089 935.122 263.909C936.5 263.533 937.842 263.129 939.185 262.726C941.859 261.889 944.5 260.981 947.142 260.112L962.89 254.518C964.19 254.053 965.498 253.61 966.794 253.228L970.809 252.121C972.146 251.714 973.479 251.312 974.814 250.951C975.489 250.772 976.161 250.607 976.832 250.464C977.167 250.384 977.502 250.313 977.837 250.265C978.172 250.217 978.551 250.162 978.741 250.323L978.913 250.196Z" fill="#7FBA6D"/>
<path d="M971.362 267.897C970.542 265.382 970.661 262.656 971.698 260.225C972.684 257.792 974.131 255.573 975.958 253.688C976.428 253.102 976.948 252.558 977.511 252.06C977.789 251.797 978.073 251.547 978.341 251.277C978.478 251.139 978.605 250.992 978.723 250.837C978.874 250.679 978.933 250.454 978.879 250.242L978.758 250.312C978.712 250.57 978.306 250.771 978.02 250.957L977.046 251.549C976.355 251.977 975.719 252.488 975.152 253.071L975.234 252.957C974.146 253.844 973.185 254.877 972.381 256.027C971.561 257.177 970.91 258.439 970.448 259.774C969.982 261.135 969.783 262.574 969.862 264.011C969.948 265.43 970.422 266.798 971.232 267.968L971.362 267.897Z" fill="#7FBA6D"/>
<g style="mix-blend-mode:multiply">
<path fill-rule="evenodd" clip-rule="evenodd" d="M1055.82 252.041C1055.83 252.124 1055.84 252.215 1055.85 252.325C1055.85 252.413 1055.69 252.512 1055.48 252.644C1055.46 252.654 1055.44 252.664 1055.43 252.674C1056.11 252.785 1056.8 252.844 1057.49 252.851C1057.79 252.84 1058.09 252.813 1058.39 252.769C1058.83 252.698 1059.27 252.595 1059.71 252.461C1060.58 252.117 1061.38 251.604 1062.06 250.954C1061.88 251.091 1061.67 251.214 1061.52 251.301C1061.52 251.306 1061.51 251.311 1061.5 251.315C1060.98 251.623 1060.41 251.86 1059.83 252.022C1058.81 252.308 1057.76 252.476 1056.7 252.523C1056.61 252.436 1056.49 252.401 1056.4 252.373C1056.31 252.346 1056.24 252.325 1056.23 252.273C1056.22 252.253 1056.2 252.239 1056.17 252.232C1056.15 252.207 1056.13 252.187 1056.1 252.176C1056.15 251.621 1056.44 251.115 1056.88 250.778C1057.54 250.369 1058.27 250.098 1059.04 249.982C1059.42 249.911 1059.8 249.881 1060.18 249.893C1060.86 249.915 1061.53 250.027 1062.17 250.228C1062.29 250.246 1062.38 250.317 1062.44 250.419C1062.45 250.477 1062.43 250.538 1062.4 250.6C1062.47 250.527 1062.53 250.452 1062.59 250.376L1062.7 250.159L1061.89 249.981L1061.07 249.795C1059.67 249.446 1058.19 249.632 1056.93 250.315C1056.5 250.492 1056.15 250.814 1055.93 251.224C1055.76 251.608 1055.79 251.782 1055.82 252.041ZM1062.06 250.954C1062.21 250.841 1062.34 250.719 1062.4 250.6C1062.29 250.722 1062.17 250.84 1062.06 250.954Z" fill="#F9CFB2"/>
</g>
<path d="M1061.39 250.086C1060.48 249.87 1059.55 249.817 1058.62 249.929C1058.41 249.967 1058.22 250.007 1057.96 250.074C1057.23 250.187 1056.58 250.608 1056.18 251.231C1056.03 251.643 1055.98 252.087 1056.03 252.524C1057.19 252.696 1058.38 252.608 1059.5 252.265C1060.51 251.964 1061.44 251.453 1062.24 250.765C1062.17 250.863 1062.4 250.549 1062.45 250.471" fill="white"/>
<path d="M1056.2 252.145C1056.19 251.306 1056.77 250.573 1057.58 250.38C1058.63 250.013 1059.74 249.899 1060.84 250.045C1061.05 250.112 1062.13 250.659 1061.96 250.863C1061.8 251.013 1061.61 251.144 1061.42 251.255C1060.88 251.523 1060.32 251.751 1059.75 251.938C1058.71 252.311 1056.95 252.735 1056.2 252.145Z" fill="white"/>
<path d="M1060.03 250.731C1060.14 251.044 1060.13 251.392 1059.99 251.696C1059.84 251.999 1059.58 252.23 1059.27 252.338C1058.95 252.458 1058.6 252.447 1058.29 252.306C1057.98 252.166 1057.74 251.907 1057.62 251.589C1057.5 251.277 1057.51 250.929 1057.65 250.626C1057.79 250.323 1058.05 250.091 1058.37 249.983C1058.69 249.86 1059.04 249.87 1059.35 250.01C1059.66 250.151 1059.91 250.41 1060.03 250.731Z" fill="#1A0909"/>
<path d="M1058.4 250.069C1058.11 250.167 1057.87 250.379 1057.74 250.656C1057.61 250.933 1057.6 251.252 1057.71 251.538C1057.94 252.138 1058.61 252.447 1059.21 252.237C1059.5 252.137 1059.74 251.924 1059.87 251.646C1060 251.369 1060.01 251.05 1059.9 250.765C1059.67 250.167 1059 249.859 1058.4 250.069Z" fill="#5C8AC7"/>
<path d="M1058.02 251.188C1058.04 251.387 1058.14 251.57 1058.3 251.695C1058.45 251.819 1058.65 251.874 1058.85 251.847C1059.27 251.801 1059.58 251.425 1059.53 251.004C1059.52 250.805 1059.42 250.622 1059.26 250.498C1059.1 250.373 1058.9 250.318 1058.7 250.346C1058.28 250.391 1057.98 250.767 1058.02 251.188Z" fill="#060508"/>
<path d="M1058.31 250.699C1058.32 250.855 1058.22 250.998 1058.07 251.034C1058 251.049 1057.93 251.033 1057.87 250.992C1057.81 250.95 1057.78 250.887 1057.77 250.816C1057.76 250.66 1057.86 250.518 1058.01 250.481C1058.08 250.467 1058.15 250.482 1058.21 250.524C1058.27 250.565 1058.3 250.629 1058.31 250.699Z" fill="#FFFAE4"/>
<path d="M1059.62 251.475C1059.48 251.805 1059.15 252.018 1058.79 252.015C1058.43 252.012 1058.1 251.795 1057.96 251.462C1057.96 251.462 1057.85 251.622 1057.84 251.627C1058.03 252.023 1058.44 252.26 1058.88 252.221C1059.28 252.201 1059.64 251.945 1059.78 251.568C1059.78 251.568 1059.63 251.454 1059.62 251.475Z" fill="#94BCE4"/>
<path d="M1059.52 250.485C1059.71 250.732 1059.77 251.048 1059.69 251.345L1059.81 251.348C1059.94 251.029 1059.82 250.663 1059.52 250.485Z" fill="#94BCE4"/>
<path d="M1024.27 285.314L1024.27 285.032L1024.21 282.941C1024.27 282.574 1024.11 282.203 1023.79 282.004C1023.48 281.805 1023.07 281.819 1022.77 282.039C1022.47 282.259 1022.33 282.641 1022.43 283.003L1022.47 285.027L1021.41 285.258C1021.09 285.322 1020.76 285.388 1020.46 285.481C1020.22 285.529 1020 285.673 1019.87 285.881C1019.73 286.088 1019.68 286.342 1019.74 286.585C1019.79 286.822 1019.94 287.027 1020.14 287.153C1020.35 287.278 1020.6 287.313 1020.83 287.248L1022.96 286.794C1023.03 286.774 1023.11 286.766 1023.22 286.744C1023.17 286.811 1023.14 286.853 1023.11 286.894C1022.89 287.203 1022.66 287.507 1022.4 287.79C1022.08 288.169 1022.13 288.738 1022.51 289.062C1022.89 289.385 1023.45 289.34 1023.78 288.962C1023.78 288.962 1023.81 288.915 1023.83 288.895C1024.73 287.753 1025.64 286.614 1026.54 285.469C1026.74 285.222 1026.8 284.884 1026.69 284.581C1026.58 284.279 1026.32 284.057 1026 284.001C1025.69 283.944 1025.36 284.061 1025.16 284.308C1024.9 284.658 1024.61 284.986 1024.36 285.305L1024.27 285.314Z" fill="white"/>
<path d="M1033.46 291.395C1033.65 291.095 1033.87 290.812 1034.11 290.548C1034.24 290.377 1034.45 290.283 1034.66 290.295C1034.87 290.307 1035.06 290.425 1035.17 290.609C1035.24 290.761 1035.24 290.933 1035.18 291.087C1034.95 291.853 1034.41 292.413 1033.77 293.326C1033.45 293.775 1033.35 293.992 1033.41 294.081C1033.48 294.171 1033.84 294.055 1034.04 293.983C1034.37 293.85 1034.68 293.663 1034.96 293.432C1035.58 292.923 1035.67 292.758 1036.18 292.34C1036.69 291.922 1037.06 291.64 1037.29 291.714C1037.69 291.958 1037.84 292.47 1037.63 292.892C1037.57 292.98 1037.51 292.976 1037.11 293.175C1037 293.229 1037.11 293.175 1036.58 293.456C1036.31 293.599 1035.85 293.835 1035.31 294.112L1034.1 294.69C1034.07 294.731 1033.87 294.799 1033.65 294.921L1033.26 295.133L1033.04 295.255C1032.7 295.402 1032.31 295.363 1032.01 295.152C1031.57 294.733 1031.52 294.05 1031.89 293.573" fill="white"/>
<path d="M1025.36 291.529C1026.09 292.107 1027.04 292.345 1027.95 292.185C1028.87 292.025 1029.68 291.481 1030.17 290.69C1030.75 289.811 1030.86 288.704 1030.48 287.724C1030.09 286.743 1029.25 286.01 1028.23 285.759C1027.87 285.676 1027.5 285.657 1027.14 285.702C1026.84 285.725 1026.58 285.903 1026.45 286.17C1026.32 286.438 1026.34 286.754 1026.5 287.003C1026.67 287.266 1026.97 287.416 1027.28 287.396L1027.38 287.385C1028.54 287.144 1029.18 288.101 1028.85 289.13C1028.66 289.793 1028.14 290.309 1027.47 290.489C1027.11 290.613 1026.72 290.557 1026.41 290.339C1026.1 290.121 1025.91 289.768 1025.91 289.389C1025.9 289.102 1025.78 288.829 1025.57 288.639C1025.35 288.446 1025.04 288.383 1024.77 288.475C1024.49 288.566 1024.29 288.798 1024.23 289.083C1024.15 289.445 1024.2 289.821 1024.34 290.16C1024.55 290.702 1024.9 291.176 1025.36 291.529Z" fill="white"/>
<path d="M1030.36 291.289C1029.93 291.882 1029.44 292.438 1028.99 293.025C1028.74 293.346 1028.73 293.8 1028.98 294.127C1029.21 294.446 1029.63 294.572 1030 294.436C1030.17 294.364 1030.32 294.253 1030.44 294.111C1031.35 292.987 1032.24 291.856 1033.13 290.725C1033.33 290.471 1033.38 290.129 1033.26 289.828C1033.14 289.528 1032.87 289.314 1032.55 289.267C1032.23 289.221 1031.91 289.349 1031.71 289.603C1031.29 290.18 1030.82 290.729 1030.37 291.293L1030.36 291.289Z" fill="white"/>
<path d="M1020.84 283.741C1021.26 283.163 1021.74 282.618 1022.18 282.051C1022.41 281.803 1022.48 281.447 1022.36 281.129C1022.25 280.811 1021.97 280.583 1021.63 280.539C1021.3 280.494 1020.96 280.64 1020.77 280.917C1019.86 282.051 1018.96 283.193 1018.06 284.339C1017.76 284.69 1017.77 285.207 1018.09 285.541C1018.4 285.876 1018.92 285.924 1019.29 285.652C1019.37 285.58 1019.45 285.499 1019.52 285.41C1019.96 284.856 1020.4 284.299 1020.84 283.741Z" fill="white"/>
<path fill-rule="evenodd" clip-rule="evenodd" d="M1149.09 248.621C1149.09 250.83 1147.3 252.621 1145.09 252.621H1122.6C1120.4 252.621 1118.6 250.83 1118.6 248.621V233.058H1149.09V248.621Z" fill="#2149FE"/>
<path fill-rule="evenodd" clip-rule="evenodd" d="M1149.09 234.951H1118.6V233.058H1149.09V234.951Z" fill="#1632B2"/>
<path fill-rule="evenodd" clip-rule="evenodd" d="M1151 232.058C1151 232.61 1150.55 233.058 1150 233.058H1117.06C1116.51 233.058 1116.06 232.61 1116.06 232.058V227.116C1116.06 226.563 1116.51 226.116 1117.06 226.116H1150C1150.55 226.116 1151 226.563 1151 227.116V232.058Z" fill="#2149FE"/>
<path fill-rule="evenodd" clip-rule="evenodd" d="M1142.11 230.533H1124.96V228.64H1142.11V230.533Z" fill="#8CC27B"/>
</g>
<defs>
<linearGradient id="paint0_linear_0_6410" x1="1804.29" y1="267.765" x2="1817.75" y2="71.2707" gradientUnits="userSpaceOnUse">
<stop stop-color="#DFF0FF"/>
<stop offset="1" stop-color="#D6E4FF"/>
</linearGradient>
<linearGradient id="paint1_linear_0_6410" x1="1568.24" y1="225.219" x2="1568.31" y2="204.106" gradientUnits="userSpaceOnUse">
<stop stop-color="#DFF0FF"/>
<stop offset="1" stop-color="#D6E4FF"/>
</linearGradient>
<linearGradient id="paint2_linear_0_6410" x1="1608.3" y1="203.121" x2="1611.92" y2="127.561" gradientUnits="userSpaceOnUse">
<stop stop-color="#DFF0FF"/>
<stop offset="1" stop-color="#D6E4FF"/>
</linearGradient>
<linearGradient id="paint3_linear_0_6410" x1="1158.94" y1="402.519" x2="1158.94" y2="351.62" gradientUnits="userSpaceOnUse">
<stop stop-color="#DFF0FF"/>
<stop offset="1" stop-color="#D6E4FF"/>
</linearGradient>
<linearGradient id="paint4_linear_0_6410" x1="1054.22" y1="405.733" x2="1054.22" y2="392.539" gradientUnits="userSpaceOnUse">
<stop stop-color="#DFF0FF"/>
<stop offset="1" stop-color="#D6E4FF"/>
</linearGradient>
<linearGradient id="paint5_linear_0_6410" x1="1270.72" y1="402.519" x2="1270.72" y2="376.385" gradientUnits="userSpaceOnUse">
<stop stop-color="#DFF0FF"/>
<stop offset="1" stop-color="#D6E4FF"/>
</linearGradient>
<linearGradient id="paint6_linear_0_6410" x1="1220.04" y1="61.7227" x2="1220.04" y2="32.3577" gradientUnits="userSpaceOnUse">
<stop stop-color="#DFF0FF"/>
<stop offset="1" stop-color="#D6E4FF"/>
</linearGradient>
<linearGradient id="paint7_linear_0_6410" x1="1279.44" y1="63.8474" x2="1279.44" y2="56.3079" gradientUnits="userSpaceOnUse">
<stop stop-color="#DFF0FF"/>
<stop offset="1" stop-color="#D6E4FF"/>
</linearGradient>
<linearGradient id="paint8_linear_0_6410" x1="1156.16" y1="61.7325" x2="1156.16" y2="47.214" gradientUnits="userSpaceOnUse">
<stop stop-color="#DFF0FF"/>
<stop offset="1" stop-color="#D6E4FF"/>
</linearGradient>
<linearGradient id="paint9_linear_0_6410" x1="1906.3" y1="850.872" x2="1906.3" y2="418.031" gradientUnits="userSpaceOnUse">
<stop stop-color="#C0FFAD"/>
<stop offset="1" stop-color="#8CC27B"/>
</linearGradient>
</defs>
</svg>
