<svg width="112" height="99" viewBox="0 0 112 99" fill="none" xmlns="http://www.w3.org/2000/svg">
<path d="M33.1918 35.4245H2.74192C2.03268 35.4245 1.45752 34.8444 1.45752 34.1291V3.42034C1.45752 2.70505 2.03268 2.125 2.74192 2.125H33.1918C33.901 2.125 34.4762 2.70505 34.4762 3.42034V34.1294C34.4762 34.8447 33.901 35.4245 33.1918 35.4245Z" fill="#80BA6E"/>
<path d="M19.2829 63.0294H17.9669C15.6902 63.0294 13.8447 61.168 13.8447 58.8721C13.8447 56.576 15.6904 54.7148 17.9669 54.7148H19.2829V63.0294Z" fill="black"/>
<path d="M57.9931 84.017C57.9931 84.017 71.4963 69.967 68.5044 51.353C68.2537 49.7927 66.9092 48.6494 65.3417 48.6494H25.4034C22.0231 48.6494 19.2827 51.4131 19.2827 54.8222V84.0173H57.9931V84.017Z" fill="#8CC27B"/>
<ellipse cx="95.3451" cy="84.7579" rx="11.5062" ry="11.6041" fill="black"/>
<ellipse cx="95.3447" cy="84.7581" rx="6.63086" ry="6.68731" fill="white"/>
<ellipse cx="33.7137" cy="84.7579" rx="11.5062" ry="11.6041" fill="black"/>
<ellipse cx="33.7139" cy="84.7581" rx="6.63086" ry="6.68731" fill="white"/>
<path d="M67.8721 84.0171C66.1739 69.1582 54.9356 57.6787 41.324 57.6787C27.7124 57.6787 16.4741 69.1582 14.7759 84.0171H67.8721Z" fill="#80BA6E"/>
<path d="M87.0763 50.4575L83.8389 74.1909H97.3457C97.3457 69.7842 97.0055 65.2485 96.491 60.9073C96.2888 59.201 95.4558 57.6355 94.1573 56.5231L87.0763 50.4575Z" fill="white"/>
<path d="M109.254 81.5142C110.174 81.5142 110.8 80.566 110.438 79.7129C107.944 73.8191 102.622 69.7466 96.4545 69.7466C89.677 69.7466 83.9195 74.6652 81.8154 81.5142H109.254Z" fill="#8CC27B"/>
<path d="M92.8284 36.7393C86.6037 36.7393 81.3741 41.4582 80.6872 47.6978C79.7827 55.911 78.8667 65.7235 78.8667 65.7235C77.9304 74.6758 70.4932 81.4266 61.5673 81.4266H15.0416C13.6735 81.4266 12.4787 82.4678 12.3903 83.8447C12.2932 85.3535 13.4782 86.6079 14.9535 86.6079H67.9893C79.5515 86.6079 89.1851 77.8631 90.3978 66.2667L92.8284 36.7393Z" fill="#8CC27B"/>
<path d="M60.9413 48.6494H23.8652C22.4464 48.6494 21.2964 47.4895 21.2964 46.0587C21.2964 43.6077 23.2667 41.6206 25.697 41.6206H62.7731C64.1919 41.6206 65.3419 42.7805 65.3419 44.2113C65.3419 46.6623 63.3717 48.6494 60.9413 48.6494Z" fill="#8CC27B"/>
<path d="M92.5435 41.1554H84.2241C80.6568 41.1554 77.7651 38.2388 77.7651 34.6414C77.7651 31.0438 80.6571 28.1274 84.2241 28.1274H92.5435C93.9622 28.1274 95.1123 29.2873 95.1123 30.7181V38.565C95.1123 39.9956 93.9622 41.1554 92.5435 41.1554Z" fill="#8CC27B"/>
<path d="M92.5436 28.127H90.8926V41.1552H92.5436C93.9623 41.1552 95.1124 39.9953 95.1124 38.5645V30.7176C95.1124 29.2868 93.9623 28.127 92.5436 28.127Z" fill="white"/>
<ellipse cx="82.3165" cy="39.1605" rx="3.18609" ry="3.21321" fill="black"/>
<path fill-rule="evenodd" clip-rule="evenodd" d="M111.62 79.2047C109.146 73.3573 104.116 69.3648 98.4636 68.591C98.3218 66.1013 98.0883 63.47 97.7664 60.7534C97.5252 58.7166 96.5386 56.8635 94.9888 55.5358L92.7293 53.6003L93.6607 42.283C95.2423 41.799 96.3973 40.3159 96.3973 38.5646V30.7179C96.3973 28.5752 94.6687 26.8319 92.5441 26.8319H87.6921L88.0186 19.9949C88.0453 19.4397 87.7175 18.9298 87.2048 18.7267L79.7105 15.7622L80.4162 13.5016C80.6292 12.8192 80.2533 12.092 79.5765 11.877C78.9006 11.6625 78.1788 12.0415 77.9656 12.7239L75.8553 19.484C75.6423 20.1664 76.0182 20.8936 76.695 21.1086C76.8232 21.1493 76.9532 21.1684 77.0809 21.1684C77.6267 21.1684 78.1333 20.8148 78.3059 20.2617L78.9373 18.2389L85.4082 20.7988L85.1202 26.8317H84.2245C79.9546 26.8317 76.4808 30.3348 76.4808 34.6412C76.4808 36.2366 76.9563 37.7635 77.8507 39.07C77.8505 39.0842 77.8495 39.0981 77.8484 39.112C77.8473 39.1279 77.8461 39.1438 77.8461 39.1599C77.8461 41.0273 78.9779 42.633 80.5863 43.3164C79.9687 44.6503 79.5736 46.0703 79.4103 47.5545C78.5153 55.6842 77.5967 65.5032 77.589 65.5868C76.9678 71.5278 73.2546 76.421 68.1584 78.7185C64.5831 65.5133 53.6896 56.383 41.3238 56.383C34.9506 56.383 28.7123 58.8498 23.7576 63.3296C22.6126 64.3646 21.5486 65.5008 20.5674 66.7172V54.8216C20.5674 52.1322 22.737 49.9441 25.4037 49.9441H60.9413H65.3419C66.2893 49.9441 67.0864 50.6236 67.2367 51.5596C68.0197 56.4293 67.6929 61.4356 66.2664 66.4394C66.0704 67.127 66.4645 67.8446 67.146 68.0425C67.8285 68.2402 68.5393 67.8428 68.7356 67.1555C70.2676 61.7817 70.6165 56.3951 69.7726 51.1454C69.4379 49.0622 67.745 47.5231 65.6831 47.3687C66.2785 46.4622 66.6266 45.3767 66.6266 44.2104C66.6266 42.0677 64.898 40.3244 62.7734 40.3244H34.5979C33.8887 40.3244 33.3135 40.9042 33.3135 41.6197C33.3135 42.3353 33.8887 42.9151 34.5979 42.9151H62.7734C63.4816 42.9151 64.0578 43.4962 64.0578 44.2104C64.0578 45.9433 62.6601 47.3534 60.9416 47.3534H28.3681V36.7195H33.192C34.6085 36.7195 35.7608 35.5573 35.7608 34.1288V3.42026C35.7608 1.99177 34.6085 0.82959 33.192 0.82959H2.74215C1.32571 0.82959 0.17334 1.99177 0.17334 3.42026V34.1293C0.17334 35.5578 1.32571 36.72 2.74215 36.72H9.2456V46.0586C9.2456 48.2014 10.9741 49.9446 13.0988 49.9446H19.8034C18.9693 50.9172 18.3798 52.1078 18.1316 53.4197H17.9672C14.9861 53.4197 12.5606 55.8656 12.5606 58.8723C12.5606 61.8791 14.9861 64.3249 17.9672 64.3249H17.9988V70.3809C17.9988 70.3848 17.9991 70.3886 17.9996 70.3923C18.0005 70.4 18.002 70.4075 18.0021 70.4153C16.2217 73.4109 14.8965 76.7389 14.1153 80.2441C12.4751 80.6358 11.2192 82.0381 11.1085 83.7604C11.0397 84.8314 11.4165 85.8933 12.1419 86.6741C12.8679 87.4552 13.8926 87.9029 14.9535 87.9029H21.3133C22.7236 93.6091 27.7932 97.6573 33.7145 97.6573C39.6361 97.6573 44.7057 93.6091 46.1157 87.9029H67.9893C73.5125 87.9029 78.6157 86.0102 82.6729 82.8094H82.7073C82.6092 83.4563 82.5545 84.1078 82.5545 84.7578C82.5545 91.8705 88.2922 97.6573 95.3448 97.6573C102.397 97.6573 108.135 91.8705 108.135 84.7578C108.135 84.1078 108.081 83.4563 107.982 82.8094H109.254C110.12 82.8094 110.922 82.3739 111.4 81.6446C111.877 80.9172 111.959 80.0052 111.62 79.2047ZM25.4042 47.3539H23.8654C23.1572 47.3539 22.581 46.7729 22.581 46.0586C22.581 44.3257 23.979 42.9156 25.6973 42.9156H25.799V47.3539H25.4042ZM33.1918 3.42026H2.74215V34.1293H33.1933L33.1918 3.42026ZM11.8144 46.0586V36.72H25.799V40.3249H25.6973C22.5626 40.3249 20.0122 42.8972 20.0122 46.0586C20.0122 46.5133 20.0942 46.948 20.237 47.3539H13.0988C12.3906 47.3539 11.8144 46.7729 11.8144 46.0586ZM15.1297 58.8723C15.1297 60.4503 16.4028 61.7343 17.9675 61.7343H17.9991V56.0104H17.9675C16.4028 56.0104 15.1297 57.2944 15.1297 58.8723ZM93.3257 57.5104C94.3802 58.4138 95.0515 59.6747 95.2156 61.0609C95.5192 63.6244 95.743 66.1086 95.883 68.4633C94.2757 68.5249 92.6838 68.8467 91.1654 69.4102C91.3932 68.4304 91.5682 67.4283 91.6755 66.4026C91.6765 66.3938 91.6772 66.3849 91.6779 66.3762L91.6781 66.3741L92.468 56.7757L93.3257 57.5104ZM84.9966 29.4229H84.2247C81.3715 29.4229 79.0499 31.764 79.0496 34.6413C79.0496 35.0798 79.1051 35.5099 79.2094 35.9257C80.0147 35.1389 81.1095 34.6519 82.3166 34.6519C84.7816 34.6519 86.7871 36.6742 86.7871 39.1602C86.7871 39.3988 86.7632 39.6311 86.7278 39.8599H92.5441C93.2523 39.8599 93.8285 39.2788 93.8285 38.5646V30.7179C93.8285 30.0037 93.2523 29.4226 92.5441 29.4226H87.5683L87.473 31.42C87.4398 32.1135 86.8721 32.6532 86.1911 32.6532C86.1703 32.6532 86.1495 32.6526 86.1285 32.6516C85.4197 32.6174 84.8731 32.0102 84.9072 31.2957L84.9966 29.4229ZM82.3169 37.2425C83.3654 37.2425 84.2185 38.1026 84.2185 39.1602C84.2185 40.2177 83.3654 41.0778 82.3169 41.0778C81.2683 41.0778 80.4154 40.2177 80.4154 39.1602C80.4154 38.1026 81.2683 37.2425 82.3169 37.2425ZM41.3243 58.9741C35.5019 58.9741 30.0206 61.1475 25.4728 65.2591C21.274 69.055 18.2133 74.305 16.7784 80.1311H61.5676C63.0046 80.1311 64.3984 79.9381 65.7278 79.5824C62.5078 67.4078 52.5798 58.9741 41.3243 58.9741ZM33.7145 95.0669C29.2029 95.0669 25.3091 92.1275 23.9795 87.9032H43.4495C42.1199 92.1278 38.2261 95.0669 33.7145 95.0669ZM14.0164 84.9026C14.262 85.1669 14.5949 85.3125 14.9535 85.3125H67.9893C78.8878 85.3125 87.969 77.0734 89.1191 66.1451L91.0696 42.4508H85.3632C84.8107 42.9713 84.1289 43.3511 83.3708 43.5368C82.6077 44.8622 82.1324 46.3083 81.9639 47.8407C81.0897 55.7815 80.1926 65.342 80.1472 65.8262L80.1472 65.8263L80.1454 65.8446C79.1387 75.4726 71.1526 82.7218 61.5676 82.7218H15.0419C14.3293 82.7218 13.7151 83.263 13.6722 83.928C13.6488 84.2925 13.7708 84.6384 14.0164 84.9026ZM105.567 84.7581C105.567 90.4423 100.981 95.0669 95.3451 95.0669C89.7091 95.0669 85.1235 90.4423 85.1235 84.7581C85.1235 84.1078 85.189 83.4545 85.3118 82.8096H105.378C105.501 83.455 105.567 84.1083 105.567 84.7581ZM90.135 72.74C89.0407 75.5371 87.4509 78.0656 85.4732 80.219H109.254C106.898 74.6451 101.872 71.042 96.4551 71.042C94.2292 71.042 92.1061 71.6174 90.135 72.74Z" fill="#2149FE"/>
</svg>
