<svg width="221" height="91" viewBox="0 0 221 91" fill="none" xmlns="http://www.w3.org/2000/svg">
<path fill-rule="evenodd" clip-rule="evenodd" d="M102.702 60.4216C104.307 57.7541 105.05 54.834 105.064 51.2537C105.049 51.1034 105.035 50.9172 105.019 50.7054C104.976 50.1476 104.921 49.4116 104.801 48.6813C103.53 41.3761 97.7378 35.704 90.4184 34.5983C83.099 33.4925 75.8942 37.2011 72.5298 43.8061C69.1655 50.411 70.3961 58.4314 75.5853 63.7194C80.6615 69.0749 88.6106 70.5309 95.2502 67.3213C96.0745 66.9247 96.5437 66.9872 97.1836 67.6256C98.9489 69.4075 101.216 69.4972 102.878 67.8972C104.54 66.2972 104.567 63.8688 102.829 62.0814C102.233 61.4647 102.317 61.06 102.702 60.4216ZM92.2618 44.4708C94.8541 47.0324 95.5212 50.1998 94.9463 54.0299L94.6861 53.7705C94.3154 53.4009 94.0565 53.1427 93.7939 52.8863C92.1099 51.251 89.6559 51.1994 88.0424 52.794C86.429 54.3885 86.4344 56.8251 88.0858 58.5256C88.7061 59.0982 89.2886 59.7107 89.8294 60.3592C88.5483 60.8967 87.1105 60.9229 85.8107 60.4325C83.9261 59.7045 82.6544 58.3083 81.7731 56.5263C79.818 52.5658 80.5745 47.3448 83.514 44.5034C86.0982 42.0043 89.6694 41.9093 92.2618 44.4708ZM88.7695 35.6207C76.8762 35.6207 69.0883 46.6765 72.7843 57.0587C73.5841 59.3649 74.9197 61.4477 76.6809 63.1353C76.8033 63.2524 77.012 63.2805 77.2184 63.3083C77.3138 63.3211 77.4087 63.3339 77.4944 63.3554C77.4731 63.0682 77.4176 62.7845 77.329 62.5105C77.1938 62.2992 77.0326 62.1057 76.8491 61.9347C74.0425 58.4033 72.9443 54.3885 73.7008 49.9824C75.7454 38.109 89.0651 33.2411 98.3443 40.8987C98.5285 41.0519 98.7978 41.1022 99.0637 41.152C99.1893 41.1755 99.3142 41.1989 99.429 41.2328C99.3744 41.12 99.3284 40.9985 99.2824 40.8771C99.1844 40.6185 99.0865 40.3599 98.9057 40.1843C95.855 37.1854 92.1618 35.6696 88.7695 35.6207ZM94.8812 44.1856C96.9773 46.5516 97.818 49.3767 98.0051 52.5087C97.9538 52.7843 97.9071 53.059 97.8608 53.3325L97.8607 53.3327L97.8607 53.333L97.8607 53.333C97.7379 54.0568 97.6166 54.7718 97.4139 55.4696C97.1807 56.2981 96.5381 56.9636 95.6622 56.7789C95.1038 56.6625 94.5852 56.3145 94.0719 55.97L94.0719 55.97L94.0719 55.97C93.9022 55.8561 93.7331 55.7426 93.5634 55.638C93.469 55.4968 93.4557 55.3163 93.5281 55.1626C93.6752 55.0283 93.8724 54.9631 94.0704 54.9833C95.5673 55.2278 95.9957 54.9426 96.1801 53.435C96.5869 50.1617 95.89 47.1655 93.8752 44.517C93.7461 44.3907 93.6389 44.2439 93.5579 44.0824C93.5091 43.9004 93.4956 43.607 93.5986 43.5201C93.7775 43.4249 93.9919 43.4249 94.1708 43.5201C94.4368 43.7084 94.6758 43.9323 94.8812 44.1856ZM88.6119 63.7194C89.5266 63.5409 90.4316 63.316 91.3236 63.0457C92.1127 62.7741 92.7933 62.1167 92.6224 61.2583C92.5036 60.6567 92.1442 60.0985 91.7897 59.5478L91.7896 59.5477C91.6831 59.3823 91.5771 59.2176 91.4781 59.0526C91.3102 58.934 91.0934 58.9094 90.9033 58.9874C90.7867 59.0553 90.7351 59.365 90.7731 59.5307C91.1419 61.1877 90.8789 61.5951 89.1895 61.8776C86.9551 62.2525 84.9783 61.6821 83.2239 60.2695C83.0649 60.1418 82.8393 60.0973 82.6129 60.0527C82.5071 60.0319 82.4012 60.011 82.3019 59.9816C82.3338 60.088 82.3556 60.204 82.3774 60.3199L82.3774 60.3199C82.4239 60.5681 82.4704 60.8158 82.6164 60.9676C84.1868 62.6239 86.3343 63.6095 88.6119 63.7194ZM92.4355 54.6574C90.86 54.0815 89.5692 54.8122 89.5692 56.5589C89.7125 56.868 89.8392 57.1844 89.9489 57.5069C89.9871 57.7358 89.9953 57.9686 89.9733 58.1996C89.9041 58.1912 89.8289 58.1901 89.7536 58.189C89.5869 58.1866 89.4198 58.1842 89.3171 58.1018C88.4439 57.3928 87.8148 56.5317 87.9884 55.3175C88.1292 54.1971 88.9166 53.2654 89.9965 52.9414C91.0764 52.6175 92.2454 52.9623 92.9778 53.8208C93.1018 53.9615 93.1547 54.1686 93.2066 54.3718C93.2318 54.4706 93.2568 54.5685 93.2896 54.6574C93.0068 54.7037 92.7183 54.7037 92.4355 54.6574Z" fill="#2149FE"/>
<path fill-rule="evenodd" clip-rule="evenodd" d="M192.289 46.6885C192.212 46.7785 192.135 46.8687 192.059 46.9591L191.79 46.8151C191.79 46.0564 191.796 45.2975 191.801 44.5384C191.812 43.0199 191.823 41.501 191.79 39.9833C191.772 38.7144 191.239 37.5075 190.315 36.6401C189.39 35.7727 188.153 35.3194 186.888 35.3844C184.311 35.4686 182.364 37.4788 182.351 40.255C182.333 45.3564 182.339 50.4578 182.345 55.5593C182.348 58.11 182.351 60.6607 182.351 63.2114C182.351 63.3554 182.362 63.5021 182.375 63.6461C182.619 66.2511 184.737 68.1689 187.256 68.0711C189.805 67.9588 191.81 65.8508 191.798 63.2956C191.809 61.9702 191.806 60.6424 191.802 59.3138V59.3133V59.3129C191.8 58.6486 191.798 57.984 191.798 57.3195C191.798 57.1506 191.823 56.9817 191.855 56.7621L191.855 56.762L191.855 56.762L191.855 56.7619C191.873 56.6389 191.893 56.5 191.912 56.3362C192.037 56.4804 192.149 56.6081 192.251 56.7249L192.251 56.725C192.47 56.9757 192.645 57.1763 192.815 57.382C193.582 58.3143 194.346 59.248 195.11 60.1817L195.11 60.1823L195.112 60.1836C196.756 62.1927 198.4 64.2017 200.066 66.1968C201.916 68.4297 204.698 68.7828 206.796 67.0389C208.895 65.2949 209.161 62.3666 207.39 60.1337C206.763 59.3444 206.12 58.5714 205.475 57.7964L205.475 57.7963C205.008 57.2352 204.54 56.6729 204.077 56.1026C202.986 54.7766 201.896 53.446 200.785 52.0901L200.478 51.7155C202.775 48.9367 205.018 46.2202 207.236 43.5038C209.169 41.1297 208.966 38.2475 206.796 36.4411C204.703 34.7081 201.793 35.1046 199.895 37.4055C198.494 39.1096 197.101 40.8177 195.709 42.525L195.709 42.5251L195.708 42.5252C194.81 43.6264 193.913 44.7272 193.013 45.8264C192.774 46.1176 192.532 46.4026 192.289 46.6885ZM185.127 41.1134V52.4272C185.127 53.2867 185.125 54.1464 185.123 55.0065L185.123 55.0067C185.117 57.697 185.111 60.3907 185.144 63.0892C185.151 63.5869 185.261 64.0835 185.371 64.5805C185.432 64.8565 185.493 65.1326 185.537 65.409C185.552 65.6401 185.544 65.8722 185.513 66.1017C185.428 66.0859 185.337 66.0795 185.246 66.073H185.246C185.055 66.0596 184.864 66.0462 184.745 65.9469C183.78 65.1374 183.528 64.0345 183.528 62.823V40.6325C183.519 40.3424 183.53 40.052 183.56 39.7633C183.883 37.3565 186.093 35.9712 188.343 36.8133C188.834 36.9967 189.259 37.3895 189.664 37.7634C189.708 37.8047 189.753 37.8457 189.797 37.8862C189.883 37.9649 189.877 38.1468 189.872 38.3287C189.869 38.4108 189.867 38.4928 189.873 38.5654C189.647 38.583 189.421 38.583 189.195 38.5654C188.96 38.5324 188.722 38.4754 188.485 38.4185C188.018 38.3067 187.554 38.1954 187.121 38.2693C185.838 38.4839 185.127 39.5922 185.127 41.1134ZM191.76 48.4993L191.543 48.1326L190.678 48.4993C190.73 48.5951 190.776 48.6986 190.822 48.8021L190.822 48.8021C190.921 49.0243 191.021 49.2466 191.174 49.393C192.11 50.2378 193.471 50.0341 194.398 48.9095C195.801 47.2048 197.197 45.4946 198.594 43.7844L198.594 43.7844C199.805 42.3007 201.017 40.817 202.232 39.3368C203.255 38.0927 204.323 37.851 205.679 38.454C205.993 38.5406 206.318 38.5827 206.644 38.579C206.603 38.473 206.569 38.3587 206.536 38.2443L206.536 38.2443C206.462 37.995 206.389 37.745 206.229 37.5793C204.7 36.0174 202.354 36.2483 200.836 38.1036C199.843 39.3145 198.856 40.5312 197.868 41.7478L197.868 41.7478C196.324 43.6505 194.781 45.5528 193.216 47.4318C192.96 47.7389 192.601 47.9608 192.24 48.1838L192.24 48.1838C192.077 48.2843 191.914 48.385 191.76 48.4939V48.4993ZM193.366 55.1846C193.425 55.1569 193.49 55.1268 193.55 55.092V55.0866C193.814 55.2799 194.062 55.4943 194.291 55.7277C196.903 58.886 199.497 62.0551 202.073 65.2351C202.198 65.3828 202.212 65.6145 202.226 65.8468C202.233 65.9563 202.239 66.0659 202.258 66.1669C202.151 66.1225 202.032 66.0879 201.914 66.0533C201.664 65.9799 201.413 65.9066 201.273 65.7404C199.468 63.5949 197.689 61.4287 195.909 59.2622C195.55 58.8256 195.192 58.3889 194.833 57.9524C194.728 57.8255 194.623 57.6987 194.518 57.5719C194.091 57.0583 193.664 56.5434 193.266 56.0075C193.158 55.7985 193.12 55.5605 193.157 55.3284C193.159 55.2804 193.252 55.237 193.366 55.1846Z" fill="#2149FE"/>
<path fill-rule="evenodd" clip-rule="evenodd" d="M116.78 48.2058C116.78 49.0529 116.779 49.9 116.777 50.7466V50.7469C116.774 52.4385 116.771 54.1282 116.78 55.8117C116.796 58.4059 118.619 60.3047 121.078 60.3264C123.538 60.3482 125.417 58.4765 125.433 55.8742C125.449 53.4825 125.445 51.0914 125.442 48.7005C125.438 45.8316 125.433 42.963 125.463 40.0945C125.45 38.4415 126.304 36.9031 127.713 36.0427C129.122 35.1823 130.879 35.1262 132.34 35.895C133.986 36.7506 134.913 38.1659 134.921 40.013C134.927 41.252 134.939 42.4924 134.952 43.7335L134.952 43.734C134.995 47.9348 135.037 52.1432 134.807 56.3306C134.417 63.4639 128.318 68.9646 121.222 69.0081C114.125 69.0516 107.897 63.6323 107.463 56.5126C107.144 51.3117 107.238 46.082 107.331 40.8642L107.349 39.8718C107.395 37.1418 109.605 35.2865 112.23 35.368C114.809 35.4495 116.745 37.5031 116.769 40.2358C116.788 42.0612 116.785 43.8653 116.782 45.666C116.781 46.5127 116.779 47.3587 116.78 48.2058ZM126.602 48.1623V52.3999C126.602 52.7865 126.609 53.1795 126.617 53.576L126.617 53.5763V53.5763C126.637 54.6285 126.657 55.7045 126.539 56.7462C126.067 60.848 121.482 62.8391 117.957 60.522C117.773 60.3985 117.523 60.37 117.272 60.3416C117.154 60.3281 117.035 60.3147 116.924 60.2911C116.968 60.3957 117.004 60.5086 117.04 60.6215C117.119 60.8664 117.197 61.111 117.36 61.269C118.917 62.7712 120.788 63.4014 122.927 63.0048C126.073 62.4208 128.123 59.9298 128.15 56.5968C128.172 53.7003 128.168 50.8047 128.165 47.9095V47.909V47.9088C128.162 45.8409 128.159 43.7731 128.166 41.7054C128.152 41.2714 128.175 40.837 128.234 40.4069C128.559 38.5625 130.298 37.6742 132.03 38.4104C132.237 38.499 132.481 38.4998 132.725 38.5005C132.84 38.5009 132.955 38.5013 133.066 38.5109C133.018 38.4048 132.979 38.2898 132.939 38.1749C132.854 37.925 132.768 37.6757 132.597 37.5194C131.512 36.5306 130.233 36.2535 128.877 36.8212C127.501 37.3256 126.598 38.6516 126.631 40.119C126.588 42.144 126.593 44.1722 126.598 46.1999V46.2003V46.2004C126.6 46.8545 126.602 47.5085 126.602 48.1623ZM110.087 46.1518C110.09 47.0213 110.093 47.8908 110.093 48.7599V55.5021C110.05 58.3593 111.011 61.1408 112.807 63.3607C112.948 63.539 113.009 63.7822 113.07 64.025C113.098 64.1372 113.127 64.2493 113.162 64.3549C113.041 64.3087 112.909 64.2755 112.777 64.2425C112.514 64.1765 112.253 64.1113 112.094 63.9447C109.865 61.5841 108.604 58.7645 108.553 55.5238C108.482 51.1017 108.503 46.6776 108.524 42.2549C108.528 41.5674 108.531 40.8798 108.534 40.1923C108.534 38.6386 109.277 37.4623 110.703 36.8403C112.053 36.2535 113.333 36.5035 114.418 37.514C114.586 37.6709 114.672 37.9156 114.759 38.1612C114.799 38.277 114.84 38.393 114.89 38.5C114.781 38.4924 114.668 38.4935 114.555 38.4946C114.305 38.4969 114.055 38.4993 113.846 38.4077C112.01 37.6063 110.123 38.8341 110.093 40.9339C110.075 42.6725 110.081 44.4124 110.087 46.1518Z" fill="#2149FE"/>
<path fill-rule="evenodd" clip-rule="evenodd" d="M167.415 69.0191C157.228 69.0871 149.429 60.3266 150.411 49.8983C151.495 38.2992 163.671 31.1007 174.214 35.9169C175.948 36.7301 177.522 37.851 178.859 39.2255C181.299 41.7354 180.364 45.6987 177.261 46.6712C175.618 47.1873 174.116 46.8206 172.782 45.7449C172.64 45.6321 172.511 45.5047 172.397 45.3646C168.438 40.5918 162.673 42.4308 160.701 47.7387C159.37 51.3244 159.649 54.8204 161.935 57.9769C164.525 61.549 168.939 61.7962 171.93 58.5609C172.988 57.4173 174.143 56.6133 175.754 56.5861C179.095 56.5318 181.177 59.6801 179.8 62.7768C178.986 64.6213 177.462 65.7975 175.819 66.8216C173.471 68.283 170.626 68.9974 167.415 69.0191ZM151.514 52.8456C151.514 56.0157 153.033 59.7915 156.015 62.967C156.185 63.1513 156.444 63.2469 156.704 63.3427L156.704 63.3427C156.827 63.3881 156.951 63.4335 157.065 63.4885C156.975 63.1209 156.865 62.7582 156.737 62.402C156.623 62.2176 156.488 62.0472 156.335 61.894C152.639 56.8279 151.918 51.357 154.652 45.7123C157.347 40.1436 161.954 37.2479 168.21 37.218C171.429 37.1678 174.56 38.2664 177.044 40.3175C177.231 40.4614 177.481 40.514 177.729 40.5665C177.842 40.5902 177.955 40.614 178.061 40.6462C178.021 40.5336 177.991 40.409 177.961 40.2845L177.961 40.2845C177.897 40.0155 177.833 39.747 177.663 39.6003C176.868 38.861 176 38.2064 175.07 37.6472C164.435 31.7445 151.647 39.2771 151.514 52.8456ZM167.791 63.5971C167.789 63.5971 167.787 63.5971 167.785 63.5972H167.795C167.794 63.5971 167.792 63.5971 167.791 63.5971ZM174.374 60.4027C172.667 62.3841 170.54 63.5546 167.791 63.5971C165.504 63.5471 163.513 62.61 161.884 60.9459C161.747 60.8074 161.703 60.5772 161.658 60.347C161.637 60.2432 161.617 60.1395 161.588 60.0441C161.685 60.0646 161.788 60.0765 161.891 60.0884C162.116 60.1144 162.342 60.1405 162.502 60.256C166.109 62.9099 169.894 62.5568 172.958 59.1939C174.086 57.9416 175.399 57.4445 177.026 57.9416C177.465 58.0998 177.862 58.3573 178.186 58.694C178.315 58.8233 178.356 59.0429 178.396 59.262C178.414 59.3608 178.432 59.4594 178.458 59.5497C178.17 59.5903 177.878 59.5857 177.593 59.5361C176.313 59.0934 175.258 59.3813 174.374 60.4027Z" fill="#2149FE"/>
<path fill-rule="evenodd" clip-rule="evenodd" d="M147.659 55.5946C147.656 54.3016 147.653 53.0086 147.653 51.7155H147.656C147.656 50.4587 147.658 49.202 147.66 47.9452C147.665 45.4316 147.67 42.918 147.656 40.4044C147.637 37.4761 145.673 35.3953 142.929 35.3926C140.185 35.3899 138.165 37.4299 138.165 40.3718C138.135 47.9479 138.127 55.5267 138.189 63.1028C138.214 64.075 138.478 65.0259 138.959 65.8708C140.02 67.6474 142.141 68.4869 144.128 67.9163C146.208 67.3836 147.66 65.5032 147.653 63.3527C147.673 60.7666 147.666 58.1806 147.659 55.5946ZM139.38 63.0919V51.5688C139.38 47.7278 139.38 43.8895 139.39 40.0512C139.396 38.4947 140.234 37.4435 141.59 36.8486C142.842 36.2516 144.335 36.5155 145.307 37.5059C145.48 37.6657 145.57 37.9132 145.66 38.1605C145.701 38.2748 145.743 38.3891 145.793 38.4947C145.682 38.4878 145.568 38.4905 145.453 38.4932C145.208 38.499 144.962 38.5048 144.757 38.4159C142.905 37.601 140.996 38.7908 140.941 40.8607C140.909 42.1153 140.916 43.3713 140.922 44.6276C140.925 45.1476 140.928 45.6676 140.928 46.1876C140.928 47.5336 140.927 48.88 140.926 50.2267C140.923 54.4926 140.92 58.7618 140.947 63.0294C140.95 63.5142 141.06 63.9979 141.169 64.4832C141.234 64.7702 141.299 65.0578 141.343 65.3465C141.357 65.6061 141.344 65.8665 141.305 66.1234C141.224 66.1009 141.136 66.0859 141.048 66.0709C140.859 66.0386 140.67 66.0063 140.548 65.9007C139.71 65.1645 139.38 64.2056 139.38 63.0919Z" fill="#2149FE"/>
<path fill-rule="evenodd" clip-rule="evenodd" d="M211.266 40.38V51.6939C211.266 52.9391 211.265 54.184 211.264 55.4288C211.262 57.9176 211.26 60.4056 211.266 62.8937C211.245 63.4721 211.304 64.0506 211.439 64.6132C212.073 66.8763 214.263 68.3356 216.591 68.0467C218.989 67.7289 220.748 65.803 220.748 63.2332C220.786 55.582 220.786 47.9316 220.748 40.2822C220.732 37.3865 218.622 35.3383 215.894 35.3927C213.21 35.447 211.266 37.5142 211.266 40.38ZM212.44 62.9046V51.6939V51.6885C212.44 50.4072 212.439 49.1266 212.438 47.8459C212.436 45.2847 212.435 42.7234 212.44 40.1573C212.445 38.6306 213.216 37.5386 214.571 36.8976C215.824 36.3054 217.042 36.4847 218.153 37.2996C218.375 37.434 218.562 37.6205 218.696 37.8429C218.77 38.0921 218.804 38.3516 218.796 38.6116C218.565 38.6359 218.332 38.624 218.105 38.5763C215.68 37.6174 214.037 38.7148 214.037 41.3498C214.01 48.6769 214.01 56.0048 214.037 63.3337C214.039 63.7538 214.143 64.174 214.248 64.5954C214.309 64.8416 214.37 65.0883 214.411 65.3357C214.433 65.597 214.433 65.8596 214.411 66.1208C214.312 66.0887 214.206 66.0675 214.103 66.0466C213.9 66.0056 213.705 65.9662 213.574 65.8491C212.711 65.0777 212.44 64.04 212.44 62.9046Z" fill="#2149FE"/>
<path d="M88.7688 35.6206C92.1611 35.6695 95.8543 37.1853 98.9158 40.1923C99.187 40.4504 99.2683 40.8877 99.4391 41.2409C99.0704 41.1349 98.6257 41.1322 98.3545 40.9068C89.0752 33.2492 75.7555 38.117 73.7109 49.9905C72.9435 54.3883 74.0418 58.4032 76.8483 61.9345C77.0314 62.1082 77.1918 62.3045 77.3256 62.5186C77.4142 62.7926 77.4697 63.0762 77.491 63.3634C77.2198 63.2955 76.8592 63.3145 76.6775 63.1434C74.9163 61.4558 73.5807 59.373 72.7808 57.0667C69.0876 46.6764 76.8754 35.6152 88.7688 35.6206Z" fill="white"/>
<path d="M98.0048 52.5086C97.8177 53.5001 97.6929 54.5079 97.4218 55.475C97.1886 56.3035 96.5459 56.969 95.6701 56.7843C94.9216 56.6295 94.2546 56.0644 93.5712 55.6434C93.4769 55.5022 93.4635 55.3217 93.536 55.168C93.6831 55.0337 93.8803 54.9685 94.0783 54.9887C95.5751 55.2332 96.0036 54.948 96.188 53.4404C96.592 50.1807 95.8978 47.1709 93.8831 44.5224C93.754 44.3961 93.6468 44.2492 93.5658 44.0878C93.517 43.9058 93.5034 43.6124 93.6065 43.5255C93.7854 43.4303 93.9998 43.4303 94.1786 43.5255C94.4446 43.7138 94.6837 43.9377 94.8891 44.191C96.9771 46.5515 97.8177 49.3766 98.0048 52.5086Z" fill="white"/>
<path d="M88.6114 63.7195C86.3293 63.6159 84.1754 62.6329 82.5997 60.9759C82.3855 60.7532 82.3855 60.324 82.2852 59.9898C82.597 60.0822 82.9739 60.0903 83.2071 60.2778C84.9724 61.6903 86.9492 62.2608 89.1728 61.8859C90.8621 61.6143 91.1251 61.1959 90.7564 59.5389C90.7184 59.3651 90.7564 59.0554 90.8865 58.9956C91.0767 58.9177 91.2934 58.9422 91.4614 59.0608C91.8898 59.7752 92.4511 60.4842 92.6057 61.2666C92.7765 62.1249 92.0959 62.7742 91.3068 63.054C90.4201 63.321 89.5205 63.5431 88.6114 63.7195Z" fill="white"/>
<path d="M89.5693 56.559C89.7124 56.8672 89.8391 57.1828 89.9489 57.5043C89.9871 57.7332 89.9953 57.9661 89.9733 58.197C89.7509 58.1699 89.4662 58.2188 89.3171 58.0992C88.4439 57.3903 87.8148 56.5292 87.9884 55.3149C88.1292 54.1945 88.9166 53.2628 89.9965 52.9388C91.0764 52.6149 92.2454 52.9597 92.9778 53.8182C93.1622 54.0273 93.1893 54.3615 93.2896 54.6548C93.0068 54.7012 92.7183 54.7012 92.4355 54.6548C90.86 54.0817 89.5611 54.8124 89.5693 56.559Z" fill="white"/>
<path d="M185.127 52.427C185.127 55.9801 185.1 59.5332 185.144 63.0863C185.144 63.8604 185.415 64.6319 185.537 65.4061C185.552 65.6372 185.544 65.8692 185.512 66.0988C185.241 66.0499 184.921 66.0988 184.745 65.9439C183.78 65.129 183.528 64.0424 183.528 62.82C183.528 55.4223 183.528 48.0255 183.528 40.6296C183.519 40.3395 183.53 40.0491 183.56 39.7604C183.883 37.3591 186.093 35.9574 188.343 36.8103C188.886 37.0141 189.352 37.4759 189.797 37.8833C189.922 37.9974 189.854 38.3288 189.873 38.5624C189.647 38.5801 189.421 38.5801 189.195 38.5624C188.498 38.4646 187.774 38.155 187.12 38.2663C185.838 38.4809 185.133 39.5892 185.127 41.1104C185.119 44.8808 185.127 48.6512 185.127 52.427Z" fill="white"/>
<path d="M191.761 48.494C192.251 48.1436 192.845 47.8774 193.217 47.4265C195.782 44.3379 198.29 41.2031 200.837 38.0983C202.355 36.243 204.701 36.0121 206.23 37.574C206.463 37.8158 206.501 38.2368 206.645 38.5737C206.319 38.5774 205.994 38.5353 205.68 38.4487C204.324 37.8457 203.255 38.0874 202.233 39.3315C199.616 42.5179 197.019 45.7206 194.399 48.9042C193.472 50.0288 192.11 50.2325 191.175 49.3877C190.936 49.1731 190.841 48.7955 190.679 48.494L191.544 48.1273L191.761 48.494Z" fill="white"/>
<path d="M193.55 55.0864C193.814 55.2805 194.062 55.4959 194.29 55.7302C196.895 58.8867 199.49 62.0558 202.073 65.2377C202.246 65.455 202.2 65.8543 202.257 66.1694C201.924 66.0309 201.479 65.9874 201.273 65.7429C199.104 63.165 196.972 60.5573 194.833 57.955C194.29 57.3139 193.748 56.6782 193.265 56.01C193.158 55.8011 193.12 55.5631 193.157 55.3309C193.16 55.2494 193.377 55.1869 193.55 55.0864Z" fill="white"/>
<path d="M126.602 48.1622C126.602 45.4811 126.575 42.7973 126.602 40.1189C126.568 38.6515 127.471 37.3256 128.847 36.8212C130.203 36.2535 131.488 36.5305 132.567 37.5193C132.817 37.7475 132.885 38.174 133.037 38.5108C132.689 38.4809 132.304 38.5407 132.001 38.4103C130.279 37.6741 128.541 38.5624 128.204 40.4069C128.145 40.837 128.122 41.2714 128.137 41.7053C128.137 46.6682 128.158 51.6311 128.12 56.5967C128.093 59.9298 126.043 62.4207 122.898 63.0047C120.758 63.4013 118.887 62.7711 117.331 61.269C117.092 61.0381 117.035 60.6224 116.894 60.291C117.241 60.3644 117.651 60.3399 117.927 60.5219C121.452 62.839 126.046 60.8588 126.512 56.7434C126.675 55.3118 126.569 53.8504 126.575 52.3971C126.58 50.9438 126.575 49.5721 126.575 48.1595L126.602 48.1622Z" fill="white"/>
<path d="M110.093 48.7601C110.093 51.0093 110.093 53.2557 110.093 55.5022C110.053 58.3554 111.012 61.1326 112.805 63.35C113.011 63.6216 113.046 64.01 113.16 64.3442C112.797 64.2138 112.331 64.1839 112.092 63.934C109.863 61.5843 108.602 58.7728 108.55 55.5131C108.469 50.4035 108.51 45.2912 108.532 40.1816C108.532 38.6278 109.277 37.4516 110.701 36.8296C112.057 36.2428 113.337 36.4927 114.416 37.5032C114.663 37.7341 114.733 38.1552 114.888 38.4893C114.538 38.4648 114.147 38.53 113.844 38.3969C112.008 37.5956 110.121 38.8234 110.091 40.9232C110.058 43.5418 110.093 46.1523 110.093 48.7601Z" fill="white"/>
<path d="M151.514 52.8454C151.647 39.2769 164.435 31.7443 175.062 37.6335C175.992 38.1927 176.86 38.8472 177.655 39.5866C177.904 39.8012 177.926 40.2765 178.053 40.6324C177.711 40.5292 177.294 40.5129 177.036 40.3037C174.551 38.2566 171.419 37.1618 168.202 37.2151C161.965 37.245 157.355 40.1407 154.643 45.7094C151.91 51.3541 152.631 56.825 156.327 61.8911C156.48 62.0443 156.615 62.2147 156.729 62.399C156.857 62.7553 156.966 63.1179 157.057 63.4856C156.702 63.3145 156.243 63.2303 156.007 62.9641C153.033 59.7913 151.528 56.0155 151.514 52.8454Z" fill="white"/>
<path d="M167.795 63.5974C165.507 63.5485 163.524 62.6113 161.881 60.9461C161.683 60.7451 161.678 60.3513 161.585 60.0443C161.892 60.1095 162.266 60.0878 162.499 60.2562C166.106 62.9101 169.891 62.557 172.955 59.1941C174.097 57.9418 175.415 57.4447 177.023 57.9418C177.462 58.1 177.859 58.3575 178.184 58.6942C178.371 58.8817 178.371 59.2593 178.455 59.5499C178.167 59.5905 177.876 59.5859 177.59 59.5363C176.31 59.0936 175.255 59.3815 174.371 60.4029C172.668 62.3858 170.547 63.5648 167.795 63.5974Z" fill="white"/>
<path d="M139.38 51.5691C139.38 47.7281 139.38 43.8898 139.38 40.0488C139.38 38.4923 140.22 37.441 141.579 36.8461C142.831 36.2491 144.324 36.513 145.296 37.5035C145.549 37.7371 145.624 38.1581 145.782 38.4923C145.435 38.4705 145.047 38.5439 144.746 38.4135C142.894 37.5986 140.985 38.7856 140.931 40.8583C140.884 42.6321 140.917 44.4086 140.917 46.1852C140.917 51.8 140.901 57.4175 140.936 63.0269C140.936 63.7984 141.207 64.5672 141.332 65.3441C141.346 65.6036 141.333 65.864 141.294 66.1209C141.039 66.0503 140.716 66.053 140.537 65.8982C139.699 65.1621 139.366 64.2032 139.369 63.0894C139.38 59.2511 139.38 55.4155 139.38 51.5691Z" fill="white"/>
<path d="M212.439 51.6886C212.439 47.8449 212.439 43.9984 212.439 40.1547C212.439 38.6199 213.215 37.5279 214.571 36.895C215.824 36.3028 217.041 36.4767 218.153 37.297C218.375 37.4315 218.561 37.6179 218.695 37.8403C218.77 38.0895 218.804 38.3491 218.796 38.6091C218.565 38.6333 218.331 38.6214 218.104 38.5738C215.664 37.6149 214.037 38.7123 214.037 41.3472C214.037 48.6761 214.037 56.0041 214.037 63.3312C214.037 63.9967 214.308 64.6622 214.411 65.3332C214.433 65.5944 214.433 65.857 214.411 66.1182C214.126 66.0367 213.771 66.0367 213.573 65.8466C212.7 65.0724 212.437 64.0375 212.439 62.902C212.445 59.1615 212.439 55.4155 212.439 51.6886Z" fill="white"/>
<path d="M17.0842 35.1753C16.7148 35.2802 16.3731 35.4657 16.0836 35.7185C13.1008 38.2204 13.9468 45.5574 13.5211 47.3747C13.5211 47.3747 13.0899 50.906 15.243 52.8564C17.3961 54.8068 19.1207 54.7117 19.1207 54.7117C19.1207 54.7117 21.5612 52.0741 22.212 49.3658C22.4831 48.2385 20.1592 46.5082 19.1207 45.8209C19.1207 45.8209 19.2291 41.9065 21.9869 39.1657C21.9869 39.1657 21.8622 38.9158 21.6452 38.5382C20.8995 37.2805 19.08 34.6374 17.0842 35.1753Z" fill="#98C883"/>
<path d="M29.2486 51.4627C31.0692 50.9374 32.8582 50.308 34.6068 49.5775C34.4281 49.441 34.2841 49.2642 34.1865 49.0614L33.2863 47.1463C33.0845 46.7054 33.1255 46.1912 33.3947 45.7881C32.0389 46.2852 30.5448 46.7877 28.8608 47.274C29.0035 47.7797 29.0612 48.3057 29.0317 48.8305C29.0003 49.7134 29.0732 50.5969 29.2486 51.4627Z" fill="#98C883"/>
<path d="M39.6607 47.3336C42.1229 46.1628 43.9993 45.1604 44.4223 44.9295C43.2916 43.7751 42.3696 42.9058 41.9059 42.4196C41.7544 42.2615 41.6241 42.0843 41.5182 41.8926C40.3414 42.6424 39.1187 43.3174 37.8574 43.9136C38.2028 44.0364 38.4856 44.2914 38.6438 44.6226L39.5387 46.5241C39.6569 46.7715 39.6975 47.049 39.6553 47.32L39.6607 47.3336Z" fill="#98C883"/>
<path d="M52.6988 64.2787C52.311 65.0501 51.3429 65.5852 48.5635 63.8413C48.6123 67.8725 54.117 71.5505 54.4912 71.469C54.8654 71.3875 54.8925 67.5764 52.6988 64.2787Z" fill="#98C883"/>
<path d="M50.8414 75.6985C50.7546 76.0435 50.1689 78.2954 52.4467 82.3076C52.6934 82.4869 52.9538 82.6634 53.2222 82.8373C58.9167 86.5207 56.7338 84.5622 58.3473 86.7489C59.9607 88.9356 63.2825 90.7828 63.2825 90.7828C63.2825 90.7828 66.8944 90.7828 67.8923 89.6338C68.7248 88.6694 68.2204 88.4521 65.4518 86.5316C63.475 85.1734 60.983 85.3717 58.914 82.0278C58.1005 80.7103 57.428 78.9637 56.6253 77.3501C53.3415 74.3186 50.9282 75.3535 50.8414 75.6985Z" fill="#98C883"/>
<path d="M39.7913 56.1131C40.2049 55.9374 40.5985 55.718 40.9654 55.4584C41.2936 56.2027 42.9856 59.7259 47.0721 62.7928C47.6144 63.202 48.1116 63.547 48.5635 63.8277C51.3321 65.5717 52.311 65.0365 52.6988 64.2651C52.775 64.1178 52.8333 63.9618 52.8723 63.8006C54.7895 56.4662 48.3601 48.939 44.4282 44.916C43.9917 45.1578 42.1287 46.1493 39.6666 47.32C39.6018 47.7772 39.3097 48.1701 38.891 48.3632L36.0329 49.7214C35.5722 49.9383 35.0293 49.8819 34.6229 49.5747C32.8742 50.3052 31.0852 50.9346 29.2646 51.4599C30.3791 57.5555 35.2303 68.8449 40.7431 71.0887C47.1833 73.7372 45.5563 74.6635 47.0612 75.2448C47.0612 75.2448 47.4816 78.7979 52.4466 82.3075C50.1688 78.2954 50.7545 76.0435 50.8413 75.6985C50.9281 75.3535 53.3414 74.3185 56.6198 77.3555C55.3806 74.87 53.835 72.6887 50.9769 72.8245C50.2137 71.4339 49.1546 70.2283 47.8747 69.2932C47.8747 69.2932 45.5563 63.2926 39.7913 56.1131Z" fill="#96CAEE"/>
<path d="M29.484 52.582C29.3918 52.1935 29.3131 51.8186 29.248 51.4628C31.0686 50.9375 32.8576 50.3081 34.6063 49.5776C35.0127 49.8848 35.5556 49.9413 36.0163 49.7243L38.8744 48.3661C39.2931 48.173 39.5852 47.7801 39.65 47.323C42.1121 46.1522 43.9886 45.1498 44.4116 44.9189L44.5743 45.0874C39.772 48.9881 42.4321 55.7629 45.6075 58.9411C47.7036 61.2283 50.0627 63.1162 52.6198 64.3739C52.1914 65.0802 51.1799 65.485 48.5523 63.8307C48.1058 63.55 47.6087 63.205 47.0609 62.7957C42.9744 59.7207 41.2824 56.1975 40.9543 55.4614C40.5873 55.7209 40.1937 55.9404 39.7801 56.116C45.5559 63.2928 47.8798 69.2689 47.8798 69.2689C49.1597 70.2041 50.2187 71.4096 50.982 72.8003C53.8401 72.6644 55.3857 74.8457 56.6249 77.3313C53.3465 74.2943 50.9304 75.3293 50.8464 75.6742C50.7623 76.0192 50.1658 78.2956 52.4463 82.3077C47.4812 78.79 47.0609 75.245 47.0609 75.245L46.9985 75.2206C47.088 75.0902 47.1802 74.9653 47.2697 74.8294C47.7903 73.2675 47.3131 69.7253 44.9051 70.3392C44.3899 62.2986 38.4053 53.9673 29.484 52.582Z" fill="#2149FE"/>
<path d="M46.6896 27.3842C46.8848 27.9398 47.1111 28.4839 47.3675 29.014C48.1286 30.3624 48.9869 31.6534 49.9355 32.8768L50.0521 32.4666C50.2772 31.668 50.3016 31.5158 50.4073 31.1518C50.5523 30.58 50.7644 30.0275 51.0391 29.5057C51.1822 29.2476 51.3445 29.0006 51.5245 28.7668C51.7957 28.4354 52.4573 27.6802 53.3305 27.6802C53.9162 27.6802 54.5209 28.0062 55.3534 28.4571C55.4781 28.5278 55.6083 28.6011 55.7411 28.6853C55.9499 28.813 56.1425 28.9407 56.316 29.0683C55.7191 26.6461 54.3536 24.4832 52.4248 22.9048C52.3193 23.2496 52.1334 23.5643 51.8825 23.8229C50.391 25.4365 46.5079 26.2677 46.5079 26.2677C46.5003 26.6481 46.5628 27.0265 46.6923 27.3842H46.6896Z" fill="#2149FE"/>
<path d="M22.4013 29.7041C21.9295 31.6518 22.3118 33.6918 23.0873 35.7101C24.7143 39.9559 28.047 44.131 28.8605 47.2657C30.5444 46.7795 32.0521 46.277 33.3943 45.7799C33.5299 45.5767 33.7171 45.4136 33.9367 45.3072L36.7975 43.9626C37.1265 43.8057 37.5047 43.788 37.8469 43.9137C39.1082 43.3175 40.3308 42.6425 41.5076 41.8927C40.3769 39.8744 42.8634 37.2748 44.1488 33.2436C43.4248 33.6157 42.4838 33.7135 41.2663 33.3685C37.3995 32.282 34.5088 32.0103 31.3308 32.1597C28.7439 32.2956 23.8358 33.0779 22.4013 29.7041Z" fill="#96CAEE"/>
<path d="M22.4013 29.7041C23.8358 33.0779 28.7411 32.2956 31.3498 32.1489C34.5278 31.9859 37.4184 32.2684 41.2853 33.3577C42.5028 33.7027 43.4546 33.6049 44.1678 33.2327C42.8851 37.253 40.3958 39.8635 41.5266 41.8818C41.3015 42.0285 41.0304 42.1969 40.7131 42.3789C37.188 37.9837 31.7185 34.8001 27.0545 37.6034C26.2554 38.0912 25.4875 38.6282 24.755 39.2116C24.1226 38.0788 23.5655 36.9055 23.0873 35.6992C22.3118 33.6837 21.9295 31.6518 22.4013 29.7041Z" fill="#2149FE"/>
<path d="M41.277 33.3686C37.4102 32.282 34.5196 32.0104 31.3415 32.1598C28.7411 32.2956 23.8357 33.0779 22.3931 29.715C21.9212 31.6627 22.3036 33.7027 23.0791 35.721C22.7293 36.7886 21.6338 38.5461 21.6338 38.5461C20.8962 37.2911 19.0767 34.648 17.0728 35.1859C15.8634 32.3173 15.9475 29.9378 16.3027 28.3133C16.4628 27.4849 16.7617 26.6895 17.1867 25.9609C16.3732 20.2048 22.8188 18.958 23.6269 19.0449C24.3569 19.1051 25.0917 19.0695 25.8125 18.939C32.0493 19.4388 35.1677 22.924 35.1677 22.924C35.1677 22.924 37.0035 22.0819 39.3843 21.0686C42.0824 19.9196 45.491 18.5505 47.7362 17.9502C50.6133 19.3274 52.929 21.1719 52.422 22.9294C52.3164 23.2742 52.1305 23.5889 51.8796 23.8475C50.3882 25.4611 46.5051 26.2923 46.5051 26.2923C46.5367 26.7843 46.5422 27.2775 46.5214 27.7701C46.4427 29.514 46.0224 32.3092 44.1595 33.2681C43.4355 33.6158 42.4946 33.7136 41.277 33.3686Z" fill="#96CAEE"/>
<path d="M40.2247 20.7048C40.8348 20.4494 41.4612 20.1914 42.1012 19.936C42.5971 21.282 43.439 22.473 44.5417 23.3886C46.7435 25.1543 50.7188 25.1353 52.4651 22.7693C52.4651 22.8182 52.4489 22.8698 52.4353 22.9187C52.3298 23.2635 52.1439 23.5782 51.893 23.8368C50.4016 25.4504 46.5185 26.2816 46.5185 26.2816C46.5501 26.7735 46.5555 27.2668 46.5347 27.7593C46.4561 29.5033 46.0358 32.2985 44.1729 33.2573C43.4489 33.6295 42.5079 33.7273 41.2904 33.3823C40.4471 33.146 39.6634 32.9531 38.896 32.7874C40.2547 32.4742 41.5938 32.0815 42.9065 31.6112C47.7794 29.4218 43.495 23.4647 40.2247 20.7048Z" fill="#2149FE"/>
<path d="M16.3058 28.3023C16.4495 27.6054 16.6819 26.9299 16.9973 26.2922C18.7149 26.4519 20.4458 26.3953 22.1494 26.1238C26.2467 25.3795 27.3016 22.3425 27.2012 19.0991C28.173 19.2562 29.1287 19.5008 30.0566 19.8298C26.8623 22.6794 24.8774 26.189 25.4143 29.9621C25.4896 30.8715 25.9372 31.7092 26.6508 32.2765C24.8367 32.0945 23.1473 31.4615 22.4016 29.7122C21.9298 31.6598 22.3121 33.6999 23.0877 35.7182C22.7379 36.7857 21.6423 38.5432 21.6423 38.5432C20.9048 37.2883 19.0853 34.6452 17.0813 35.183C15.8665 32.3063 15.9506 29.9268 16.3058 28.3023Z" fill="#2149FE"/>
<path d="M29.248 51.4627C29.0719 50.5942 28.9991 49.708 29.0311 48.8223C29.0606 48.2976 29.0029 47.7716 28.8603 47.2658C28.0468 44.1257 24.7114 39.956 23.0871 35.7102C22.7373 36.7777 21.6418 38.5353 21.6418 38.5353C21.8588 38.9129 21.9835 39.1628 21.9835 39.1628C19.2257 41.9036 19.1173 45.818 19.1173 45.818C20.1558 46.5052 22.4824 48.2356 22.2086 49.3629C21.5523 52.0793 19.1173 54.7088 19.1173 54.7088C19.1173 54.7088 17.3954 54.7958 15.2396 52.8535C13.0838 50.9113 13.5177 47.3718 13.5177 47.3718C13.9434 45.5545 13.0866 38.2174 16.0802 35.7156C16.3697 35.4628 16.7114 35.2773 17.0808 35.1723C15.8714 32.3038 15.9555 29.9242 16.3107 28.2998C13.2845 35.1615 6.04167 41.2626 0.64005 42.4252C0.64005 42.4252 5.12242 49.4498 1.21221 54.1655C-2.698 58.8812 3.62016 68.6712 9.4909 70.5157C15.3616 72.3601 18.7973 68.4159 24.3209 74.3621C29.8446 80.3084 32.1847 67.9813 40.7292 71.1024C35.2245 68.8369 30.3707 57.5584 29.248 51.4627Z" fill="#D95214"/>
<g style="mix-blend-mode:multiply">
<path d="M21.6367 38.535C21.6367 38.535 22.7214 36.7775 23.082 35.71C23.1525 35.892 23.2285 36.0712 23.3017 36.2532C22.9424 37.255 22.4884 38.2201 21.9458 39.1354C21.9296 39.0647 21.8157 38.8447 21.6367 38.535Z" fill="#F4D1BD"/>
</g>
<g style="mix-blend-mode:multiply">
<path d="M21.8865 39.2661C21.3811 40.1092 20.8204 40.9178 20.208 41.6865C20.6338 40.7944 21.2006 39.9771 21.8865 39.2661Z" fill="#F4D1BD"/>
</g>
<path d="M30.3975 55.7925C32.4041 61.8447 36.3631 69.3012 40.7262 71.0913C35.349 69.1328 32.4231 73.2998 29.6084 75.166C30.5737 68.7063 31.0266 62.2494 30.3975 55.7925Z" fill="#DD3A18"/>
<path d="M0.038085 57.099C1.28623 56.5812 2.46937 55.9184 3.56324 55.1242C6.64097 52.951 10.1959 50.6502 13.4771 48.0968C13.4771 49.2323 13.6804 51.4543 15.2315 52.8532C17.3873 54.7955 19.1092 54.7086 19.1092 54.7086C19.1092 54.7086 21.5497 52.0709 22.2005 49.3626C22.4716 48.2353 20.1477 46.505 19.1092 45.8177C19.2064 44.3841 19.5745 42.9821 20.1938 41.686C20.8062 40.9174 21.367 40.1088 21.8723 39.2657C21.9049 39.2304 21.932 39.1951 21.9645 39.1625V39.1326C22.5071 38.2173 22.9611 37.2523 23.3204 36.2505C23.8552 37.4949 24.4609 38.7075 25.1345 39.8823C23.1929 50.7752 19.4237 61.7875 13.2547 71.0587C11.9831 71.0746 10.7168 70.8913 9.50177 70.5154C4.66688 68.9969 -0.452725 62.1244 0.038085 57.099Z" fill="#DD3A18"/>
<path d="M33.3945 45.7798C33.1253 46.1829 33.0842 46.6971 33.286 47.138L34.1863 49.0531C34.2838 49.2559 34.4278 49.4327 34.6066 49.5692C35.013 49.8764 35.5559 49.9328 36.0166 49.7159L38.8747 48.3577C39.2934 48.1646 39.5856 47.7717 39.6503 47.3146C39.6925 47.0435 39.6519 46.7661 39.5337 46.5186L38.6388 44.6172C38.4806 44.2859 38.1979 44.031 37.8524 43.9082C37.5103 43.7825 37.1321 43.8002 36.803 43.9571L33.9422 45.3017C33.7227 45.4081 33.5354 45.5712 33.3999 45.7743L33.3945 45.7798Z" fill="#7FBA6D"/>
<path d="M52.623 64.3085C52.6524 64.9719 52.7377 65.6316 52.8779 66.2806C52.9891 66.8837 53.1328 67.4487 53.2901 68.0137C53.4474 68.5787 53.6182 69.1383 53.8324 69.706C53.9274 69.9777 54.0467 70.2738 54.1497 70.5672C54.2714 70.8459 54.3738 71.1327 54.4561 71.4255L54.4805 71.5315C54.608 71.469 54.6107 71.3739 54.6459 71.2979C54.668 71.2184 54.6852 71.1377 54.6975 71.0561C54.7219 70.8931 54.7327 70.7329 54.7409 70.5726C54.7446 70.2514 54.7292 69.9303 54.6948 69.611C54.6291 68.9688 54.5121 68.3329 54.345 67.7095C54.0006 66.4733 53.4506 65.3043 52.718 64.2515L52.623 64.3085Z" fill="#7FBA6D"/>
<g style="mix-blend-mode:multiply">
<path d="M13.5887 53.1386C12.9242 52.2944 12.4656 51.3066 12.2491 50.2537C12.1388 49.7613 12.0681 49.2608 12.0376 48.757C12.0213 48.5098 12.0132 48.2599 12.0132 48.01C12.0132 47.7601 12.0132 47.5346 12.0539 47.195V47.1353L12.0756 47.0375C12.1079 46.8378 12.1287 46.6365 12.1379 46.4344L12.1705 45.644L12.2057 43.9571C12.2224 42.78 12.313 41.605 12.4769 40.4393C12.6361 39.1788 12.9796 37.9487 13.4965 36.7884C13.7979 36.1342 14.2047 35.534 14.7004 35.0119C14.913 34.798 15.1434 34.6026 15.3892 34.4279C15.0312 33.2876 14.8269 32.1046 14.7818 30.9101L16.5145 27.9058C16.4901 28.0036 16.4684 28.1013 16.4467 28.1991C16.2823 28.9656 16.2094 29.7489 16.2298 30.5325C16.2702 31.6367 16.4665 32.7296 16.8128 33.7787L16.8752 33.7569L16.8318 33.8439C16.9674 34.2649 17.1247 34.6805 17.2982 35.088L17.3687 35.251L17.1952 35.289C16.6721 35.4187 16.1998 35.7026 15.8393 36.1039C15.4676 36.5047 15.1636 36.9634 14.9391 37.4621C14.5055 38.484 14.2233 39.5639 14.1012 40.6675C13.952 41.7731 13.8869 42.8922 13.8463 44.0114L13.7947 45.6983C13.7895 46.2711 13.7378 46.8425 13.6402 47.4069V47.3879C13.562 48.2316 13.6104 49.0822 13.7839 49.9115C13.9464 50.7395 14.291 51.5208 14.7926 52.1987C15.3409 52.8422 15.9959 53.3862 16.7288 53.8068C17.4254 54.2424 18.2154 54.5059 19.0337 54.5755C19.6315 53.9032 20.1755 53.1848 20.6607 52.4269C21.1602 51.6627 21.568 50.8421 21.8755 49.9821C21.9512 49.7684 22.0155 49.5507 22.068 49.3301C22.098 49.123 22.064 48.9116 21.9704 48.7244C21.7627 48.3186 21.4876 47.9512 21.1569 47.6378C20.5004 46.9937 19.783 46.4151 19.0147 45.9102L18.9659 45.8749V45.8178C19 45.1951 19.0907 44.5768 19.237 43.9707C19.381 43.3658 19.5733 42.7736 19.8119 42.1995C20.2771 41.0651 20.9576 40.0319 21.8158 39.1572L21.5284 38.5731L21.504 38.527L21.5311 38.4835C21.8023 38.0353 22.0734 37.5762 22.3256 37.1117C22.5793 36.6522 22.7969 36.1735 22.9764 35.6801L23.131 35.7318C22.9902 36.254 22.8089 36.7645 22.5886 37.2584C22.4097 37.6821 22.2144 38.095 22.0029 38.5079L22.2985 38.9643L22.4476 39.1925L22.2307 39.4505C21.4773 40.3428 20.8986 41.3695 20.5251 42.4766C20.2169 43.4116 20.0274 44.3818 19.961 45.3642C20.6711 45.8029 21.3416 46.3028 21.965 46.8582C22.4085 47.246 22.7763 47.713 23.0496 48.2354C23.2528 48.6446 23.3221 49.1075 23.2476 49.5583L23.1988 49.7811L23.1527 49.9631C23.1174 50.1016 23.0794 50.2347 23.0415 50.3597C22.7302 51.3306 22.3061 52.2614 21.7779 53.1331C21.2732 53.9989 20.6915 54.8172 20.0397 55.5779L19.6872 55.9582L19.1448 55.9772C19.0419 55.9829 18.9387 55.9829 18.8357 55.9772L18.6052 55.9582C18.4588 55.9419 18.3178 55.9229 18.1822 55.8957C17.916 55.8445 17.6534 55.7765 17.3958 55.692C16.9037 55.531 16.4287 55.3217 15.9776 55.0672" fill="#DFC5AC"/>
</g>
<path d="M21.6287 38.5489C21.9161 38.1034 22.1873 37.6507 22.4422 37.1907C22.6904 36.7198 22.9016 36.2303 23.074 35.7265L23.0225 35.7075C22.7888 35.8715 22.5789 36.0672 22.3988 36.2888C22.2335 36.4868 22.0882 36.7006 21.9649 36.9272C21.8427 37.1595 21.7463 37.4045 21.6775 37.6579C21.5939 37.9377 21.5626 38.2306 21.5853 38.5217L21.6287 38.5489Z" fill="#0C6A72"/>
<path d="M46.3939 26.2733C46.2096 27.6294 45.8599 28.9577 45.3526 30.2285C45.1354 30.7833 44.8142 31.2914 44.4062 31.7252C44.0911 32.0664 43.6674 32.2872 43.2077 32.35C42.7084 32.3826 42.2076 32.3142 41.7353 32.149L40.7401 31.8311C40.393 31.7225 40.0459 31.6193 39.6934 31.5215C38.2698 31.1488 36.8191 30.8891 35.3547 30.7446C33.8856 30.6367 32.4101 30.6485 30.9429 30.7799C29.6109 30.964 28.2706 31.081 26.9269 31.1303C25.6687 31.1303 24.4593 30.9592 23.597 30.2448C22.694 29.5548 22.2629 28.202 22.0649 26.803H21.9022C21.8407 27.5113 21.88 28.2247 22.0188 28.9219C22.162 29.6264 22.4853 30.2816 22.957 30.8234C23.4453 31.355 24.0587 31.7556 24.7413 31.9887C25.4207 32.2237 26.1284 32.3671 26.8456 32.4152C28.2506 32.4882 29.6591 32.4565 31.0595 32.3201C32.45 32.2358 33.8449 32.2549 35.2327 32.3771C36.6221 32.4967 38.0012 32.7145 39.3598 33.0291C40.0432 33.1812 40.7157 33.3605 41.3936 33.5425C42.0907 33.7397 42.8257 33.7612 43.5331 33.605C44.2444 33.4209 44.8695 32.9945 45.3011 32.3989C45.7174 31.8162 46.0227 31.1614 46.2014 30.4675C46.5484 29.0937 46.6729 27.6731 46.5701 26.2598L46.3939 26.2733Z" fill="white"/>
<path d="M40.45 39.3609C40.2606 39.8032 40.1469 40.2743 40.1138 40.7544C40.0745 41.3215 40.1838 41.8889 40.431 42.4006L40.4907 42.5228L41.5754 41.8029C41.2147 41.1673 41.2906 40.385 41.513 39.6814C41.7286 38.9563 42.028 38.2589 42.4051 37.6034C43.2104 36.2793 43.8154 34.843 44.2003 33.3413L44.0701 33.4065" fill="#1C4595"/>
<path d="M44.5202 44.8535C44.0538 44.3809 43.582 43.9163 43.1074 43.4546L42.2939 42.6396C42.0131 42.3924 41.7724 42.1028 41.5808 41.7812L40.4961 42.512C40.6081 42.7219 40.7379 42.9218 40.8839 43.1096L41.1089 43.3812L41.315 43.6175L42.1095 44.4759C42.4566 44.8454 42.7983 45.2175 43.1373 45.5869L44.5202 44.8535Z" fill="#7FBA6D"/>
<path d="M52.3862 82.3565C53.3353 83.0274 54.3169 83.6386 55.2986 84.258C55.7921 84.564 56.2892 84.8637 56.79 85.1571C57.0395 85.2785 57.2676 85.44 57.4652 85.6352C57.6143 85.8634 57.7607 86.1323 57.9261 86.3686C58.5826 87.3405 59.3921 88.1992 60.3233 88.9112C61.2367 89.6339 62.205 90.2842 63.2193 90.8561H63.2383H63.2573C64.0695 90.8441 64.8795 90.765 65.6788 90.6198C66.0802 90.5487 66.4749 90.4433 66.8584 90.3047C67.2535 90.1771 67.6118 89.9552 67.9023 89.6582L67.8183 89.5849C67.4869 89.7822 67.1169 89.9055 66.7336 89.9461C66.3514 90.0057 65.9653 90.0365 65.5784 90.0385C65.1934 90.0575 64.8029 90.0548 64.4124 90.0385C64.022 90.0222 63.6261 90.0168 63.2654 89.9815L63.645 90.0793C62.7475 89.4545 61.8418 88.7591 60.9957 88.0691C60.5782 87.7132 60.1822 87.3411 59.7999 86.9825C59.616 86.8032 59.4414 86.6146 59.2766 86.4175C59.0976 86.2111 58.9512 85.9992 58.7776 85.7846L58.5417 85.4668C58.4576 85.3527 58.4115 85.2657 58.2488 85.0484C58.156 84.9318 58.0485 84.8277 57.9289 84.7388C57.8424 84.6765 57.7518 84.6203 57.6577 84.5703C57.5058 84.4888 57.3865 84.4209 57.2455 84.3612L55.6836 83.6277C54.6342 83.1388 53.555 82.6797 52.4486 82.2695L52.3862 82.3565Z" fill="#7FBA6D"/>
<path d="M26.385 42.3762C26.9463 43.3568 27.5049 44.3429 27.9794 45.3642C28.2785 45.9879 28.5217 46.637 28.7061 47.3037L30.062 46.899C30.0204 46.765 29.9797 46.6346 29.9399 46.5078C29.7358 45.9181 29.4865 45.3451 29.1942 44.7938C28.6519 43.7235 28.0282 42.7429 27.4181 41.7758C26.2006 39.8472 24.6549 37.4622 23.9309 36.0496C22.9199 34.0507 22.2368 31.9016 21.908 29.6851H21.5718C21.7276 30.833 21.9439 31.9719 22.2199 33.0969C22.4568 34.2093 22.787 35.2997 23.2069 36.3566" fill="#1C4595"/>
<path d="M30.3277 48.5614C30.3115 47.9976 30.2203 47.4385 30.0565 46.8989L28.7007 47.3037C28.8074 47.7137 28.8648 48.135 28.8715 48.5587C28.8133 49.547 28.8844 50.5388 29.083 51.5087L30.5609 51.0686C30.4958 50.7454 30.4389 50.4275 30.3982 50.1152" fill="#7FBA6D"/>
<path d="M19.1175 54.7389C19.7373 54.0458 20.3013 53.3046 20.8041 52.5223C21.315 51.7423 21.7336 50.9054 22.0515 50.0286C22.1293 49.8067 22.1953 49.581 22.2495 49.3522C22.288 49.1077 22.2501 48.8572 22.141 48.6351C21.9288 48.2119 21.6463 47.828 21.3058 47.4996C20.6449 46.8446 19.9179 46.2601 19.1365 45.7557L19.169 45.8181C19.2452 44.5938 19.5199 43.39 19.9825 42.2542C20.4415 41.1129 21.1206 40.0735 21.981 39.1955L21.9213 39.1357C21.3997 39.5005 20.9291 39.9336 20.5221 40.4233C20.1058 40.9177 19.7473 41.4581 19.4537 42.0342C19.1629 42.6139 18.9242 43.2184 18.7406 43.8406C18.5542 44.4786 18.4324 45.1339 18.3772 45.7964L18.3501 46.1713L18.6945 46.4076C19.4148 46.9069 20.0964 47.4599 20.7336 48.0619C21.0112 48.3207 21.248 48.6202 21.436 48.9502C21.4641 49.0042 21.4877 49.0606 21.5065 49.1186C21.5065 49.1376 21.5065 49.1648 21.5065 49.162C21.5046 49.1568 21.5046 49.151 21.5065 49.1457V49.2272V49.249C21.5065 49.249 21.5227 49.162 21.5065 49.2055V49.2435L21.4902 49.3223L21.4549 49.4744C21.4296 49.5777 21.4025 49.6809 21.3736 49.7841C21.1217 50.6334 20.7912 51.4573 20.3865 52.2452C20.1778 52.6472 19.9798 53.0601 19.752 53.4649C19.5242 53.8696 19.2883 54.2635 19.0497 54.6682L19.1175 54.7389Z" fill="#7FBA6D"/>
<path d="M17.1462 35.0938C16.5867 35.2301 16.0812 35.532 15.6955 35.9603C15.3039 36.3748 14.9833 36.8511 14.7464 37.3701C14.2908 38.4071 13.9894 39.5053 13.8515 40.6298C13.7004 41.7478 13.6099 42.8731 13.5804 44.0009L13.5234 45.6851C13.5213 46.241 13.4759 46.7959 13.3879 47.3448C13.3132 48.2158 13.3698 49.0931 13.556 49.9471C13.7296 50.8083 14.0938 51.6196 14.6217 52.3213C15.1913 52.982 15.8701 53.5397 16.6283 53.9701C17.3735 54.4316 18.2214 54.7004 19.0959 54.7525V54.6438C18.2919 54.427 17.5426 54.0429 16.8967 53.5165C16.5788 53.2623 16.2755 52.9902 15.9883 52.7016L15.7795 52.4843L15.6684 52.3647L15.5843 52.2615C15.4672 52.1217 15.3577 51.9757 15.2562 51.8242C14.8711 51.1844 14.6167 50.4743 14.5078 49.7352C14.4465 49.3561 14.4139 48.9729 14.4101 48.5889C14.3974 48.2145 14.41 47.8397 14.4481 47.467L14.4291 47.5757C14.5007 47.2483 14.5479 46.9159 14.5701 46.5815C14.5945 46.2827 14.6108 45.992 14.6217 45.7068L14.6461 44.0199C14.6813 42.9116 14.6678 41.8169 14.7735 40.7439C14.8268 39.6835 15.0089 38.6336 15.3158 37.6173C15.4752 37.1281 15.7055 36.665 15.9992 36.2428C16.0739 36.1319 16.1554 36.0258 16.2432 35.925C16.3274 35.8284 16.418 35.7377 16.5144 35.6533C16.7111 35.4649 16.9397 35.3132 17.1896 35.2051L17.1462 35.0938Z" fill="#7FBA6D"/>
<path d="M21.9996 39.1411C22.0742 38.5145 21.9864 37.8793 21.7447 37.2966C21.5282 36.7238 21.1969 36.2015 20.7712 35.7618C20.3226 35.2776 19.7537 34.9213 19.1225 34.7296C18.4771 34.5259 17.6338 34.5802 17.1484 35.0936L17.1701 35.1995C17.7027 35.1274 18.2441 35.2334 18.7104 35.5011C19.183 35.771 19.6096 36.1149 19.974 36.5197C20.3552 36.9142 20.7035 37.3394 21.0153 37.791C21.3244 38.2419 21.6227 38.7092 21.8911 39.19L21.9996 39.1411Z" fill="#144895"/>
<path d="M21.9648 39.1543C21.4753 38.1535 20.8482 37.2264 20.1019 36.3999C19.7194 35.9905 19.2735 35.6456 18.7813 35.3785C18.2881 35.098 17.7116 35.0018 17.1543 35.1069V35.1585C17.6688 35.2349 18.1562 35.4384 18.5725 35.7507C18.9787 36.0541 19.3555 36.3951 19.6978 36.7693C20.0639 37.1388 20.4056 37.5462 20.7689 37.9455C21.1323 38.3449 21.4957 38.7605 21.916 39.1652L21.9648 39.1543Z" fill="#7FBA6D"/>
<path d="M56.6142 77.3337C55.8052 76.5499 54.8508 75.9326 53.8049 75.5164C53.2745 75.3154 52.7124 75.2115 52.1454 75.2095C51.8605 75.2114 51.5774 75.2544 51.3047 75.3371C51.1653 75.3791 51.0329 75.4413 50.9115 75.5219C50.84 75.564 50.7861 75.6305 50.7597 75.7093L50.7109 75.9185C50.5583 77.042 50.6678 78.1857 51.0309 79.2596C51.3666 80.3322 51.8214 81.3636 52.3867 82.3346L52.4328 82.3075C52.2484 81.7642 52.0369 81.2535 51.8905 80.7184C51.706 80.2016 51.5548 79.6735 51.4376 79.1374C51.2125 78.0862 51.0607 76.9969 51.2478 76.0217L51.2858 75.8424C51.2234 76.0027 51.1936 75.9728 51.2234 75.9619C51.299 75.9119 51.3811 75.8725 51.4674 75.8451C51.6907 75.7748 51.9223 75.7346 52.1562 75.7256C52.6645 75.7067 53.1724 75.7737 53.6585 75.9239C54.6967 76.2666 55.6796 76.7589 56.5762 77.3853L56.6142 77.3337Z" fill="#7FBA6D"/>
<path d="M35.2705 23.1522C37.7381 21.8374 39.8207 20.8948 41.3582 20.2483C42.8957 19.6018 44.1051 19.1618 44.5064 19.0151C45.5558 18.6239 46.6405 18.249 47.7252 17.9529V17.9258C43.44 19.0554 39.2991 20.676 35.3844 22.7556C34.7278 22.1438 34.0131 21.5979 33.2503 21.1257C32.5017 20.6666 31.713 20.2765 30.8939 19.9604C29.2579 19.3148 27.5189 18.9707 25.7607 18.9444C27.4881 19.0787 29.1846 19.4782 30.7909 20.1288C31.594 20.4517 32.3649 20.8501 33.0931 21.3186" fill="#DD3A18"/>
<path d="M33.9096 45.2856C33.5338 45.462 33.2543 45.7947 33.1449 46.1956C33.045 46.5974 33.1084 47.0224 33.3211 47.3773L33.8282 48.4639C34.0126 48.8143 34.0994 49.2217 34.4275 49.5178C34.7375 49.803 35.1566 49.938 35.5745 49.8873C35.7786 49.8594 35.9755 49.7931 36.1548 49.6917L36.6971 49.4336L38.8665 48.3987L38.8448 48.3498C38.438 48.4231 38.0557 48.5535 37.6598 48.654L36.5209 49.0506C36.3284 49.1131 36.1385 49.181 35.9541 49.2598L35.8159 49.3168L35.7155 49.3494C35.6506 49.3651 35.5843 49.3742 35.5176 49.3766C35.2539 49.397 34.9942 49.303 34.8044 49.1185C34.7012 49.0251 34.6197 48.9101 34.5658 48.7817L34.2946 48.2384C34.1021 47.888 33.9231 47.5267 33.7143 47.1844C33.6214 47.0416 33.5432 46.8896 33.4811 46.7308C33.4279 46.5802 33.4084 46.4198 33.4242 46.2608C33.4575 45.8907 33.6432 45.5511 33.9367 45.3237L33.9096 45.2856Z" fill="#A4CD8C"/>
<path d="M38.8663 48.4041C39.2414 48.2269 39.5206 47.8946 39.631 47.4941C39.73 47.0912 39.6656 46.6654 39.4521 46.3098L38.9477 45.2232C38.7633 44.8701 38.6603 44.4626 38.3457 44.1665C38.0357 43.8814 37.6166 43.7464 37.1987 43.7971C36.9954 43.828 36.799 43.8942 36.6184 43.9927L36.0761 44.2643L33.9067 45.2993L33.9311 45.3482C34.3379 45.2721 34.7175 45.1444 35.1134 45.0412L36.255 44.6473C36.4448 44.5821 36.6347 44.517 36.8191 44.4382L36.9573 44.3811L37.0577 44.3485C37.1225 44.3322 37.1888 44.3222 37.2556 44.3187C37.6658 44.3007 38.0449 44.537 38.2101 44.9135L38.4813 45.4568C38.6738 45.81 38.8528 46.1685 39.0616 46.5135C39.1542 46.657 39.2332 46.8089 39.2975 46.9672C39.3498 47.1179 39.3683 47.2784 39.3517 47.4371C39.32 47.8078 39.134 48.148 38.8392 48.3743L38.8663 48.4041Z" fill="#A4CD8C"/>
<path d="M18.835 46.1357C19.258 46.209 19.6756 46.3883 20.4159 46.9805C20.9582 47.4015 22.0727 48.3006 22.1052 49.0449C22.1084 49.2128 22.1002 49.3807 22.0808 49.5475C22.0524 49.7653 22.0034 49.98 21.9344 50.1885C21.8145 50.5598 21.6704 50.9227 21.5033 51.2751L21.3378 51.6065C20.886 51.5643 20.4504 51.4163 20.0661 51.1746C19.7907 51.0184 19.5492 50.8088 19.3556 50.558C19.2646 50.4321 19.1865 50.2974 19.1224 50.156C19.0347 49.9661 18.9735 49.765 18.9407 49.5583C18.9093 49.3376 18.9093 49.1135 18.9407 48.8928C19.0519 47.9203 19.1523 47.991 19.1306 47.665C19.0691 47.1718 18.8634 46.7077 18.5394 46.3312C18.4753 46.2461 18.4036 46.167 18.3252 46.0949C18.4961 46.0909 18.6669 46.1046 18.835 46.1357Z" fill="#7FBA6D"/>
<path d="M20.7962 51.4352C20.2255 51.3302 19.7137 51.0177 19.359 50.5578C19.0997 50.2018 18.949 49.7782 18.9251 49.3381C18.9316 48.9446 18.9752 48.5526 19.0553 48.1674C19.0824 48.0152 19.096 47.9555 19.1041 47.9093C19.161 47.5643 19.0553 47.0074 18.3096 46.0947L18.5807 46.3066C18.8455 46.4808 19.074 46.705 19.2532 46.9667C19.4442 47.2608 19.5503 47.602 19.5596 47.9528C19.5564 48.2153 19.5383 48.4774 19.5054 48.7378C19.4699 49.041 19.4699 49.3473 19.5054 49.6505C19.5557 49.9261 19.6668 50.1869 19.8308 50.4138C20.0318 50.6531 20.2698 50.8586 20.5358 51.0223C20.6823 51.1283 20.807 51.207 20.8938 51.2614L20.7962 51.4352Z" fill="white"/>
<path d="M53.276 27.5473C53.6593 27.531 54.0415 27.5987 54.3959 27.7456C58.0241 29.1717 59.5237 36.4055 60.5026 37.9919C60.5026 37.9919 62.0265 41.2163 60.5975 43.7399C59.1684 46.2634 57.5035 46.7279 57.5035 46.7279C57.5035 46.7279 54.3607 44.9976 52.8937 42.6343C52.2781 41.6537 53.9404 39.2768 54.7078 38.288C54.7078 38.288 53.3709 34.61 49.8892 32.8824C49.8892 32.8824 49.9298 32.6107 50.0166 32.1761C50.3122 30.7554 51.2043 27.6723 53.276 27.5473Z" fill="#98C883"/>
<path d="M53.1841 27.493C53.7584 27.4474 54.3333 27.5741 54.8355 27.857C55.3366 28.127 55.79 28.4775 56.1778 28.8946C56.9377 29.735 57.5707 30.6822 58.0569 31.7061C58.5539 32.7189 58.9975 33.7571 59.3856 34.8164L59.9714 36.4001C60.1465 36.9267 60.3642 37.4382 60.6222 37.9294C60.9692 38.7397 61.1923 39.5978 61.2838 40.4747C61.3883 41.3462 61.2956 42.2301 61.0126 43.0608C60.6814 43.869 60.2125 44.6135 59.627 45.2611C59.0664 45.9354 58.3469 46.4591 57.5336 46.785L57.5038 46.679C58.1985 46.2207 58.7882 45.6198 59.2338 44.9161C59.4558 44.575 59.6594 44.2222 59.8439 43.8594L59.9741 43.5877L60.0392 43.4383L60.088 43.3134C60.1542 43.1437 60.2113 42.9705 60.2588 42.7945C60.4236 42.0666 60.442 41.3131 60.313 40.578C60.2519 40.1975 60.1612 39.8224 60.0419 39.4561C59.9357 39.0975 59.8062 38.7464 59.6541 38.4048L59.7056 38.4999C59.5338 38.213 59.3842 37.9133 59.2582 37.6035C59.1416 37.3318 59.0331 37.0602 58.9328 36.7886L58.3905 35.1967C58.0054 34.1591 57.6746 33.1132 57.2353 32.1299C56.8471 31.1415 56.3409 30.2039 55.7276 29.3374C55.423 28.9161 55.0574 28.5426 54.643 28.2291C54.5379 28.1474 54.4274 28.073 54.3121 28.0064C54.2018 27.9401 54.0877 27.8803 53.9705 27.8271C53.7248 27.711 53.4602 27.6402 53.1895 27.6179L53.1841 27.493Z" fill="#7FBA6D"/>
<path d="M49.895 32.8687C50.0486 31.7648 50.3553 30.6877 50.8061 29.6688C51.0405 29.1595 51.3545 28.6909 51.7362 28.2807C52.1186 27.8615 52.636 27.5903 53.1978 27.5146V27.569C52.7329 27.8037 52.334 28.151 52.0372 28.5795C51.748 28.9962 51.4983 29.4391 51.2915 29.9024C51.061 30.3696 50.8658 30.8613 50.6461 31.3584C50.4265 31.8555 50.215 32.3607 49.9411 32.8769L49.895 32.8687Z" fill="#7FBA6D"/>
<path d="M55.063 38.5051C54.6861 38.7088 54.3444 39.0131 53.8292 39.8063C53.4577 40.3767 52.674 41.5828 52.8774 42.2999C52.9272 42.4605 52.9879 42.6175 53.0591 42.7699C53.1548 42.9678 53.2692 43.1561 53.4007 43.3322C53.6316 43.6402 53.8806 43.9341 54.1464 44.2123C54.2088 44.2748 54.2983 44.3671 54.4176 44.4839C54.8317 44.3034 55.1983 44.0291 55.4887 43.6826C55.8158 43.3377 56.0182 42.893 56.0636 42.4194C56.0858 42.2114 56.0804 42.0013 56.0473 41.7947C56.0074 41.5751 55.9352 41.3628 55.8331 41.1645C55.4236 40.2762 55.3504 40.3767 55.2664 40.0589C55.1707 39.5711 55.2197 39.0658 55.4074 38.6056C55.4413 38.5052 55.484 38.4079 55.5348 38.3149C55.3715 38.3622 55.2134 38.4259 55.063 38.5051Z" fill="#7FBA6D"/>
<path d="M54.8757 44.1554C55.3819 43.8731 55.7677 43.4152 55.9604 42.8678C56.0938 42.4476 56.1032 41.9976 55.9875 41.5721C55.8558 41.2011 55.6906 40.8428 55.494 40.5018C55.4207 40.366 55.3882 40.3144 55.3692 40.2737C55.2038 39.9613 55.1306 39.4017 55.5482 38.2988L55.3584 38.5868C55.1656 38.8362 55.022 39.1202 54.9354 39.4234C54.8469 39.7638 54.8544 40.122 54.9571 40.4584C55.0113 40.6675 55.0357 40.6349 55.2526 41.1837C55.3838 41.4598 55.4812 41.7507 55.5428 42.0502C55.581 42.3235 55.5578 42.6019 55.475 42.8651C55.3591 43.1558 55.198 43.4262 54.9977 43.6665C54.892 43.8132 54.7998 43.9381 54.7266 44.006L54.8757 44.1554Z" fill="white"/>
<path d="M33.9745 15.6602C33.8512 16.3075 33.5106 16.8932 33.0091 17.3199C32.5283 17.5525 32.0306 17.7487 31.5204 17.9066C30.7361 18.2274 29.9171 18.4553 29.08 18.5857L28.9064 18.6075C27.0977 18.8166 25.8477 18.7976 25.8477 18.8628C25.8477 18.928 26.7398 18.9144 27.9356 19.1345C28.5714 19.2513 29.1984 19.412 29.8121 19.6153C30.4073 19.7553 30.9896 19.9452 31.553 20.183C31.553 20.183 32.8112 20.7263 35.4957 22.7038L36.7295 21.9459C37.0007 21.7884 37.4373 21.5629 37.9633 21.3157C38.7951 20.9261 39.6521 20.5931 40.5286 20.3188C42.2911 19.7755 47.446 18.1457 47.4026 17.9718C47.3728 17.8496 44.6584 18.3277 42.2288 18.0941C41.5798 18.0117 40.9642 17.7587 40.4445 17.3606C40.0059 17.0356 39.637 16.6254 39.3598 16.1545C37.6189 17.0208 35.5394 16.8317 33.9826 15.6656L33.9745 15.6602Z" fill="#F0C09C"/>
<path d="M29.1506 18.2761C28.8704 18.3413 28.5667 18.4065 28.2395 18.4717C27.3474 18.651 26.9027 18.7434 26.5068 18.7787C26.1981 18.8018 25.8912 18.8435 25.5875 18.9036C25.4194 18.9389 25.2838 18.9715 25.1943 18.9933C27.1133 19.0816 29.0094 19.4476 30.8237 20.0798C31.5085 20.3025 32.1734 20.5823 32.8114 20.9165C33.3086 21.1866 33.7894 21.4859 34.2513 21.8129C34.7448 22.1498 35.1488 22.4594 35.4471 22.7012C35.0392 21.832 34.5275 21.0156 33.9232 20.27C33.1797 19.3524 32.3053 18.5497 31.3281 17.8877" fill="#D95214"/>
<path d="M44.5584 17.9908C45.898 17.9745 46.5895 17.9609 46.9772 17.9554L47.7392 17.9392C45.4858 18.6726 43.1294 19.5147 40.6889 20.4817C38.8585 21.2097 37.1095 21.9567 35.4473 22.7092C36.2799 21.8183 37.1871 21.0004 38.1589 20.2644C38.7508 19.8082 39.3702 19.3891 40.0137 19.0094C40.7236 18.5915 41.4642 18.2282 42.2291 17.9229" fill="#D95214"/>
<path d="M40.1846 15.6278C40.1806 16.1078 40.3133 16.5789 40.5669 16.986C40.8512 17.4354 41.2683 17.7848 41.7601 17.9857C40.632 18.5469 39.4512 18.9946 38.2349 19.3222C37.6356 19.4852 37.0635 19.5938 36.5238 19.7025C35.3529 19.6896 34.1986 19.4237 33.1397 18.9229C32.5576 18.6471 32.0113 18.3014 31.5127 17.8933C32.3046 17.3966 32.8092 16.5483 32.8685 15.6143C33.2075 16.4699 35.3307 17.4098 36.5184 17.4098C37.7061 17.4098 39.8429 16.4835 40.1846 15.6278Z" fill="#EFBF9B"/>
<g style="mix-blend-mode:multiply">
<path d="M40.2874 16.5081C39.956 16.8408 39.5767 17.1219 39.1621 17.342C38.7728 17.5596 38.3621 17.7362 37.9364 17.869C37.4868 18.0216 37.0171 18.1067 36.5426 18.1216C36.0755 18.113 35.6126 18.0314 35.1705 17.8799C34.7447 17.7452 34.3317 17.5724 33.9367 17.3637C33.5144 17.1507 33.1297 16.8699 32.7979 16.5325L32.9172 15.6062C32.9845 15.7934 33.094 15.9626 33.2371 16.1006C33.5331 16.3778 33.8685 16.6094 34.2323 16.7879C34.9515 17.1716 35.7433 17.3993 36.5562 17.4561C37.3694 17.4029 38.1617 17.176 38.8801 16.7906C39.2448 16.6122 39.5811 16.3806 39.878 16.1033C40.0358 15.9455 40.1547 15.753 40.2251 15.541L40.2874 16.5081Z" fill="#DEC4AB"/>
</g>
<path d="M42.0065 8.69291C41.8202 9.24687 41.567 9.77596 41.2526 10.2684C41.2526 10.1462 41.2743 10.0185 41.2825 9.89085C41.3557 9.46981 41.4099 9.07593 41.437 8.69835C41.578 7.00873 41.2093 5.81351 39.7612 5.24306L40.0676 5.30554C40.7937 5.50126 41.5664 5.42095 42.237 5.08008C42.6708 5.60163 42.5136 7.22333 42.0065 8.69291Z" fill="#472A19"/>
<path d="M31.4289 8.58425C31.5303 8.7535 31.6426 8.91592 31.7652 9.07049C31.761 9.34382 31.7846 9.61687 31.8357 9.88541C31.8872 10.5591 31.9468 11.1485 32.0092 11.6755C30.7266 12.0422 30.2927 8.38867 31.4289 8.58425Z" fill="#CF9B6F"/>
<path d="M39.7588 5.22949C37.4349 4.74869 34.0182 4.01254 32.882 5.82167C32.2388 6.64262 31.8605 7.64036 31.7974 8.68206C31.8272 9.49699 31.8977 10.6895 32.0685 12.1075C32.3994 14.7696 32.7329 15.2965 32.882 15.503C33.7145 16.6928 35.2086 17.3203 36.5753 17.3203C38.023 17.3291 39.3906 16.6561 40.2686 15.503C40.8651 14.6473 40.9465 13.6558 41.1092 11.681C41.1903 10.6807 41.2066 9.67627 41.158 8.67391H41.3126H41.4346C41.5756 6.99516 41.2177 5.80266 39.7588 5.22949Z" fill="#EDCBB4"/>
<path d="M31.778 8.67391C31.778 8.81516 31.778 8.94555 31.778 9.07051C31.6554 8.91594 31.5431 8.75352 31.4417 8.58427C30.4764 6.97343 30.2079 4.41728 31.3332 4.04785C31.7373 4.72787 32.2631 5.32737 32.8843 5.81624C32.2341 6.63399 31.8482 7.63084 31.778 8.67391Z" fill="#472A19"/>
<path d="M38.9181 1.2878C40.5451 2.71935 41.3397 4.5312 43.0968 4.19437C42.8989 4.56563 42.5949 4.86926 42.2237 5.06634C41.5531 5.40721 40.7804 5.48752 40.0543 5.2918L39.7479 5.22932C37.424 4.74852 34.0073 4.01237 32.8712 5.8215C32.2499 5.33263 31.7241 4.73313 31.3201 4.05311C30.3358 2.46944 29.8775 0.535351 31.537 0.339769C33.9667 0.0491118 37.3101 -0.141037 38.9181 1.2878Z" fill="#78412B"/>
<path d="M42.0069 8.69287C42.655 9.2606 42.1967 11.9526 41.1094 11.6809C41.1582 11.2545 41.2043 10.7818 41.2504 10.2602C41.5651 9.77046 41.8192 9.24414 42.0069 8.69287Z" fill="#CF9B6F"/>
<path d="M31.4554 8.59489C31.2996 8.59786 31.1603 8.69268 31.1002 8.83665C31.0347 8.97545 30.9978 9.12604 30.9917 9.27943C30.9669 9.60028 30.987 9.92303 31.0514 10.2383C31.095 10.5554 31.1864 10.8641 31.3225 11.1538C31.4255 11.4567 31.7108 11.6593 32.0303 11.6563V11.678C31.8612 11.7297 31.6783 11.708 31.5259 11.6183C31.3857 11.5213 31.269 11.3941 31.1842 11.2461C31.0102 10.9479 30.8925 10.62 30.8371 10.2791C30.7802 9.93826 30.7802 9.59035 30.8371 9.24955C30.863 9.07692 30.9259 8.91197 31.0215 8.76602C31.1209 8.61586 31.3003 8.53989 31.4771 8.57316L31.4554 8.59489Z" fill="#E3B382"/>
<path d="M42.0311 8.66846C42.2383 8.90863 42.3486 9.21766 42.3402 9.53499C42.3552 9.84783 42.3278 10.1612 42.2589 10.4667C42.1931 10.7733 42.0698 11.0646 41.8955 11.3251C41.7344 11.6126 41.4016 11.7571 41.082 11.6782V11.6565C41.3756 11.6674 41.6454 11.4956 41.7599 11.2246C41.8986 10.9701 41.9956 10.695 42.0474 10.4097C42.1188 10.1241 42.1606 9.8319 42.1721 9.53771C42.1884 9.39239 42.1884 9.24569 42.1721 9.10037C42.162 8.9514 42.1165 8.80702 42.0393 8.67932L42.0311 8.66846Z" fill="#E3B382"/>
<path d="M31.7808 8.67665C31.8093 8.15582 31.9153 7.64218 32.0953 7.15273C32.2888 6.66823 32.5529 6.21511 32.879 5.80811L32.9061 5.82984C32.7696 6.31982 32.6048 6.80144 32.4126 7.27226C32.2418 7.75755 32.0416 8.23199 31.8133 8.69294L31.7808 8.67665Z" fill="#DFC5AC"/>
<path d="M31.7754 8.67365C31.6439 8.41595 31.5805 8.12889 31.591 7.83971C31.5966 7.56107 31.6498 7.28546 31.7482 7.02479C31.8493 6.76328 31.9952 6.5215 32.1794 6.31037C32.3672 6.08902 32.6066 5.91737 32.8763 5.81055L32.9115 5.84043C32.5977 6.25312 32.3481 6.71105 32.1713 7.19864C31.9808 7.67838 31.862 8.18363 31.8187 8.6981L31.7754 8.67365Z" fill="#4E3323"/>
<path d="M39.7804 5.20752C40.2104 5.35953 40.5948 5.61844 40.8976 5.95997C41.1875 6.31481 41.3809 6.73871 41.4589 7.19051C41.567 8.0898 41.522 9.00093 41.3261 9.88519H41.2827C41.213 9.43531 41.1687 8.98186 41.1498 8.52698C41.1284 8.10912 41.0832 7.69282 41.0142 7.28015C40.9531 6.89667 40.8207 6.52809 40.6238 6.19358C40.3858 5.83816 40.0961 5.52043 39.7642 5.25098L39.7804 5.20752Z" fill="#DFC5AC"/>
<path d="M39.7805 5.20752C40.2814 5.22217 40.7585 5.4248 41.1173 5.77525C41.4869 6.14296 41.7309 6.61839 41.8142 7.13346C41.8941 7.61072 41.8867 8.09853 41.7925 8.57316C41.71 9.03663 41.5525 9.48348 41.3261 9.89606H41.2827C41.4617 9.01724 41.491 8.11443 41.3695 7.22582C41.3017 6.78567 41.1204 6.37087 40.8435 6.02244C40.551 5.68337 40.178 5.42365 39.7588 5.26728L39.7805 5.20752Z" fill="#4E3323"/>
<path d="M31.3548 4.07462C31.21 4.23051 31.1246 4.43244 31.1135 4.64507C31.0945 4.83565 31.0945 5.02765 31.1135 5.21823C31.1406 5.41653 31.146 5.61483 31.1894 5.81585C31.2328 6.01686 31.2463 6.22331 31.2924 6.42704C31.3575 6.83722 31.4551 7.24197 31.5338 7.67931L31.8049 9.03752L31.7534 9.08098C31.4549 8.7203 31.2126 8.31641 31.0348 7.88304C30.859 7.45481 30.7273 7.00973 30.6416 6.55471C30.5536 6.09277 30.5371 5.62 30.5928 5.15304C30.62 4.91571 30.6908 4.68547 30.8016 4.47394C30.9173 4.25777 31.1114 4.09439 31.344 4.01758L31.3548 4.07462Z" fill="#593A29"/>
<path d="M42.2747 5.04736C42.573 5.43309 42.573 5.93563 42.573 6.38656C42.5022 7.7706 42.0682 9.11145 41.3148 10.2738L41.2578 10.2357C41.3066 9.72775 41.3771 9.29041 41.4585 8.8585C41.5398 8.42659 41.6347 8.01098 41.7296 7.59265C41.7866 7.38892 41.8327 7.17975 41.8815 6.97602C41.9303 6.77229 41.9764 6.56584 42.0415 6.36211C42.1066 6.15838 42.1472 5.95193 42.1852 5.74548C42.2439 5.53071 42.2623 5.30689 42.2394 5.08539L42.2747 5.04736Z" fill="#593A29"/>
<g style="mix-blend-mode:multiply">
<path d="M36.5178 17.4288C36.2603 17.416 36.0039 17.3861 35.7504 17.3391C35.4416 17.2811 35.1385 17.1956 34.8447 17.0838C34.3629 16.8879 33.9074 16.6323 33.4889 16.3232C33.3777 16.2353 33.2759 16.1361 33.1852 16.0271C33.0893 15.9361 33.0152 15.8247 32.9683 15.7011C32.957 15.675 32.9488 15.6477 32.9438 15.6196C33.0144 15.6957 33.1065 15.7935 33.215 15.8913C33.3731 16.038 33.5407 16.1741 33.7167 16.2987C33.9808 16.4859 34.2591 16.6521 34.5491 16.7958C35.2536 17.1297 36.0232 17.3032 36.8025 17.3038C37.5263 17.2703 38.2314 17.0625 38.858 16.698C39.2737 16.3979 39.6637 16.0635 40.024 15.6984C40.1379 15.5897 40.2301 15.4974 40.2952 15.4268C40.1975 15.5843 40.0864 15.75 39.9535 15.9239C39.8206 16.0977 39.7393 16.1955 39.6362 16.3042C38.788 17.0805 37.6654 17.4854 36.5178 17.4288Z" fill="#DFC5AC"/>
</g>
<g style="mix-blend-mode:multiply">
<path d="M41.0928 11.6807C41.1633 11.0858 41.2175 10.4882 41.269 9.89062H41.3368C41.3802 10.491 41.3775 11.0913 41.3639 11.6943L41.0928 11.6807Z" fill="#DFC5AC"/>
</g>
<path d="M43.1534 4.21076C43.0189 4.70984 42.7012 5.13963 42.2639 5.41413C41.8124 5.69842 41.2922 5.8543 40.759 5.86506C40.4998 5.87873 40.2398 5.86508 39.9834 5.82431L39.2974 5.7238C38.8445 5.64774 38.3971 5.56082 37.9416 5.49562C37.486 5.43043 37.0576 5.34079 36.621 5.28374C36.1896 5.2195 35.7551 5.17779 35.3194 5.15879C34.4679 5.13977 33.6165 5.1941 32.9114 5.83518L32.8545 5.79986C33.1108 5.40252 33.4842 5.09492 33.9229 4.91974C34.3562 4.7494 34.8139 4.64945 35.2787 4.62365C36.2062 4.58572 37.135 4.65316 38.0473 4.82467C38.5029 4.90344 38.9557 4.99852 39.4031 5.09631C39.8482 5.21 40.3016 5.28812 40.759 5.32992C41.2146 5.35756 41.6702 5.2756 42.0877 5.09088C42.502 4.89939 42.8455 4.58191 43.0693 4.18359L43.1534 4.21076Z" fill="#DFC5AC"/>
<path d="M43.1617 4.21606C42.9364 4.63772 42.5818 4.97576 42.1503 5.18039C41.7212 5.38263 41.249 5.47592 40.7755 5.45203C40.3113 5.41787 39.8506 5.3461 39.3979 5.23743C38.9478 5.14779 38.495 5.06086 38.0421 4.9848C37.1428 4.80335 36.2258 4.72407 35.3088 4.74848C34.8525 4.76735 34.4021 4.85905 33.9746 5.02012C33.5501 5.18149 33.1869 5.47222 32.9361 5.85134L32.8574 5.80516C33.0007 5.29093 33.3356 4.85143 33.7929 4.57734C34.2431 4.30256 34.7422 4.11804 35.2627 4.03406C36.2369 3.88845 37.2285 3.90681 38.1967 4.08839C38.6631 4.18075 39.1241 4.28125 39.5742 4.39534L40.2413 4.59092C40.4311 4.64254 40.6182 4.69415 40.808 4.73489C41.184 4.80962 41.5709 4.80962 41.9469 4.73489C42.3696 4.65101 42.762 4.45494 43.0831 4.16716L43.1617 4.21606Z" fill="#804E38"/>
<path d="M32.8522 5.87306C32.1826 5.36218 31.6166 4.72784 31.1846 4.00417C30.7173 3.29253 30.4297 2.47775 30.3467 1.63002C30.2981 1.17034 30.4937 0.71882 30.8619 0.440226C31.0525 0.319146 31.2672 0.241268 31.491 0.212047L32.1092 0.138704C32.9351 0.0490156 33.7651 0.00277297 34.5958 0.000166799C35.4323 -0.00444754 36.2666 0.0866907 37.0824 0.271809C37.918 0.443287 38.6853 0.855929 39.2897 1.45888C39.8917 2.03748 40.4042 2.69757 40.9818 3.27345C41.2581 3.56733 41.5839 3.81009 41.9444 3.99058C42.3084 4.15997 42.7166 4.20943 43.1104 4.13184L43.1348 4.26766C42.7089 4.48577 42.2182 4.54082 41.7546 4.4225C41.2931 4.29568 40.8585 4.08581 40.472 3.80315C39.7398 3.25987 39.1378 2.70029 38.544 2.24393L38.3135 2.07551C38.243 2.02933 38.1915 1.99945 38.1264 1.96414C37.9984 1.89269 37.8662 1.82918 37.7305 1.77399C37.4253 1.65561 37.1079 1.57179 36.7841 1.52408C36.0602 1.39565 35.3253 1.34013 34.5904 1.35838C33.8257 1.33664 33.0393 1.38011 32.2421 1.429L31.6672 1.45345C31.575 1.45345 31.5289 1.45345 31.5289 1.45345C31.5289 1.45345 31.5479 1.39369 31.5289 1.40727C31.51 1.42085 31.4584 1.49691 31.4395 1.61644C31.4136 1.92894 31.4383 2.24356 31.5127 2.54817C31.5893 2.91917 31.6982 3.28275 31.8381 3.63473C32.1075 4.39468 32.4798 5.114 32.9444 5.77255L32.8522 5.87306Z" fill="#84533E"/>
<g style="mix-blend-mode:multiply">
<path fill-rule="evenodd" clip-rule="evenodd" d="M40.2168 9.16804C40.2982 9.28188 40.3401 9.41926 40.3361 9.5592C40.3416 9.59452 40.4039 9.61896 40.5341 9.64613C40.2973 9.74117 40.0534 9.81746 39.8047 9.87431C39.6952 9.89442 39.5848 9.90892 39.4738 9.91777C39.3059 9.92873 39.1374 9.92873 38.9695 9.91777C38.6428 9.86467 38.3297 9.75138 38.0459 9.58465C38.106 9.60809 38.166 9.6271 38.2102 9.64069C38.4233 9.71179 38.6449 9.75382 38.8692 9.76564C39.261 9.78879 39.6541 9.766 40.0406 9.69773C40.0667 9.66061 40.106 9.63879 40.1405 9.61961C40.1742 9.60089 40.2034 9.58468 40.2115 9.55919C40.209 9.5503 40.209 9.54092 40.2115 9.53203C40.2203 9.52257 40.2303 9.51435 40.2413 9.50758C40.1734 9.31612 40.0332 9.15905 39.8508 9.07024C39.5781 8.97701 39.2895 8.93915 39.0021 8.95887C38.8586 8.96809 38.7167 8.99361 38.579 9.03492C38.3366 9.09412 38.1031 9.18548 37.8848 9.30657C37.8469 9.3283 37.8089 9.36089 37.8089 9.39892C37.8084 9.41051 37.8108 9.42187 37.8158 9.43295C37.7971 9.41915 37.7785 9.40509 37.7601 9.39078L37.7031 9.32016L37.9743 9.19249L38.2455 9.05666C38.7232 8.82169 39.271 8.77234 39.783 8.91813C39.9526 8.94734 40.1063 9.0359 40.2168 9.16804ZM37.8158 9.43295C37.89 9.48757 37.9669 9.53819 38.0459 9.58465C37.9446 9.54508 37.8429 9.49291 37.8158 9.43295Z" fill="#F9CFB2"/>
</g>
<path d="M38.1503 9.18982C38.4621 9.04267 38.797 8.95077 39.1401 8.91818C39.2214 8.91818 39.2919 8.91818 39.3895 8.91818C39.6627 8.89985 39.9308 8.99859 40.1271 9.18982C40.2144 9.32831 40.2674 9.48571 40.2817 9.6489C39.8752 9.80554 39.4385 9.86777 39.0045 9.8309C38.6163 9.8019 38.2385 9.69178 37.8954 9.50764C37.928 9.54024 37.8141 9.44788 37.8032 9.40714" fill="white"/>
<path d="M40.1897 9.5238C40.1341 9.2135 39.8672 8.98593 39.5525 8.98051C39.1461 8.93122 38.7338 8.97773 38.3485 9.11634C38.278 9.1598 37.9309 9.44231 38.0123 9.51022C38.0834 9.54789 38.1578 9.57881 38.2346 9.60257C38.4513 9.65597 38.6715 9.6941 38.8936 9.71666C39.3003 9.77914 39.9701 9.79544 40.1897 9.5238Z" fill="white"/>
<path d="M38.6985 9.3148C38.6809 9.43758 38.7136 9.5623 38.7892 9.66054C38.8648 9.75879 38.9768 9.82221 39.0999 9.83636C39.3596 9.87217 39.6004 9.69367 39.6422 9.43433C39.6598 9.31155 39.6272 9.18683 39.5516 9.08858C39.476 8.99034 39.3639 8.92692 39.2409 8.91277C38.9811 8.87696 38.7403 9.05546 38.6985 9.3148Z" fill="#1A0909"/>
<path d="M39.2327 8.94246C39.3436 8.95793 39.4438 9.0171 39.511 9.10686C39.5782 9.19662 39.6069 9.30954 39.5906 9.42055C39.548 9.64926 39.3359 9.80591 39.1052 9.77912C38.9928 9.76564 38.8906 9.7073 38.8217 9.61731C38.7528 9.52732 38.723 9.41329 38.7392 9.30103C38.7819 9.06879 38.999 8.91102 39.2327 8.94246Z" fill="#5C8AC7"/>
<path d="M39.4601 9.32004C39.4692 9.3939 39.4477 9.46827 39.4005 9.52578C39.3534 9.58328 39.2847 9.61889 39.2106 9.62428C39.0555 9.64029 38.9159 9.52938 38.8961 9.37437C38.887 9.30051 38.9085 9.22615 38.9557 9.16864C39.0028 9.11113 39.0715 9.07553 39.1456 9.07014C39.3003 9.0556 39.439 9.16579 39.4601 9.32004Z" fill="#060508"/>
<path d="M39.3196 9.168C39.3314 9.22433 39.3815 9.26429 39.4389 9.26307C39.4653 9.26271 39.4902 9.25072 39.5069 9.2303C39.5236 9.20988 39.5305 9.18311 39.5257 9.15713C39.5151 9.09972 39.4647 9.05837 39.4064 9.05934C39.3798 9.06049 39.355 9.07309 39.3384 9.09392C39.3217 9.11474 39.3149 9.14175 39.3196 9.168Z" fill="#FFFAE4"/>
<path d="M38.9016 9.55114C38.9796 9.6622 39.1169 9.71493 39.249 9.68453C39.3812 9.65412 39.4818 9.54663 39.5035 9.4126C39.5251 9.42563 39.5443 9.44215 39.5605 9.46149C39.5251 9.62052 39.3938 9.74011 39.2324 9.7603C39.0852 9.78401 38.9377 9.71919 38.8555 9.5946C38.8555 9.5946 38.8961 9.5457 38.9016 9.55114Z" fill="#94BCE4"/>
<path d="M38.8586 9.18701C38.8107 9.28754 38.8107 9.40431 38.8586 9.50483H38.8125C38.757 9.40016 38.7756 9.27154 38.8586 9.18701V9.18701Z" fill="#94BCE4"/>
<g style="mix-blend-mode:multiply">
<path fill-rule="evenodd" clip-rule="evenodd" d="M33.4005 9.55395C33.1603 9.46638 32.9273 9.36011 32.7036 9.23613C32.8121 9.23613 32.8826 9.20896 32.8744 9.1655C32.8869 9.12477 32.8947 9.09018 32.9018 9.05879C32.9227 8.96666 32.9374 8.90207 33.0426 8.79063C33.1673 8.67337 33.3299 8.60492 33.5008 8.59777C34.0279 8.51655 34.5663 8.63468 35.0112 8.92917L35.2824 9.09759L35.5536 9.26057L35.4912 9.32305C35.4676 9.33705 35.4438 9.35067 35.4198 9.3639C35.424 9.35519 35.4262 9.34611 35.4262 9.33663C35.4219 9.29534 35.3989 9.25831 35.3639 9.23612C35.1647 9.08467 34.9457 8.96128 34.7131 8.86941C34.5815 8.80989 34.443 8.76701 34.3009 8.74174C34.0192 8.68331 33.7285 8.68331 33.4467 8.74174C33.2507 8.80587 33.0892 8.94707 32.9993 9.1329L33.0264 9.16006C33.0281 9.16904 33.0281 9.17825 33.0264 9.18723V9.19538C33.0264 9.21461 33.0488 9.23202 33.0772 9.25419C33.109 9.27899 33.1485 9.30975 33.1728 9.35565C33.5476 9.47017 33.9343 9.54127 34.3253 9.56753C34.5503 9.5827 34.7763 9.569 34.9978 9.52678C35.0357 9.51994 35.086 9.51055 35.1386 9.49819C34.848 9.61653 34.5378 9.68268 34.2221 9.69248C34.0547 9.68584 33.8879 9.66677 33.7232 9.63544C33.6142 9.61436 33.5065 9.58715 33.4005 9.55395ZM35.1386 9.49819C35.2347 9.45908 35.3286 9.41426 35.4198 9.3639C35.3897 9.42707 35.2579 9.47023 35.1386 9.49819Z" fill="#F9CFB2"/>
</g>
<path d="M35.1082 9.07875C34.8189 8.89718 34.5007 8.76671 34.1673 8.69302C34.0887 8.67944 34.0181 8.66857 33.9205 8.66042C33.651 8.60903 33.3724 8.67633 33.1558 8.84514C33.051 8.97056 32.9784 9.11977 32.9443 9.27977C33.3218 9.48137 33.7399 9.59467 34.1673 9.61117C34.5575 9.63134 34.9475 9.56838 35.3116 9.42645C35.3517 9.40506 35.3868 9.37544 35.4146 9.33953" fill="white"/>
<path d="M35.1082 9.07875C34.8189 8.89718 34.5007 8.76671 34.1673 8.69302C34.0887 8.67944 34.0181 8.66857 33.9205 8.66042C33.651 8.60903 33.3724 8.67633 33.1558 8.84514C33.051 8.97056 32.9784 9.11977 32.9443 9.27977C33.3218 9.48137 33.7399 9.59467 34.1673 9.61117C34.5575 9.63134 34.9475 9.56838 35.3116 9.42645C35.3517 9.40506 35.3868 9.37544 35.4146 9.33953" fill="white"/>
<path d="M33.9396 9.13032C33.9426 9.25489 33.8948 9.37532 33.8074 9.46394C33.7199 9.55256 33.6003 9.60177 33.4759 9.60026C33.2156 9.60041 33.002 9.39369 32.9932 9.13303C32.9911 9.00915 33.0387 8.88959 33.1253 8.80122C33.212 8.71285 33.3305 8.66308 33.4542 8.6631C33.7156 8.66148 33.9308 8.86861 33.9396 9.13032Z" fill="#1A0909"/>
<path d="M33.4573 8.69291C33.3437 8.69139 33.2344 8.7363 33.1546 8.81729C33.0748 8.89827 33.0314 9.00833 33.0343 9.1221C33.0431 9.36025 33.2384 9.54874 33.4763 9.54858C33.5885 9.54932 33.6962 9.50482 33.7753 9.42511C33.8544 9.3454 33.8981 9.23718 33.8966 9.12482C33.8908 8.88559 33.6962 8.6943 33.4573 8.69291Z" fill="#5C8AC7"/>
<path d="M33.1832 9.04348C33.1655 9.11527 33.1777 9.19121 33.2171 9.25375C33.2566 9.3163 33.3197 9.36004 33.392 9.37488C33.5446 9.41084 33.6977 9.31781 33.7364 9.16572C33.7541 9.09354 33.7415 9.01725 33.7015 8.95463C33.6616 8.89201 33.5977 8.84853 33.5249 8.83432C33.3731 8.79849 33.2207 8.89176 33.1832 9.04348Z" fill="#060508"/>
<path d="M33.354 8.90738C33.3361 8.96261 33.2812 8.99698 33.2238 8.98888C33.1974 8.98536 33.174 8.97026 33.1598 8.94769C33.1457 8.92511 33.1423 8.8974 33.1506 8.87207C33.1685 8.81684 33.2234 8.78247 33.2808 8.79058C33.3071 8.7941 33.3306 8.80919 33.3447 8.83177C33.3589 8.85434 33.3623 8.88206 33.354 8.90738Z" fill="#FFFAE4"/>
<path d="M33.7064 9.34204C33.6146 9.44093 33.4724 9.47478 33.3461 9.42783C33.2197 9.38088 33.134 9.26236 33.1288 9.12744C33.105 9.13573 33.0836 9.14972 33.0664 9.16819C33.0808 9.33093 33.1959 9.46695 33.3538 9.50774C33.497 9.54783 33.6503 9.50122 33.747 9.38822C33.747 9.38822 33.7145 9.33389 33.7064 9.34204Z" fill="#94BCE4"/>
<path d="M33.7989 8.9834C33.8287 9.09128 33.8088 9.20685 33.7447 9.2985L33.7853 9.31752C33.8659 9.22246 33.8714 9.08469 33.7989 8.9834Z" fill="#94BCE4"/>
<g style="mix-blend-mode:multiply">
<path fill-rule="evenodd" clip-rule="evenodd" d="M40.348 9.45077C40.351 9.48194 40.3544 9.51626 40.361 9.55674C40.3665 9.58933 40.4397 9.61378 40.559 9.64095C40.3216 9.73642 40.0767 9.81184 39.8268 9.86641C39.7174 9.88585 39.6069 9.89945 39.496 9.90715C39.329 9.91893 39.1614 9.91893 38.9944 9.90715C38.6619 9.85308 38.3437 9.73629 38.0564 9.564C38.1177 9.58909 38.1801 9.60989 38.2262 9.6253C38.2283 9.626 38.2304 9.62669 38.2324 9.62737C38.4468 9.69732 38.6691 9.7402 38.8941 9.75504C39.2857 9.77773 39.6785 9.75678 40.0655 9.69256C40.0921 9.65476 40.1323 9.63284 40.1673 9.61377C40.2002 9.59584 40.2285 9.58044 40.2363 9.55674V9.53229C40.2426 9.52151 40.2521 9.51296 40.2635 9.50784C40.2004 9.31187 40.0604 9.15006 39.8757 9.05963C39.6044 8.96417 39.3165 8.92535 39.0297 8.94555C38.8855 8.95416 38.7427 8.97876 38.6039 9.01889C38.3616 9.07824 38.1281 9.16959 37.9097 9.29053C37.8718 9.31498 37.8338 9.34486 37.8338 9.38561C37.8332 9.39748 37.836 9.40912 37.8415 9.4205C37.8225 9.40642 37.8036 9.39207 37.785 9.37745L37.728 9.30683L37.9992 9.17915L38.2704 9.04605C38.7497 8.81281 39.2979 8.76446 39.8106 8.91023C39.9795 8.94099 40.1322 9.03044 40.2417 9.16286C40.3319 9.28808 40.3384 9.35435 40.348 9.45077ZM37.8415 9.4205C37.9109 9.47191 37.9826 9.51978 38.0564 9.564C37.9612 9.52512 37.8684 9.47592 37.8415 9.4205Z" fill="#F9CFB2"/>
</g>
<path d="M38.1752 9.17662C38.4877 9.0288 38.8236 8.93687 39.1677 8.90498C39.2463 8.90498 39.3195 8.90498 39.4172 8.90498C39.6895 8.88674 39.9568 8.98552 40.152 9.17662C40.2393 9.31493 40.2914 9.47255 40.3039 9.63569C39.8984 9.79249 39.4623 9.85383 39.0294 9.81498C38.6423 9.79159 38.2645 9.68702 37.9203 9.50802C37.9529 9.54062 37.839 9.44826 37.8281 9.41023" fill="white"/>
<path d="M38.1752 9.17662C38.4877 9.0288 38.8236 8.93687 39.1677 8.90498C39.2463 8.90498 39.3195 8.90498 39.4172 8.90498C39.6895 8.88674 39.9568 8.98552 40.152 9.17662C40.2393 9.31493 40.2914 9.47255 40.3039 9.63569C39.8984 9.79249 39.4623 9.85383 39.0294 9.81498C38.6423 9.79159 38.2645 9.68702 37.9203 9.50802C37.9529 9.54062 37.839 9.44826 37.8281 9.41023" fill="white"/>
<path d="M38.0754 9.37744C38.057 9.50022 38.0889 9.62527 38.164 9.72405C38.2391 9.82284 38.351 9.88693 38.4741 9.9017C38.7333 9.93915 38.9747 9.76145 39.0164 9.50239C39.0349 9.37961 39.0029 9.25456 38.9278 9.15577C38.8527 9.05699 38.7408 8.9929 38.6178 8.97812C38.3585 8.94068 38.1172 9.11838 38.0754 9.37744Z" fill="#1A0909"/>
<path d="M38.609 9.01097C38.7218 9.02372 38.8245 9.08187 38.8935 9.17205C38.9626 9.26223 38.992 9.37668 38.9751 9.48906C38.9362 9.72459 38.7179 9.88681 38.4816 9.85578C38.3688 9.84303 38.2661 9.78487 38.1971 9.69469C38.128 9.60451 38.0986 9.49007 38.1155 9.37769C38.1531 9.14135 38.3724 8.97844 38.609 9.01097Z" fill="#5C8AC7"/>
<path d="M38.8366 9.38816C38.8457 9.46202 38.8241 9.53638 38.777 9.59389C38.7298 9.6514 38.6612 9.687 38.5871 9.6924C38.4314 9.70683 38.2923 9.59512 38.2726 9.43977C38.2634 9.36591 38.285 9.29154 38.3321 9.23404C38.3793 9.17653 38.4479 9.14092 38.522 9.13553C38.6777 9.1211 38.8168 9.23281 38.8366 9.38816Z" fill="#060508"/>
<path d="M38.6931 9.23612C38.7035 9.29252 38.7524 9.33356 38.8097 9.33391C38.836 9.33355 38.8609 9.32156 38.8776 9.30114C38.8944 9.28072 38.9012 9.25395 38.8964 9.22797C38.8882 9.17035 38.8379 9.1282 38.7798 9.13018C38.7535 9.13054 38.7286 9.14253 38.7119 9.16295C38.6952 9.18337 38.6883 9.21015 38.6931 9.23612Z" fill="#FFFAE4"/>
<path d="M38.2785 9.61629C38.3561 9.72727 38.493 9.78029 38.625 9.75052C38.7569 9.72074 38.8579 9.61407 38.8805 9.48047C38.8805 9.48047 38.9374 9.52393 38.9374 9.52936C38.9011 9.68733 38.77 9.80563 38.6093 9.82546C38.4614 9.85007 38.313 9.78378 38.2324 9.65704C38.2324 9.65704 38.2731 9.61086 38.2785 9.61629Z" fill="#94BCE4"/>
<path d="M38.2351 9.25C38.188 9.35163 38.188 9.46891 38.2351 9.57054L38.1918 9.58412C38.1272 9.47613 38.1451 9.33785 38.2351 9.25V9.25Z" fill="#94BCE4"/>
<g style="mix-blend-mode:multiply">
<path d="M40.7512 8.30981C40.339 7.80456 39.9377 7.88062 39.3032 7.89692C38.9367 7.91439 38.5731 7.97085 38.2185 8.06534C38.0681 8.09882 37.921 8.1461 37.7792 8.20659C37.6843 8.25005 37.5758 7.83716 37.5894 7.79098C37.603 7.7448 37.5541 7.7774 37.5433 7.79098C37.4192 7.92011 37.3792 8.10871 37.4403 8.27722C37.5243 8.54886 37.9826 8.31525 38.129 8.27722C38.5966 8.13796 39.0845 8.08008 39.5716 8.10608C40.0706 8.14411 40.4204 8.4891 40.8461 8.69826C40.8387 8.56401 40.8065 8.4323 40.7512 8.30981Z" fill="#FAD0B3"/>
</g>
<path d="M40.537 7.91589C40.4337 7.7955 40.313 7.69114 40.1791 7.60622C39.8573 7.49675 39.5179 7.44883 39.1785 7.46497L38.929 7.48942C38.6092 7.51593 38.2925 7.57139 37.9827 7.65512C37.8606 7.69315 37.7413 7.74476 37.6166 7.77736C37.6166 7.86971 37.5949 8.049 37.5949 8.10604C37.5944 8.09971 37.5944 8.09336 37.5949 8.08703C37.5735 8.04543 37.549 8.00547 37.5217 7.9675C37.5172 8.04798 37.5255 8.12864 37.5461 8.20655C37.6015 8.26474 37.6623 8.3175 37.7278 8.3641C38.3731 8.10876 39.0673 7.91589 39.7778 8.09246C40.1551 8.15419 40.5044 8.33056 40.7784 8.59771L40.8109 8.57598C40.7845 8.33424 40.6895 8.10515 40.537 7.91589Z" fill="#573416"/>
<path d="M40.7998 8.54344C40.3095 7.96952 39.5569 7.69181 38.8121 7.81001C38.4433 7.89714 38.0808 8.00969 37.7275 8.14685C37.665 8.1728 37.5947 8.1728 37.5322 8.14685C37.5352 8.16825 37.5406 8.18922 37.5485 8.20932C37.6031 8.26651 37.663 8.31835 37.7275 8.36416C38.3728 8.10882 39.067 7.91595 39.7775 8.09252C40.1548 8.15425 40.5041 8.33062 40.7781 8.59777L40.8106 8.57604L40.7998 8.54344Z" fill="#573416"/>
<g style="mix-blend-mode:multiply">
<path d="M37.0878 8.01643C37.1356 7.82429 37.2134 7.64093 37.3183 7.47314C37.1279 7.64536 36.9929 7.8704 36.9305 8.11965C36.9007 8.3424 37.0526 8.45377 37.2017 8.58144C37.1257 8.40286 37.0869 8.21058 37.0878 8.01643Z" fill="#ECB799"/>
</g>
<path d="M35.8348 7.89152C35.4392 7.71548 35.0733 7.47906 34.7501 7.19069C34.4878 6.94448 34.1529 6.79007 33.7956 6.75063C33.3482 6.72618 32.9251 7.10648 32.7109 7.50579C32.6628 7.55843 32.6243 7.61911 32.597 7.68508C32.5887 7.69436 32.5887 7.70839 32.597 7.71767C32.8014 7.55004 33.0288 7.41281 33.2722 7.31021C33.3967 7.23417 33.5349 7.18341 33.679 7.16081L33.7712 7.13093C34.0586 7.21785 34.3379 7.57914 34.5304 7.7557C34.6009 7.8209 34.6742 7.89424 34.7528 7.96487C34.8413 8.09506 34.9569 8.20443 35.0918 8.2854C35.2269 8.36159 35.3889 8.3738 35.5339 8.31873C35.6789 8.26366 35.7921 8.14698 35.8429 8.00018C35.8781 7.96215 35.8781 7.90782 35.8348 7.89152Z" fill="#573416"/>
<g style="mix-blend-mode:multiply">
<path d="M35.2983 8.11974C35.0488 8.06813 34.7912 7.68512 34.6204 7.51398C34.257 7.14727 33.8774 6.82945 33.3568 7.12553C33.0873 7.29164 32.8379 7.48854 32.6138 7.71228C32.8181 7.54465 33.0455 7.40742 33.289 7.30482C33.4135 7.22878 33.5517 7.17802 33.6957 7.15542L33.7879 7.12553C34.0754 7.21246 34.3547 7.57374 34.5472 7.75031C34.6177 7.8155 34.6909 7.88885 34.7695 7.95947C34.858 8.08967 34.9737 8.19904 35.1085 8.28001C35.2437 8.3562 35.4056 8.36841 35.5506 8.31334C35.6957 8.25826 35.8088 8.14159 35.8596 7.99479V7.96219C35.6977 8.08098 35.4983 8.13696 35.2983 8.11974Z" fill="#573416"/>
</g>
<g style="mix-blend-mode:multiply">
<path d="M36.2281 7.94035C36.2281 7.92405 36.2037 7.94035 36.201 7.94035C36.1684 8.10877 36.0166 8.21199 35.9596 8.35596C35.9596 8.37226 35.9461 8.39943 35.9596 8.41301C35.9805 8.41923 36.0031 8.41408 36.0193 8.39943C36.1626 8.29221 36.2414 8.11907 36.2281 7.94035Z" fill="#ECB799"/>
</g>
<g style="mix-blend-mode:multiply">
<path d="M35.7727 8.00573C35.6643 8.10352 35.6046 8.35615 35.3877 8.27737C35.2025 8.17682 35.0386 8.0412 34.905 7.87806C34.6713 7.59725 34.4066 7.3439 34.1159 7.12289C33.8753 6.98007 33.5747 6.98639 33.3404 7.13919C33.0692 7.26143 32.8929 7.56838 32.6353 7.66618C32.6353 7.66618 32.6055 7.70149 32.6353 7.70149C32.8821 7.70149 33.1451 7.42985 33.3566 7.31576C33.9613 7.01423 34.3627 7.67976 34.7342 8.05462C34.924 8.24206 35.2358 8.57074 35.5477 8.48653C35.7472 8.40483 35.8843 8.21816 35.9029 8.00301C35.8812 7.94868 35.7944 7.98128 35.7727 8.00573Z" fill="#ECB799"/>
</g>
<g style="mix-blend-mode:multiply">
<path d="M36.5132 12.6991C36.4257 12.6923 36.3397 12.6721 36.2583 12.6393C36.1679 12.604 36.0822 12.5575 36.0034 12.5008C36.3071 12.4937 36.6087 12.448 36.901 12.365C36.9389 12.3514 37.0122 12.3161 37.0718 12.2862C37.1829 12.2392 37.2884 12.18 37.3864 12.1096C37.4344 12.0711 37.4788 12.0284 37.5192 11.9819L37.427 12.1476C37.2676 12.3703 37.0512 12.5458 36.8006 12.6556C36.7082 12.6873 36.6108 12.702 36.5132 12.6991Z" fill="#EBB698"/>
</g>
<path d="M36.9061 12.4521C36.7811 12.4908 36.6517 12.5136 36.521 12.52C36.3782 12.511 36.2393 12.4701 36.1143 12.4004C36.2822 12.4447 36.4567 12.4585 36.6295 12.4412C36.7108 12.4222 36.7949 12.3923 36.7949 12.3923L36.8518 12.3733C37.0671 12.3104 37.2443 12.1567 37.3372 11.9522C37.3372 11.9332 37.3562 11.9006 37.367 11.8572C37.3756 11.7572 37.3692 11.6565 37.3481 11.5584C37.2911 11.3112 37.1582 11.2215 36.9901 10.9309C36.9222 10.8012 36.8615 10.6679 36.8084 10.5315C36.6292 10.0917 36.4877 9.63729 36.3854 9.17334C36.495 9.35434 36.5807 9.54883 36.6403 9.75194L36.7217 9.9448C36.8437 10.2409 36.9657 10.5397 37.085 10.7815C37.3562 11.3247 37.4674 11.3247 37.4863 11.5801C37.4898 11.7681 37.4489 11.9542 37.367 12.1234C37.313 12.2638 37.2266 12.3894 37.1149 12.4901C37.0327 12.5564 36.9414 12.6104 36.8437 12.6504L36.7678 12.6802C36.679 12.7046 36.5853 12.7046 36.4966 12.6802C36.3903 12.6543 36.29 12.6082 36.201 12.5444C36.2597 12.5683 36.3206 12.5865 36.3827 12.5987C36.5667 12.6395 36.7593 12.6125 36.925 12.5227C37.0278 12.473 37.1157 12.3971 37.1799 12.3027C37.0961 12.3652 37.0039 12.4155 36.9061 12.4521Z" fill="#9D5317"/>
<path d="M36.4478 9.23584C36.4613 9.23584 36.4884 9.38253 36.6294 9.83617C36.7065 10.1222 36.8053 10.4019 36.925 10.6728C37.0769 10.9852 37.1745 11.1536 37.1745 11.1536C37.2378 11.2491 37.2889 11.3523 37.3263 11.4606C37.3679 11.5828 37.3827 11.7125 37.3697 11.8409C37.37 11.8532 37.3651 11.865 37.3562 11.8735C37.3074 11.9142 37.1555 11.7023 37.1365 11.6779C37.0517 11.5567 36.9825 11.4253 36.9304 11.2867C36.8274 11.0151 36.7759 10.901 36.7216 10.7272C36.5652 10.2443 36.4731 9.74286 36.4478 9.23584Z" fill="#FAEAE1"/>
<g style="mix-blend-mode:multiply">
<path d="M39.2677 13.8293C39.2215 13.6243 39.1191 13.4361 38.9722 13.286C38.701 13.0144 38.221 13.104 37.874 13.1556C37.8508 13.1675 37.8305 13.1842 37.8143 13.2045C38.0285 13.2344 38.4515 13.2996 38.4326 13.305H38.3973L38.4624 13.3295C38.1912 13.392 37.9472 13.4816 37.6787 13.5278C37.3425 13.5848 37.0035 13.6229 36.6646 13.6636C36.2822 13.7098 35.9026 13.7614 35.5175 13.7777C35.4497 13.7777 35.3006 13.8049 35.1542 13.8049C34.9948 13.8252 34.8335 13.8252 34.6742 13.8049C34.6308 13.8049 34.6227 13.7478 34.6362 13.7152L34.6606 13.6663L34.5495 13.7179L34.5115 13.737C34.4493 13.8172 34.4049 13.9098 34.3813 14.0086C34.5034 14.0765 34.6227 14.1363 34.7366 14.2042L34.7664 14.2232C34.8662 14.2873 34.9573 14.364 35.0376 14.4514L35.1026 14.522C35.1677 14.5845 35.2328 14.647 35.2952 14.7121C35.5013 14.9267 35.6504 15.1984 35.9487 15.2826C36.2489 15.3179 36.5531 15.2929 36.8435 15.2093C37.1478 15.1774 37.4484 15.1165 37.7411 15.0273C37.9251 14.9448 38.0746 14.8007 38.1641 14.6198C38.2427 14.4758 38.3132 14.3264 38.3865 14.1797C38.4109 14.1308 38.438 14.0819 38.4624 14.0303C38.4712 14.0081 38.4812 13.9863 38.4922 13.9651C38.544 13.8178 38.6384 13.6892 38.7634 13.5957C38.8773 13.5305 38.9532 13.6392 39.0101 13.7342C39.0181 13.7508 39.0244 13.7681 39.0291 13.7859L39.0508 13.8184C39.0884 13.8834 39.1202 13.9516 39.1457 14.0222C39.1673 14.0887 39.1945 14.1532 39.2271 14.215C39.2595 14.0892 39.2732 13.9592 39.2677 13.8293Z" fill="#FAD0B3"/>
</g>
<g style="mix-blend-mode:multiply">
<path d="M37.2777 15.5215C37.0755 15.6024 36.8627 15.6536 36.6458 15.6736C36.4659 15.7082 36.2806 15.7017 36.1035 15.6546C36.178 15.7552 36.2698 15.8417 36.3747 15.9099C36.4631 15.9366 36.5539 15.9548 36.6458 15.9643C36.8204 15.9826 36.9947 15.9286 37.1285 15.8149C37.1834 15.7198 37.2332 15.6219 37.2777 15.5215Z" fill="#EEC1A6"/>
</g>
<path d="M39.0288 13.4542C39.0288 13.4216 39.0044 13.3917 38.9908 13.3591C38.9326 13.2789 38.8332 13.2397 38.736 13.2586C38.6926 13.2586 38.6139 13.2939 38.5353 13.3102C38.5911 13.3391 38.6503 13.361 38.7115 13.3754H38.736C38.6415 13.419 38.5446 13.457 38.4458 13.4895C38.099 13.5758 37.7478 13.6429 37.3937 13.6905C36.7118 13.8034 36.0235 13.8732 35.3328 13.8997C35.1002 13.9212 34.8658 13.9111 34.6359 13.8698C34.611 13.8629 34.5913 13.8438 34.5836 13.8191C34.5759 13.7944 34.5813 13.7674 34.598 13.7476L34.6603 13.6905C34.5915 13.7081 34.5281 13.7426 34.4759 13.791C34.426 13.8553 34.3958 13.9327 34.3892 14.0138L34.4271 13.9948C34.9234 14.0247 35.3735 14.701 35.6447 15.046C35.8318 15.2878 36.1599 15.2253 36.4744 15.171C36.8707 15.1376 37.2629 15.0667 37.6459 14.9591C37.7869 14.9156 37.8818 14.8966 37.9523 14.7853C38.2234 14.3343 38.3021 13.7775 38.7658 13.4759C38.7973 13.4622 38.8281 13.4468 38.858 13.4298C38.8843 13.4475 38.9064 13.4706 38.9231 13.4977C38.9664 13.5792 38.98 13.6661 39.0776 13.7014C39.0665 13.6181 39.0502 13.5355 39.0288 13.4542Z" fill="#804E29"/>
<path d="M38.2344 14.0193C38.1449 14.1904 38.0771 14.3724 38.0012 14.5626C37.9249 14.7505 37.762 14.8894 37.5646 14.9347C37.3233 14.9592 37.0819 15.0053 36.8433 15.0434C36.5369 15.0923 36.1735 15.2091 35.8644 15.1086C35.6742 14.9367 35.5123 14.736 35.3844 14.5137C35.2345 14.3029 35.0377 14.1299 34.8096 14.0084C35.4522 14.0084 36.0678 13.9378 36.2928 13.9106C36.9436 13.8319 37.5727 13.7531 38.2154 13.639C38.3212 13.6173 38.454 13.5982 38.5869 13.5684C38.4411 13.6941 38.3213 13.8473 38.2344 14.0193Z" fill="#8A1812"/>
<path d="M37.8411 13.9405C37.6214 13.9948 37.3964 14.0247 37.1713 14.0627C36.6452 14.1551 36.1219 14.2556 35.5931 14.3153C35.585 14.4866 35.5986 14.6582 35.6338 14.826V14.8803C35.6917 14.9642 35.7643 15.0369 35.848 15.0949C36.1571 15.1954 36.5205 15.0786 36.8269 15.0297C37.0655 14.9917 37.3069 14.9455 37.5482 14.9211C37.7456 14.8758 37.9085 14.7369 37.9848 14.5489L38.1068 14.2556C38.0661 14.0654 37.9821 13.9051 37.8411 13.9405Z" fill="white"/>
<g style="mix-blend-mode:multiply" opacity="0.6">
<path d="M37.8414 13.9405C37.6217 13.9948 37.3966 14.0247 37.1716 14.0627C36.6455 14.1551 36.1222 14.2556 35.5934 14.3153C35.5808 14.4054 35.5808 14.4969 35.5934 14.587C35.6159 14.5552 35.65 14.5337 35.6883 14.5272C36.0544 14.4702 36.4449 14.5272 36.8191 14.481C37.0885 14.4673 37.3553 14.4208 37.6136 14.3425C37.6976 14.3099 37.7302 14.2963 37.8088 14.3425C37.8874 14.3887 37.9037 14.5652 37.882 14.7092C37.924 14.6581 37.9587 14.6015 37.9851 14.5408L38.1071 14.2474C38.0664 14.0654 37.9824 13.9052 37.8414 13.9405Z" fill="#B7A896"/>
</g>
<path d="M35.843 14.451C36.2377 14.4688 36.6331 14.4442 37.0226 14.3777C37.2056 14.3477 37.3867 14.3069 37.5649 14.2555C37.7249 14.2093 37.9879 14.1712 38.1072 14.0327C38.1985 13.9075 38.2513 13.7583 38.2591 13.6035H38.213C37.5703 13.7312 36.9412 13.81 36.2904 13.8752C36.0979 13.8996 35.6233 13.9458 35.0864 13.9648C35.2397 14.2452 35.5247 14.4284 35.843 14.451Z" fill="white"/>
<path d="M36.6294 15.6274C36.4625 15.656 36.2919 15.656 36.125 15.6274C36.1821 15.6965 36.2521 15.7537 36.3311 15.7958C36.5443 15.8189 36.7599 15.7871 36.9575 15.7035C37.0051 15.6675 37.0504 15.6285 37.0931 15.5867C36.9395 15.6099 36.7846 15.6235 36.6294 15.6274Z" fill="#A04E17"/>
<path d="M35.4929 13.8018C35.212 13.8331 34.9277 13.8063 34.6577 13.723C34.6143 14.0436 36.0948 13.7909 36.2847 13.7746C36.2847 13.7746 36.3145 13.742 36.2847 13.7393C36.0325 13.7692 35.764 13.7964 35.4929 13.8018Z" fill="#FBEBE2"/>
<path d="M36.8085 15.334C36.4831 15.334 36.1713 15.4699 35.854 15.3177C35.8969 15.4238 35.9826 15.5067 36.0899 15.5459L36.1604 15.5595C36.3289 15.5761 36.4989 15.549 36.6539 15.4807C36.7098 15.4367 36.7616 15.3876 36.8085 15.334Z" fill="#FBEBE2"/>
<path fill-rule="evenodd" clip-rule="evenodd" d="M31.4476 27.2379C31.5727 27.045 31.6422 26.8213 31.6483 26.5914C31.6475 26.5805 31.647 26.5674 31.6464 26.5527C31.6448 26.5126 31.6427 26.4603 31.6347 26.4067C31.5687 25.8807 31.1745 25.4558 30.6557 25.3514C30.1369 25.247 29.6095 25.4864 29.3458 25.946C29.0822 26.4056 29.1412 26.9827 29.4925 27.3791C29.8371 27.7795 30.4003 27.9113 30.8863 27.7051C30.933 27.6768 30.9937 27.6899 31.0246 27.735C31.0704 27.7986 31.1414 27.8393 31.2193 27.8466C31.2973 27.8539 31.3746 27.827 31.4313 27.773C31.4907 27.7214 31.5262 27.6475 31.5293 27.5687C31.5323 27.49 31.5028 27.4135 31.4476 27.3574C31.431 27.342 31.4216 27.3203 31.4216 27.2976C31.4216 27.275 31.431 27.2533 31.4476 27.2379ZM30.756 26.0617C30.923 26.2505 30.9823 26.5117 30.9133 26.7544L30.8319 26.6647C30.7812 26.6065 30.7093 26.571 30.6323 26.5664C30.5553 26.5619 30.4797 26.5885 30.4224 26.6403C30.362 26.6895 30.3255 26.7623 30.3224 26.8403C30.3193 26.9183 30.3498 26.9939 30.4062 27.0477C30.4478 27.0915 30.4867 27.1378 30.5228 27.1863C30.4305 27.2232 30.3276 27.2232 30.2353 27.1863C30.111 27.1266 30.0141 27.0217 29.9642 26.8929C29.8349 26.6002 29.9009 26.2579 30.1296 26.0345C30.2147 25.9517 30.3301 25.9077 30.4486 25.9128C30.5672 25.918 30.6783 25.9718 30.756 26.0617Z" fill="white"/>
<path d="M37.8794 26.5889L37.9527 26.5101L38.4733 25.9315C38.5552 25.8396 38.6801 25.799 38.8003 25.825C38.9205 25.8511 39.0175 25.9398 39.0542 26.0574C39.0909 26.175 39.0616 26.3033 38.9777 26.3933L38.4652 26.9583L38.7065 27.2843C38.7824 27.382 38.8583 27.4826 38.9289 27.5831C38.9861 27.6566 39.0114 27.7501 38.9992 27.8426C38.987 27.935 38.9382 28.0187 38.8638 28.0747C38.7905 28.1303 38.6974 28.1528 38.6068 28.1368C38.5163 28.1208 38.4365 28.0678 38.3865 27.9905C38.2211 27.7732 38.0611 27.5532 37.8984 27.3359L37.8361 27.2571C37.8344 27.2806 37.8344 27.3042 37.8361 27.3277C37.8361 27.469 37.8225 27.6129 37.8144 27.7542C37.807 27.9375 37.6558 28.0818 37.4727 28.0802C37.2903 28.0759 37.1435 27.9288 37.1392 27.746V27.708C37.1663 27.1647 37.1907 26.6215 37.2205 26.0782C37.2197 25.9886 37.2555 25.9026 37.3194 25.84C37.3834 25.7775 37.4701 25.7438 37.5595 25.7468C37.7394 25.7512 37.8835 25.8978 37.8849 26.0782C37.8849 26.2412 37.8686 26.4041 37.8605 26.5671L37.8794 26.5889Z" fill="white"/>
<path d="M32.4945 26.4148C32.4945 26.5941 32.4755 26.7761 32.4701 26.9581C32.4603 27.1291 32.5908 27.2756 32.7616 27.2854C32.9323 27.2951 33.0786 27.1644 33.0883 26.9934C33.1073 26.6158 33.1236 26.2409 33.1453 25.8661C33.1506 25.7486 33.2171 25.6426 33.3205 25.5869C33.4239 25.5312 33.5489 25.5341 33.6496 25.5944C33.7616 25.6531 33.8285 25.7723 33.8205 25.8987C33.8042 26.2871 33.7961 26.6783 33.7554 27.064C33.6929 27.5724 33.2512 27.9475 32.7403 27.9262C32.2295 27.9049 31.8205 27.4943 31.8003 26.9825C31.8003 26.5859 31.8247 26.1893 31.8518 25.7927C31.8564 25.7028 31.8982 25.6188 31.9671 25.5611C32.0361 25.5033 32.126 25.477 32.2152 25.4885C32.3043 25.4954 32.3869 25.5378 32.4445 25.6062C32.5021 25.6746 32.5299 25.7633 32.5216 25.8525C32.5162 26.0345 32.5053 26.2246 32.4945 26.4148Z" fill="white"/>
<path d="M36.0415 28.0771C35.5436 28.0505 35.1108 27.7256 34.9456 27.2543C34.7803 26.783 34.9152 26.2584 35.2872 25.9257C35.6591 25.593 36.1947 25.5179 36.6435 25.7355C36.7642 25.8001 36.8726 25.8856 36.9635 25.9882C37.0412 26.068 37.0715 26.1829 37.0431 26.2908C37.0148 26.3988 36.9321 26.4839 36.8252 26.5151C36.7125 26.5454 36.5921 26.5145 36.5079 26.4336C36.4975 26.425 36.4883 26.415 36.4808 26.4038C36.3799 26.2501 36.1988 26.1695 36.0173 26.1976C35.8359 26.2257 35.6874 26.3572 35.6375 26.5342C35.5234 26.7714 35.543 27.0513 35.689 27.2703C35.7602 27.393 35.8855 27.4743 36.0263 27.4893C36.1672 27.5043 36.3068 27.4513 36.4021 27.3464C36.4706 27.2676 36.569 27.2212 36.6733 27.2187C36.7826 27.2174 36.8842 27.2746 36.9401 27.3686C36.996 27.4627 36.9977 27.5794 36.9445 27.675C36.8757 27.7945 36.7714 27.8894 36.6462 27.9467C36.4608 28.0462 36.2513 28.0913 36.0415 28.0771Z" fill="white"/>
<path d="M34.6909 26.7732C34.6773 27.0448 34.6638 27.3165 34.6475 27.6044C34.6401 27.7588 34.528 27.8881 34.3763 27.9168C34.2323 27.9517 34.0829 27.8847 34.013 27.7538C33.9815 27.6916 33.9657 27.6226 33.9669 27.5528C33.9913 27.0095 34.0157 26.4662 34.0455 25.9229C34.0518 25.8016 34.1222 25.6929 34.2302 25.6377C34.3383 25.5825 34.4675 25.5892 34.5692 25.6554C34.6709 25.7215 34.7297 25.8369 34.7234 25.9583C34.7234 26.2299 34.699 26.5015 34.6854 26.7732H34.6909Z" fill="white"/>
<path d="M39.2351 26.9932L39.2757 26.1783C39.2806 26.057 39.3497 25.9475 39.457 25.891C39.5643 25.8346 39.6935 25.8397 39.7959 25.9046C39.8984 25.9695 39.9585 26.0841 39.9537 26.2055C39.9283 26.7487 39.9012 27.292 39.8723 27.8353C39.8634 28.0029 39.7335 28.1388 39.5667 28.1551C39.4 28.1714 39.2464 28.0632 39.2052 27.9005C39.1985 27.86 39.1985 27.8187 39.2052 27.7783C39.2107 27.5256 39.2242 27.2594 39.2351 26.9932Z" fill="white"/>
<path fill-rule="evenodd" clip-rule="evenodd" d="M35.5662 47.4911C35.5772 47.4146 35.5669 47.3366 35.5364 47.2656L35.5011 47.214C35.4089 47.0626 35.2304 46.9871 35.0577 47.0265C34.8851 47.0658 34.7568 47.2113 34.7391 47.3879C34.7226 47.5652 34.8192 47.7338 34.9805 47.8089C35.1469 47.8828 35.342 47.8387 35.4604 47.7003C35.4737 47.6888 35.4933 47.6888 35.5065 47.7003C35.5289 47.7132 35.5557 47.7158 35.5801 47.7075C35.6045 47.6992 35.6242 47.6807 35.634 47.6568C35.6456 47.6328 35.6467 47.605 35.6369 47.5802C35.6271 47.5554 35.6073 47.5359 35.5825 47.5264C35.5662 47.5183 35.5662 47.5101 35.5662 47.4911ZM35.1921 47.2276C35.2693 47.2621 35.3236 47.3339 35.3358 47.4177L35.3005 47.3906C35.2768 47.3796 35.2497 47.3786 35.2252 47.3877C35.2008 47.3969 35.181 47.4156 35.1704 47.4395C35.1596 47.4632 35.1591 47.4902 35.1688 47.5144C35.1785 47.5385 35.1977 47.5576 35.2219 47.5671C35.2407 47.5736 35.2588 47.5818 35.2761 47.5916C35.2535 47.6154 35.2222 47.6291 35.1893 47.6296C35.1426 47.6294 35.0979 47.6108 35.0646 47.578C34.99 47.509 34.9634 47.4023 34.9968 47.3064C35.0111 47.269 35.0403 47.2393 35.0773 47.2244C35.1143 47.2094 35.1559 47.2106 35.1921 47.2276Z" fill="white"/>
<path d="M37.4431 46.399C37.4431 46.399 37.4431 46.3773 37.4431 46.3664L37.5245 46.1165C37.5313 46.0857 37.5509 46.0593 37.5783 46.0437C37.6057 46.0282 37.6384 46.025 37.6682 46.035C37.699 46.0442 37.7245 46.0659 37.7384 46.0949C37.7524 46.1238 37.7535 46.1573 37.7414 46.1871C37.7143 46.2686 37.6899 46.3474 37.6628 46.4316L37.7821 46.4968L37.8906 46.5566C37.9478 46.5877 37.9695 46.659 37.9394 46.7168C37.9241 46.7441 37.8984 46.7639 37.8681 46.7716C37.8379 46.7793 37.8058 46.7742 37.7794 46.7576L37.5408 46.6245H37.5109C37.5119 46.6317 37.5119 46.639 37.5109 46.6462C37.5299 46.6897 37.5489 46.7359 37.5652 46.7793C37.5865 46.8363 37.5605 46.9002 37.5055 46.926C37.4493 46.9498 37.3842 46.9261 37.3564 46.8717C37.2886 46.7005 37.2208 46.5321 37.153 46.3583C37.1413 46.3309 37.1411 46.3 37.1523 46.2725C37.1635 46.2449 37.1852 46.223 37.2127 46.2116C37.2402 46.1982 37.272 46.197 37.3004 46.2084C37.3288 46.2198 37.3511 46.2426 37.3618 46.2714C37.3835 46.3202 37.4025 46.3719 37.4215 46.4235L37.4431 46.399Z" fill="white"/>
<path d="M35.7723 47.0916C35.794 47.1486 35.8157 47.2057 35.8401 47.2627C35.8537 47.2972 35.8846 47.3218 35.9211 47.3272C35.9577 47.3327 35.9944 47.3182 36.0174 47.2892C36.0404 47.2602 36.0462 47.2211 36.0326 47.1867L35.8944 46.8335C35.8801 46.7967 35.8859 46.7551 35.9096 46.7236C35.9334 46.6921 35.9717 46.6751 36.011 46.6787C36.054 46.6807 36.0915 46.7086 36.1059 46.7493C36.1547 46.8689 36.2062 46.9911 36.2469 47.1133C36.2939 47.2765 36.2102 47.4489 36.0531 47.5126C35.8959 47.5762 35.7161 47.5106 35.6367 47.3605C35.5825 47.2383 35.5364 47.1133 35.4876 46.9884C35.4773 46.9599 35.479 46.9285 35.4923 46.9014C35.5056 46.8742 35.5294 46.8537 35.5581 46.8444C35.6172 46.8246 35.6813 46.856 35.7018 46.915C35.7262 46.9721 35.7479 47.0318 35.7723 47.0916Z" fill="white"/>
<path d="M37.0879 47.1082C36.9328 47.1675 36.7573 47.1278 36.6427 47.0075C36.5282 46.8871 36.4968 46.7097 36.5633 46.5572C36.6297 46.4048 36.7809 46.3072 36.9469 46.3096C36.9928 46.3121 37.0379 46.3231 37.0798 46.3422C37.1143 46.3566 37.1391 46.3879 37.1451 46.4249C37.1512 46.4619 37.1378 46.4995 37.1096 46.5242C37.0787 46.5479 37.0382 46.555 37.0011 46.5432C36.9493 46.5095 36.8826 46.5093 36.8306 46.5427C36.7786 46.576 36.7509 46.6368 36.7598 46.6981C36.7584 46.7866 36.8037 46.8692 36.8791 46.9154C36.9171 46.944 36.9667 46.9524 37.012 46.9378C37.0573 46.9232 37.0927 46.8875 37.1069 46.842C37.1176 46.8075 37.1422 46.779 37.1747 46.7633C37.2079 46.7488 37.2463 46.7529 37.2758 46.7741C37.3052 46.7952 37.3214 46.8303 37.3184 46.8665C37.3151 46.9126 37.297 46.9564 37.2669 46.9914C37.2199 47.0471 37.1577 47.0877 37.0879 47.1082Z" fill="white"/>
<path d="M36.4939 46.8962L36.5943 47.1678C36.614 47.2156 36.5983 47.2708 36.5563 47.3009C36.5175 47.3323 36.4622 47.3323 36.4234 47.3009C36.4062 47.2859 36.3923 47.2674 36.3828 47.2466C36.315 47.0782 36.2472 46.907 36.1821 46.7386C36.1679 46.7104 36.1666 46.6775 36.1785 46.6483C36.1905 46.6191 36.2146 46.5965 36.2445 46.5865C36.2731 46.5743 36.3056 46.5747 36.3339 46.5876C36.3623 46.6005 36.3839 46.6248 36.3936 46.6544C36.4261 46.7386 36.4587 46.8228 36.4939 46.907V46.8962Z" fill="white"/>
<path d="M37.9143 46.3339C37.8791 46.2497 37.8465 46.1655 37.814 46.0813C37.7971 46.043 37.8024 45.9986 37.8278 45.9654C37.8533 45.9323 37.8948 45.9157 37.9361 45.9223C37.9773 45.9289 38.0116 45.9576 38.0255 45.9971C38.0933 46.1682 38.1611 46.3366 38.2262 46.5105C38.2454 46.5628 38.224 46.6214 38.1756 46.649C38.1273 46.6766 38.0661 46.6651 38.0309 46.6218C38.0236 46.6107 38.0172 46.5988 38.0119 46.5865L37.9143 46.3339Z" fill="white"/>
</svg>
